<svg width="107" height="36" viewBox="0 0 107 36" fill="none" xmlns="http://www.w3.org/2000/svg">
<path d="M45.2939 18.4614C45.2939 23.4583 41.3848 27.1405 36.5874 27.1405C31.79 27.1405 27.8809 23.4583 27.8809 18.4614C27.8809 13.4292 31.79 9.78223 36.5874 9.78223C41.3848 9.78223 45.2939 13.4292 45.2939 18.4614ZM41.4826 18.4614C41.4826 15.3387 39.2169 13.2022 36.5874 13.2022C33.9578 13.2022 31.6922 15.3387 31.6922 18.4614C31.6922 21.5527 33.9578 23.7205 36.5874 23.7205C39.2169 23.7205 41.4826 21.5487 41.4826 18.4614Z" fill="#BBBBCF"/>
<path d="M64.0761 18.4614C64.0761 23.4583 60.167 27.1405 55.3696 27.1405C50.5722 27.1405 46.6631 23.4583 46.6631 18.4614C46.6631 13.4331 50.5722 9.78223 55.3696 9.78223C60.167 9.78223 64.0761 13.4292 64.0761 18.4614ZM60.2648 18.4614C60.2648 15.3387 57.9992 13.2022 55.3696 13.2022C52.74 13.2022 50.4744 15.3387 50.4744 18.4614C50.4744 21.5527 52.74 23.7205 55.3696 23.7205C57.9992 23.7205 60.2648 21.5487 60.2648 18.4614Z" fill="#BBBBCF"/>
<path d="M82.0758 10.3066V25.8883C82.0758 32.2979 78.2958 34.9157 73.8271 34.9157C69.6205 34.9157 67.0888 32.1022 66.134 29.8014L69.4523 28.4201C70.0432 29.8327 71.491 31.4996 73.8232 31.4996C76.6836 31.4996 78.4562 29.7348 78.4562 26.4127V25.1644H78.3232C77.4701 26.217 75.8266 27.1366 73.7527 27.1366C69.4132 27.1366 65.4375 23.3566 65.4375 18.4927C65.4375 13.5935 69.4132 9.78223 73.7527 9.78223C75.8227 9.78223 77.4662 10.7018 78.3232 11.7231H78.4562V10.3105H82.0758V10.3066ZM78.7262 18.4927C78.7262 15.4366 76.6875 13.2022 74.0932 13.2022C71.4636 13.2022 69.2605 15.4366 69.2605 18.4927C69.2605 21.5174 71.4636 23.7205 74.0932 23.7205C76.6875 23.7205 78.7262 21.5174 78.7262 18.4927Z" fill="#BBBBCF"/>
<path d="M88.0436 1.17383V26.6086H84.3262V1.17383H88.0436Z" fill="#BBBBCF"/>
<path d="M102.529 21.3179L105.487 23.2901C104.533 24.7027 102.232 27.1366 98.2562 27.1366C93.3257 27.1366 89.6436 23.3253 89.6436 18.4575C89.6436 13.2961 93.357 9.77832 97.8296 9.77832C102.334 9.77832 104.537 13.3627 105.257 15.2996L105.652 16.2857L94.0496 21.0909C94.9379 22.8322 96.3192 23.7205 98.2562 23.7205C100.197 23.7205 101.543 22.7657 102.529 21.3179ZM93.4236 18.1953L101.179 14.9748C100.753 13.8909 99.4692 13.1357 97.9588 13.1357C96.0218 13.1357 93.3257 14.8457 93.4236 18.1953V18.1953Z" fill="#BBBBCF"/>
<path d="M13.8089 16.2036V12.5214H26.2171C26.3385 13.1632 26.4011 13.9223 26.4011 14.744C26.4011 17.5066 25.6458 20.9227 23.2119 23.3566C20.8445 25.8219 17.8198 27.1366 13.8128 27.1366C6.38584 27.1366 0.140625 21.0871 0.140625 13.6601C0.140625 6.23316 6.38584 0.183594 13.8128 0.183594C17.9215 0.183594 20.8485 1.79577 23.0476 3.89707L20.4493 6.49533C18.8724 5.0162 16.7358 3.86577 13.8089 3.86577C8.38541 3.86577 4.14367 8.23664 4.14367 13.6601C4.14367 19.0836 8.38541 23.4545 13.8089 23.4545C17.3267 23.4545 19.3302 22.0419 20.6137 20.7584C21.6545 19.7175 22.3393 18.2305 22.6093 16.1997L13.8089 16.2036V16.2036Z" fill="#BBBBCF"/>
</svg>
