<svg width="80" height="80" viewBox="0 0 88 88" fill="none" xmlns="http://www.w3.org/2000/svg">
<path d="M87.0174 27.709L44.8508 5.70896C44.3192 5.43035 43.6848 5.43035 43.1532 5.70896L0.986562 27.709C0.381391 28.0244 0 28.6476 0 29.3334C0 30.019 0.381391 30.6424 0.986391 30.9577L43.153 52.9578C43.417 53.0971 43.7104 53.1668 44 53.1668C44.2896 53.1668 44.583 53.0971 44.847 52.9578L87.0136 30.9577C87.6186 30.6424 88 30.0191 88 29.3334C88 28.6476 87.6186 28.0244 87.0174 27.709ZM44 49.269L5.797 29.3334L44 9.39757L82.203 29.3332L44 49.269Z" fill="#F9392D"/>
<path d="M87.0174 42.3721L80.8868 39.1747C79.9922 38.7163 78.8812 39.0537 78.4118 39.9521C77.9424 40.8505 78.2908 41.9577 79.1892 42.4271L82.203 44.0001L44 63.9358L5.797 44.0001L8.81461 42.4307C9.713 41.9613 10.0612 40.8541 9.592 39.9557C9.12261 39.0537 8.01161 38.7201 7.117 39.1783L0.986391 42.3757C0.381391 42.6911 0 43.3145 0 44.0001C0 44.6857 0.381391 45.3091 0.986391 45.6245L43.153 67.6245C43.417 67.7639 43.7104 67.8335 44 67.8335C44.2896 67.8335 44.583 67.7639 44.847 67.6245L87.0136 45.6245C87.6186 45.3091 88 44.6859 88 44.0001C88 43.3143 87.6186 42.6911 87.0174 42.3721Z" fill="#292929"/>
<path d="M87.0174 57.0386L80.8868 53.8412C79.9922 53.3829 78.8812 53.7202 78.4118 54.6186C77.9424 55.517 78.2908 56.6242 79.1892 57.0936L82.2032 58.6666L44 78.6024L5.797 58.6666L8.81461 57.0972C9.713 56.6278 10.0612 55.5206 9.592 54.6222C9.12261 53.7239 8.01161 53.3828 7.117 53.8448L0.986391 57.0424C0.381391 57.3576 0 57.981 0 58.6666C0 59.3522 0.381391 59.9756 0.986391 60.291L43.153 82.291C43.417 82.4304 43.7104 82.5 44 82.5C44.2896 82.5 44.583 82.4304 44.847 82.291L87.0136 60.291C87.6186 59.9756 88 59.3524 88 58.6666C88 57.981 87.6186 57.3576 87.0174 57.0386Z" fill="#F9392D"/>
</svg>
