<svg width="62" height="42" viewBox="0 0 62 42" fill="none" xmlns="http://www.w3.org/2000/svg">
<path d="M20.2108 8.69773L35.8912 3.28896C37.3767 2.78109 39.0399 2.88267 40.462 3.56829L41.2492 3.94918C42.3157 4.46975 43.5727 4.54593 44.69 4.13963L46.0358 3.65716C46.0993 3.61907 46.1628 3.58098 46.2262 3.55559L54.2505 0.82581C54.441 0.762326 54.6568 0.775023 54.8346 0.8639C55.0123 0.952777 55.152 1.10514 55.2155 1.29559L61.9574 20.9627C62.0971 21.3563 61.8812 21.788 61.4876 21.9276L53.4506 24.6828C53.3618 24.7209 53.2856 24.7336 53.1967 24.7336C53.0824 24.7336 52.9682 24.7082 52.8666 24.6574C52.6888 24.5685 52.5492 24.4162 52.4857 24.2257L45.9977 5.30773L45.1851 5.59975C43.6869 6.13301 41.9983 6.03144 40.5635 5.33312L39.7764 4.95222C38.7225 4.43166 37.4783 4.35548 36.3737 4.73638L21.2773 9.942C21.3916 10.6022 21.709 11.6941 22.5343 12.2655C23.2707 12.7734 24.3372 12.7987 25.6831 12.329L32.2726 10.0817C32.4758 10.0182 32.6916 10.0309 32.8821 10.1325C33.0725 10.234 33.1995 10.4118 33.263 10.6149C33.2757 10.653 34.2533 14.2589 37.3005 15.884C39.2304 16.9252 41.6174 16.9632 44.3979 16.011C44.7915 15.8713 45.2232 16.0872 45.3629 16.4808C45.5025 16.8744 45.2867 17.3061 44.8931 17.4457C43.4076 17.9536 41.9983 18.2075 40.6905 18.2075C39.1923 18.2075 37.8211 17.8774 36.5768 17.2045C33.8597 15.7444 32.552 13.0781 32.0568 11.7576L26.2036 13.7637C24.3626 14.3985 22.8517 14.3096 21.6836 13.5098C19.8045 12.2147 19.7157 9.54841 19.703 9.43414C19.6903 9.10402 19.9061 8.7993 20.2108 8.69773ZM53.6665 22.9942L60.2687 20.7342L54.022 2.51446L47.5975 4.71098C47.5467 4.73638 47.4959 4.76177 47.4451 4.78716L47.4197 4.79986L53.6665 22.9942Z" fill="#292929"/>
<path d="M0.0743942 19.9596L9.24137 1.33366C9.33024 1.15591 9.4826 1.01625 9.67306 0.952763C9.86351 0.88928 10.0793 0.901977 10.2571 0.990853L17.8878 4.72367C18.2687 4.91412 18.421 5.3585 18.2433 5.7394L9.35564 23.8956L12.3394 26.6254C14.866 28.9489 17.7227 30.8915 20.808 32.4024L35.4218 39.5506C35.8281 39.7537 36.2852 39.7791 36.7169 39.6267C37.1486 39.4744 37.4914 39.1697 37.6945 38.7634C37.8977 38.3571 37.9231 37.9 37.7707 37.4683C37.6184 37.0366 37.3136 36.6938 36.9074 36.4907L28.7434 32.4912C28.3625 32.3008 28.2102 31.8564 28.3879 31.4755C28.5784 31.0946 29.0354 30.9422 29.4036 31.12L37.3898 35.0306L41.4147 36.9985C42.2526 37.4048 43.2811 37.062 43.6874 36.224C44.0937 35.3861 43.7508 34.3703 42.9129 33.9514L31.1812 28.2125C30.8003 28.022 30.6479 27.5776 30.8257 27.1967C31.0161 26.8158 31.4732 26.6635 31.8414 26.8412L40.5259 31.0946L43.5731 32.5801L45.0078 33.2784C45.8458 33.6847 46.8742 33.3419 47.2805 32.5039C47.6868 31.666 47.344 30.6375 46.506 30.2312L45.0586 29.5202L34.5585 24.3781C34.1776 24.1876 34.0252 23.7432 34.203 23.3623C34.3934 22.9814 34.8505 22.8291 35.2187 23.0068L41.9606 26.308L45.7188 28.149C46.1251 28.3521 46.5822 28.3775 47.0139 28.2252C47.4456 28.0728 47.7884 27.7681 47.9915 27.3618C48.1947 26.9555 48.2201 26.4984 48.0677 26.0667C47.9153 25.635 47.6106 25.2922 47.2043 25.0891L41.6305 22.3593C41.2496 22.1689 41.0972 21.7245 41.275 21.3436C41.4654 20.9627 41.9225 20.8103 42.2907 20.9881L47.8646 23.7179C48.6391 24.0988 49.2231 24.759 49.5024 25.5716C49.7817 26.3841 49.731 27.2602 49.3501 28.0347C49.058 28.6442 48.5756 29.1266 47.9915 29.444C48.9565 30.3963 49.2485 31.8818 48.6264 33.1515C48.0677 34.2942 46.925 34.9544 45.7315 34.9544C45.5919 34.9544 45.4522 34.9417 45.3125 34.929C45.4141 35.5638 45.3379 36.2367 45.0332 36.8716C44.4746 38.0143 43.3319 38.6745 42.1384 38.6745C41.6686 38.6745 41.1861 38.5729 40.729 38.3444L39.3451 37.6588C39.4086 38.2555 39.307 38.8523 39.0277 39.3982C38.6468 40.1727 37.9866 40.7568 37.174 41.0361C36.8312 41.1503 36.4757 41.2138 36.1202 41.2138C35.6377 41.2138 35.1552 41.0996 34.7108 40.8837L20.097 33.7355C16.872 32.1611 13.9137 30.1297 11.2728 27.7046L7.95901 24.6574L0.429897 20.9754C0.0489998 20.7849 -0.103359 20.3405 0.0743942 19.9596ZM8.07328 23.0576L16.5419 5.7521L10.2698 2.6922L1.81383 19.9977L8.07328 23.0576Z" fill="#F9392D"/>
</svg>
