<svg width="76" height="76" viewBox="0 0 76 76" fill="none" xmlns="http://www.w3.org/2000/svg">
<path d="M68.875 4.75H62.9375V3.5625C62.9375 1.59823 61.3393 0 59.375 0C57.4107 0 55.8125 1.59823 55.8125 3.5625V4.75H20.1875V3.5625C20.1875 1.59823 18.5893 0 16.625 0C14.6607 0 13.0625 1.59823 13.0625 3.5625V4.75H7.125C4.50582 4.75 2.375 6.88082 2.375 9.5V59.375C2.375 61.9942 4.50582 64.125 7.125 64.125H17.8125C18.4683 64.125 19 63.5933 19 62.9375C19 62.2817 18.4683 61.75 17.8125 61.75H7.125C5.81548 61.75 4.75 60.6845 4.75 59.375V19H71.25V59.375C71.25 60.6845 70.1845 61.75 68.875 61.75H58.1875C57.5317 61.75 57 62.2817 57 62.9375C57 63.5933 57.5317 64.125 58.1875 64.125H68.875C71.4942 64.125 73.625 61.9942 73.625 59.375C73.625 57.2017 73.625 11.8863 73.625 9.5C73.625 6.88082 71.4942 4.75 68.875 4.75ZM58.1875 3.5625C58.1875 2.90774 58.7202 2.375 59.375 2.375C60.0298 2.375 60.5625 2.90774 60.5625 3.5625V9.5C60.5625 10.1548 60.0298 10.6875 59.375 10.6875C58.7202 10.6875 58.1875 10.1548 58.1875 9.5V3.5625ZM15.4375 3.5625C15.4375 2.90774 15.9702 2.375 16.625 2.375C17.2798 2.375 17.8125 2.90774 17.8125 3.5625V9.5C17.8125 10.1548 17.2798 10.6875 16.625 10.6875C15.9702 10.6875 15.4375 10.1548 15.4375 9.5V3.5625ZM4.75 16.625V9.5C4.75 8.19048 5.81548 7.125 7.125 7.125H13.0625V9.5C13.0625 11.4643 14.6607 13.0625 16.625 13.0625C18.5893 13.0625 20.1875 11.4643 20.1875 9.5V7.125H55.8125V9.5C55.8125 11.4643 57.4107 13.0625 59.375 13.0625C61.3393 13.0625 62.9375 11.4643 62.9375 9.5V7.125H68.875C70.1845 7.125 71.25 8.19048 71.25 9.5V16.625H4.75Z" fill="#FF392C"/>
<path d="M52.25 60.0707V52.25C52.25 45.9139 48.093 40.5316 42.3635 38.6841C43.716 35.533 41.3821 32.0625 38 32.0625C34.6125 32.0625 32.2865 35.5389 33.6365 38.6841C27.907 40.5316 23.75 45.9139 23.75 52.25V60.0707C23.75 60.8365 23.4518 61.5564 22.9103 62.0978C21.9202 63.0879 21.375 64.4042 21.375 65.8044V67.6875C21.375 68.3433 21.9067 68.875 22.5625 68.875H32.1832C31.4293 72.5739 34.272 76 38 76C41.7299 76 44.5703 72.5715 43.8168 68.875H53.4375C54.0933 68.875 54.625 68.3433 54.625 67.6875V65.8043C54.625 64.4041 54.0798 63.0877 53.0897 62.0976C52.5482 61.5563 52.25 60.8365 52.25 60.0707ZM38 34.4375C39.912 34.4375 41.0226 36.5852 39.9704 38.1369C38.658 37.9546 37.3436 37.9543 36.0298 38.1369C34.9777 36.5857 36.0875 34.4375 38 34.4375ZM38 73.625C35.5598 73.625 33.82 71.2052 34.6419 68.875H41.3582C42.1794 71.2037 40.4416 73.625 38 73.625ZM52.25 66.5H23.75C23.75 65.6125 23.674 64.6928 24.5897 63.7772C25.5798 62.7871 26.125 61.4708 26.125 60.0706V52.25C26.125 45.7021 31.4521 40.375 38 40.375C44.5479 40.375 49.875 45.7021 49.875 52.25V60.0707C49.875 61.4709 50.4202 62.7873 51.4103 63.7774C52.3297 64.6965 52.25 65.6517 52.25 66.5Z" fill="#292929"/>
</svg>
