<svg width="76" height="76" viewBox="0 0 76 76" xmlns="http://www.w3.org/2000/svg">
    <path d="M46.8667 44.3333H45.4733C44.9493 44.3342 44.4804 44.0072 44.3004 43.515C44.1459 43.1097 43.9799 42.7132 43.8013 42.3205C43.5794 41.843 43.6807 41.2776 44.0547 40.9069L45.0477 39.9126C46.522 38.4254 46.5193 36.0269 45.0414 34.5432L41.4618 30.9636C39.9762 29.4867 37.5768 29.4867 36.0911 30.9636L35.0981 31.9554C34.7266 32.3279 34.1622 32.4291 33.6845 32.2087C33.2918 32.0301 32.8953 31.8642 32.4887 31.7021C31.9939 31.5233 31.6648 31.0527 31.6667 30.5266V29.1333C31.6667 27.0345 29.9654 25.3333 27.8667 25.3333H22.8C20.7013 25.3333 19 27.0345 19 29.1333V30.5266C19.0009 31.0507 18.674 31.5195 18.1817 31.6995C17.7764 31.8541 17.3799 32.02 16.9873 32.1986C16.5096 32.4195 15.945 32.3183 15.5737 31.9453L14.5793 30.9522C13.0939 29.4762 10.6954 29.4762 9.20993 30.9522L5.63033 34.5432C4.1534 36.0288 4.1534 38.4282 5.63033 39.9139L6.62213 40.9069C6.99612 41.2776 7.09745 41.843 6.87547 42.3205C6.69687 42.7132 6.53093 43.1097 6.37513 43.5163C6.19384 44.0114 5.72058 44.3386 5.19333 44.3333H3.8C1.70129 44.3333 0 46.0345 0 48.1333V53.1999C0 55.2986 1.70129 56.9999 3.8 56.9999H5.19333C5.71742 56.999 6.18624 57.3259 6.36627 57.8182C6.5208 58.2235 6.68673 58.62 6.86533 59.0127C7.08732 59.4902 6.98598 60.0556 6.612 60.4263L5.61893 61.4206C4.14295 62.9061 4.14295 65.3045 5.61893 66.79L9.19853 70.3696C10.6842 71.8465 13.0836 71.8465 14.5692 70.3696L15.5623 69.3778C15.9337 69.0052 16.4982 68.904 16.9759 69.1245C17.3685 69.3031 17.765 69.469 18.1716 69.6311C18.6689 69.8078 19.0009 70.2789 19 70.8066V72.1999C19 74.2986 20.7013 75.9999 22.8 75.9999H27.8667C29.9654 75.9999 31.6667 74.2986 31.6667 72.1999V70.8066C31.6657 70.2825 31.9927 69.8137 32.4849 69.6337C32.8903 69.4791 33.2867 69.3132 33.6794 69.1346C34.1571 68.9137 34.7217 69.0149 35.093 69.3879L36.0873 70.381C37.5749 71.8546 39.9727 71.8517 41.4567 70.3746L45.0363 66.7951C46.5133 65.3094 46.5133 62.91 45.0363 61.4244L44.0445 60.4313C43.6705 60.0607 43.5692 59.4953 43.7912 59.0177C43.9698 58.625 44.1357 58.2286 44.2979 57.822C44.4766 57.3272 44.9472 56.998 45.4733 56.9999H46.8667C48.9654 56.9999 50.6667 55.2986 50.6667 53.1999V48.1333C50.6667 46.0345 48.9654 44.3333 46.8667 44.3333ZM48.1333 53.1999C48.1333 53.8994 47.5662 54.4666 46.8667 54.4666H45.4733C43.8987 54.4724 42.4895 55.4457 41.9267 56.9163C41.7924 57.271 41.6472 57.6201 41.4909 57.9639C40.8397 59.4015 41.1418 61.0919 42.2509 62.2148L43.2415 63.2066C43.7364 63.7009 43.7369 64.503 43.2424 64.998C43.2421 64.9983 43.2418 64.9986 43.2415 64.9989L39.6619 68.5785C39.1672 69.073 38.3654 69.073 37.8708 68.5785L36.8777 67.5867C35.7553 66.4766 34.0643 66.1744 32.6268 66.8267C32.2835 66.9825 31.9339 67.1282 31.5818 67.2625C30.1123 67.8252 29.1397 69.2331 29.1333 70.8066V72.1999C29.1333 72.8994 28.5662 73.4666 27.8667 73.4666H22.8C22.1005 73.4666 21.5333 72.8994 21.5333 72.1999V70.8066C21.5275 69.232 20.5542 67.8228 19.0836 67.2599C18.7289 67.1256 18.3798 66.9805 18.0361 66.8242C16.5984 66.1733 14.9082 66.4755 13.7851 67.5842L12.7933 68.5747C12.299 69.0697 11.4969 69.0701 11.002 68.5757C11.0016 68.5753 11.0013 68.575 11.001 68.5747L7.4214 64.9989C6.92693 64.5043 6.92693 63.7025 7.4214 63.2079L8.4132 62.2148C9.52233 61.0919 9.82442 59.4015 9.1732 57.9639C9.0174 57.6206 8.87173 57.271 8.73747 56.9189C8.17602 55.4478 6.7678 54.4736 5.19333 54.4666H3.8C3.10048 54.4666 2.53333 53.8994 2.53333 53.1999V48.1333C2.53333 47.4337 3.10048 46.8666 3.8 46.8666H5.19333C6.76796 46.8607 8.17712 45.8875 8.74 44.4169C8.87427 44.0622 9.01946 43.7131 9.17573 43.3693C9.82696 41.9317 9.5247 40.2413 8.41573 39.1184L7.42013 38.1266C6.92518 37.6323 6.92471 36.8302 7.41918 36.3352C7.4195 36.3349 7.41982 36.3346 7.42013 36.3343L10.9997 32.7547C11.4944 32.2602 12.2962 32.2602 12.7908 32.7547L13.7839 33.7465C14.9063 34.8565 16.5973 35.1588 18.0348 34.5065C18.3781 34.3507 18.7277 34.205 19.0798 34.0707C20.5513 33.5097 21.5262 32.1014 21.5333 30.5266V29.1333C21.5333 28.4337 22.1005 27.8666 22.8 27.8666H27.8667C28.5662 27.8666 29.1333 28.4337 29.1333 29.1333V30.5266C29.1392 32.1012 30.1125 33.5104 31.5831 34.0733C31.9377 34.2075 32.2869 34.3527 32.6306 34.509C34.0681 35.1613 35.7591 34.8591 36.8815 33.749L37.8733 32.7585C38.3699 32.2673 39.1691 32.2673 39.6657 32.7585L43.2453 36.3381C43.7397 36.8327 43.7397 37.6345 43.2453 38.1291L42.2535 39.1222C41.1445 40.2451 40.8422 41.9355 41.4935 43.3731C41.6493 43.7164 41.7949 44.066 41.9292 44.4181C42.4919 45.8876 43.8998 46.8603 45.4733 46.8666H46.8667C47.5662 46.8666 48.1333 47.4337 48.1333 48.1333V53.1999Z" fill="#292929"/>
    <path d="M36.7078 50.1599C36.6951 49.8559 36.6736 49.5532 36.6368 49.2517C36.5963 48.9275 36.5482 48.6057 36.481 48.2903C36.4367 48.0839 36.3784 47.8799 36.3227 47.6747C36.2518 47.4138 36.172 47.1567 36.0833 46.9033C36.0212 46.7273 35.9566 46.5525 35.8908 46.3789C35.7277 45.9733 35.5411 45.5773 35.3321 45.1933C35.3157 45.1642 35.3056 45.1325 35.2891 45.1034C34.9596 44.5169 34.578 43.961 34.1491 43.4428C34.1124 43.3972 34.0706 43.3541 34.0326 43.3098C33.8578 43.1033 33.6779 42.9032 33.4891 42.7119C33.3904 42.6093 33.2865 42.5131 33.1826 42.4143C33.056 42.2965 32.9293 42.1799 32.8026 42.0685C32.6489 41.935 32.4923 41.8058 32.3327 41.6809L32.125 41.5263C30.1649 40.0583 27.7819 39.2653 25.3331 39.2666C25.2064 39.2666 25.0798 39.2856 24.9531 39.2907C24.6833 39.2983 24.4122 39.3135 24.1399 39.3413C23.9968 39.3565 23.8524 39.373 23.7092 39.3933C23.2963 39.4476 22.8865 39.5242 22.4818 39.6225C16.3827 41.1986 12.716 47.4208 14.292 53.5199C15.3307 57.5391 18.4708 60.6766 22.4907 61.7119C22.511 61.7119 22.5325 61.7183 22.554 61.7233C22.9915 61.8324 23.4347 61.9171 23.8815 61.9767C24.1766 62.0134 24.4718 62.021 24.7682 62.0349C24.9658 62.0451 25.1482 62.0742 25.3546 62.0742C25.7156 62.0742 26.0905 62.0501 26.4731 62.0121C26.5136 62.0121 26.5542 62.0007 26.5998 61.9957C26.9076 61.9615 27.2192 61.9159 27.5371 61.8525C27.6638 61.8285 27.7815 61.7968 27.9031 61.7689C28.1261 61.717 28.3477 61.6625 28.5758 61.5954C28.7531 61.5422 28.9254 61.4801 29.0989 61.4193C29.2724 61.3585 29.4523 61.2927 29.6321 61.2243C29.812 61.1559 29.9628 61.0773 30.1262 61.0013C30.339 60.9038 30.5505 60.8075 30.7595 60.6935H30.7671C31.9492 60.0607 33.0411 59.2722 34.0136 58.3489C34.2762 58.1038 34.5047 57.8242 34.6925 57.518C35.6811 55.9331 36.3306 54.1605 36.6001 52.312C36.6356 52.0675 36.6672 51.8231 36.6862 51.5735C36.704 51.3443 36.7166 51.1163 36.7217 50.8883C36.7217 50.8161 36.7318 50.7477 36.7318 50.6755C36.7331 50.4969 36.7154 50.3322 36.7078 50.1599ZM34.1833 50.9896C34.1833 51.0947 34.1744 51.1999 34.1681 51.3037C34.1453 51.6103 34.106 51.9168 34.0541 52.2246C33.5807 54.8582 31.9456 57.1382 29.603 58.4313C29.446 58.5136 29.2914 58.5909 29.1369 58.6618L29.0318 58.7125C28.2958 59.0466 27.519 59.2817 26.7214 59.4117C26.6656 59.4205 26.6086 59.4307 26.5516 59.4383C26.3933 59.4611 26.2375 59.4801 26.0829 59.494C25.879 59.5117 25.6738 59.5219 25.4648 59.5257C25.3762 59.5257 25.2888 59.5257 25.2001 59.5257C24.9004 59.5222 24.6011 59.5037 24.3033 59.4699L24.1513 59.4522C23.8029 59.4066 23.4575 59.3415 23.1164 59.2571C18.3724 58.0429 15.511 53.2128 16.7251 48.4688C17.5274 45.3341 19.9737 42.8853 23.1076 42.0799V42.0786C23.8352 41.8951 24.5826 41.8014 25.3331 41.7999C25.6952 41.802 26.057 41.8265 26.4161 41.8734C26.5124 41.8848 26.6073 41.9025 26.7023 41.9165C26.9759 41.9595 27.247 42.014 27.5143 42.0824C27.6017 42.1052 27.6891 42.1255 27.7752 42.1495C28.4488 42.344 29.0971 42.6169 29.7069 42.9627C29.8044 43.0197 29.8994 43.0793 29.9957 43.1388C30.1958 43.2655 30.3896 43.3921 30.5809 43.5365C30.6835 43.6113 30.7874 43.6847 30.8862 43.7645C31.1347 43.9631 31.3727 44.1745 31.5993 44.3979C31.6892 44.4891 31.7716 44.5891 31.859 44.6841C32.0046 44.8425 32.1465 45.0046 32.282 45.1756C32.3758 45.2934 32.4657 45.415 32.5544 45.5379C32.681 45.7203 32.8077 45.9103 32.9217 46.1028C32.985 46.2079 33.0484 46.3105 33.113 46.4182C33.2764 46.7189 33.4219 47.0289 33.5487 47.3467C33.5994 47.4733 33.6424 47.6 33.688 47.7267C33.7704 47.9597 33.8413 48.1953 33.9034 48.4335C33.935 48.5601 33.9705 48.6729 33.9971 48.7957C34.071 49.1381 34.1247 49.4845 34.1579 49.8331C34.1656 49.9256 34.1656 50.0193 34.1719 50.1118C34.1896 50.4031 34.1947 50.6957 34.1833 50.9896Z" fill="#292929"/>
    <path d="M72.1997 26.6H68.216C67.6848 26.6054 67.2097 26.2708 67.0355 25.7691C66.6427 24.5925 66.1673 23.4449 65.613 22.3351C65.3777 21.8559 65.4757 21.2797 65.8562 20.9051L68.6809 18.0766C70.1635 16.5929 70.1635 14.1884 68.6809 12.7047L63.295 7.32767C61.8113 5.84503 59.4068 5.84503 57.9231 7.32767L55.0997 10.1498C54.7255 10.5301 54.1502 10.6286 53.6709 10.3943C52.561 9.83709 51.413 9.35924 50.2357 8.9642C49.7319 8.79178 49.3949 8.31614 49.3997 7.78367V3.8C49.3997 1.70129 47.6984 0 45.5997 0H37.9997C35.901 0 34.1997 1.70129 34.1997 3.8V7.78367C34.2051 8.31488 33.8707 8.79003 33.3687 8.9642C32.192 9.35908 31.0444 9.83662 29.9348 10.393C29.4555 10.6291 28.879 10.5311 28.5047 10.1498L25.6763 7.32513C24.1908 5.84678 21.7898 5.84678 20.3043 7.32513L14.9286 12.7009C13.4452 14.1848 13.4452 16.5902 14.9286 18.0741L19.082 22.2351C19.5844 22.7218 20.3864 22.7091 20.8731 22.2066C21.3479 21.7164 21.349 20.938 20.8756 20.4465L16.7197 16.2868C16.2252 15.7922 16.2252 14.9904 16.7197 14.4957L22.0954 9.12C22.59 8.62553 23.3918 8.62553 23.8865 9.12L26.7162 11.9447C27.8611 13.0964 29.6155 13.3842 31.0685 12.6591C32.0718 12.1567 33.1092 11.7254 34.1731 11.3683C35.7086 10.8485 36.7397 9.40484 36.733 7.78367V3.8C36.733 3.10048 37.3002 2.53333 37.9997 2.53333H45.5997C46.2992 2.53333 46.8663 3.10048 46.8663 3.8V7.78367C46.8599 9.40453 47.8909 10.8477 49.4263 11.3671C50.4906 11.7243 51.5285 12.1559 52.5322 12.6591C53.9855 13.3804 55.7374 13.0923 56.8831 11.9434L59.7129 9.12C60.2075 8.62553 61.0093 8.62553 61.5039 9.12L66.8797 14.497C67.3734 14.9915 67.3734 15.7923 66.8797 16.2868L64.055 19.1165C62.9044 20.2621 62.6167 22.0156 63.3406 23.4688C63.843 24.4722 64.2743 25.5096 64.6314 26.5734C65.1508 28.1092 66.5947 29.1403 68.216 29.1333H72.1997C72.8992 29.1333 73.4664 29.7005 73.4664 30.4V38C73.4664 38.6995 72.8992 39.2667 72.1997 39.2667H68.216C66.5952 39.2602 65.152 40.2912 64.6326 41.8266C64.2756 42.8909 63.8438 43.9288 63.3406 44.9325C62.618 46.3857 62.9063 48.1382 64.0563 49.2835L66.8809 52.1132C67.3754 52.6078 67.3754 53.4096 66.8809 53.9043L61.5027 59.28C61.0082 59.7737 60.2074 59.7737 59.7129 59.28L55.5506 55.1266C55.0639 54.6241 54.2619 54.6114 53.7596 55.0981C53.257 55.5848 53.2443 56.3868 53.731 56.8892C53.7412 56.8996 53.7516 56.9101 53.7621 56.9202L57.9231 61.0736C59.4068 62.5562 61.8113 62.5562 63.295 61.0736L68.6707 55.6991C70.1542 54.2152 70.1542 51.8098 68.6707 50.3259L65.8499 47.5C65.4699 47.1257 65.3716 46.5505 65.6054 46.0712C66.1626 44.9613 66.6404 43.8134 67.0355 42.636C67.2079 42.1322 67.6835 41.7953 68.216 41.8H72.1997C74.2984 41.8 75.9997 40.0987 75.9997 38V30.4C75.9997 28.3013 74.2984 26.6 72.1997 26.6Z" fill="#FF392C"/>
    <path d="M53.4431 22.5569C47.0087 16.136 36.591 16.136 30.1567 22.5569C29.6707 23.0601 29.6847 23.862 30.1879 24.3479C30.6787 24.822 31.4569 24.822 31.9477 24.3479C37.3524 18.8702 46.1743 18.8112 51.652 24.2159C57.1297 29.6206 57.1888 38.4425 51.7841 43.9202C51.7404 43.9645 51.6963 44.0085 51.652 44.0522C51.1488 44.5383 51.1349 45.3401 51.621 45.8433C52.1071 46.3465 52.9089 46.3604 53.412 45.8743C53.4225 45.8642 53.4329 45.8537 53.4431 45.8433C59.864 39.4089 59.864 28.9912 53.4431 22.5569Z" fill="#FF392C"/>
</svg>
