<svg width="80" height="80" viewBox="0 0 78 78" fill="none" xmlns="http://www.w3.org/2000/svg">
    <path d="M39 39.1006C18.4448 39.1006 1.72137 55.8242 1.72137 76.3792C1.72137 77.2739 2.44754 78.0001 3.34223 78.0001C4.23692 78.0001 4.96309 77.2739 4.96309 76.3792C4.96309 57.6102 20.2311 42.3422 39.0001 42.3422C57.7692 42.3422 73.0372 57.6102 73.0372 76.3792C73.0372 77.2739 73.7634 78.0001 74.6581 78.0001C75.5528 78.0001 76.2789 77.2739 76.2789 76.3792C76.2788 55.8208 59.5552 39.1006 39 39.1006Z" fill="#F9392D"/>
    <path d="M38.9999 0C29.1712 0 21.171 7.99704 21.171 17.8289C21.171 27.6607 29.1714 35.6578 38.9999 35.6578C48.8284 35.6578 56.8288 27.6607 56.8288 17.8289C56.8288 7.99704 48.8285 0 38.9999 0ZM38.9999 32.4162C30.9574 32.4162 24.4126 25.8713 24.4126 17.8289C24.4126 9.78641 30.9574 3.24157 38.9999 3.24157C47.0423 3.24157 53.5872 9.78641 53.5872 17.8289C53.5872 25.8713 47.0423 32.4162 38.9999 32.4162Z" fill="#292929"/>
</svg>
