<svg width="42" height="42" viewBox="0 0 42 42" fill="none" xmlns="http://www.w3.org/2000/svg">
<g clip-path="url(#clip0)">
<path d="M6.12549 38.5H0.875488C0.392488 38.5 0.000488281 38.108 0.000488281 37.625V21.875C0.000488281 21.392 0.392488 21 0.875488 21C6.82724 21 9.97199 23.0055 10.1032 23.0912C10.4165 23.296 10.5652 23.6758 10.4725 24.0398L6.97249 37.8402C6.87624 38.2287 6.52624 38.5 6.12549 38.5ZM1.75049 36.75H5.44474L8.60874 24.2725C7.62524 23.8 5.30474 22.897 1.75049 22.7657V36.75Z" fill="#F9392D"/>
<path d="M22.7507 42C18.6277 42 10.6372 38.5262 6.24299 36.456C5.80549 36.2495 5.61824 35.728 5.82474 35.2922C6.02949 34.8547 6.55449 34.6657 6.98849 34.874C14.2422 38.29 19.9875 40.25 22.7507 40.25C27.0085 40.25 37.0395 35.2502 39.9252 33.7627C39.4702 33.1695 38.5305 32.375 36.7507 32.375C35.1355 32.375 33.088 33.0225 31.107 33.6472C29.0017 34.3122 26.823 35 24.9382 35C21.3262 35 16.5277 33.271 16.3265 33.1975C15.8715 33.033 15.637 32.5307 15.8032 32.0757C15.9677 31.6225 16.4682 31.3897 16.925 31.5525C16.9705 31.57 21.636 33.25 24.9382 33.25C26.5535 33.25 28.601 32.6025 30.582 31.9777C32.6872 31.3127 34.866 30.625 36.7507 30.625C40.8352 30.625 41.9115 33.7172 41.957 33.8485C42.0917 34.2527 41.915 34.6972 41.5387 34.8985C40.9945 35.1872 28.1582 42 22.7507 42Z" fill="#F9392D"/>
<path d="M28.8758 34.2825C28.3928 34.2825 28.0008 33.8905 28.0008 33.4075V32.5325C28.0008 31.311 27.1766 30.2645 25.9988 29.9898L9.10607 25.9105C8.63532 25.7985 8.34657 25.3243 8.46032 24.8553C8.57407 24.3863 9.04307 24.0923 9.51732 24.2095L26.4031 28.287C28.3718 28.7455 29.7508 30.492 29.7508 32.5325V33.4075C29.7508 33.8905 29.3588 34.2825 28.8758 34.2825Z" fill="#F9392D"/>
<path d="M30.6255 15.75C28.2122 15.75 26.2505 13.7865 26.2505 11.375C26.2505 8.96347 28.2122 6.99997 30.6255 6.99997C33.0387 6.99997 35.0005 8.96347 35.0005 11.375C35.0005 13.7865 33.0387 15.75 30.6255 15.75ZM30.6255 8.74997C29.1782 8.74997 28.0005 9.92772 28.0005 11.375C28.0005 12.8222 29.1782 14 30.6255 14C32.0727 14 33.2505 12.8222 33.2505 11.375C33.2505 9.92772 32.0727 8.74997 30.6255 8.74997Z" fill="#292929"/>
<path d="M32.0223 22.75H29.2293C28.3263 22.75 27.579 22.0728 27.4898 21.1733L27.2658 18.949C26.7355 18.7127 26.2298 18.4187 25.752 18.0688L23.7098 18.991C22.882 19.3638 21.923 19.0522 21.4733 18.2717L20.0785 15.855C19.6253 15.0745 19.837 14.0875 20.5703 13.559L22.3728 12.264C22.3395 11.9928 22.3133 11.69 22.3133 11.375C22.3133 11.06 22.3395 10.7572 22.3728 10.4878L20.5703 9.19275C19.837 8.66425 19.6253 7.6755 20.0785 6.895L21.4733 4.48C21.9248 3.696 22.889 3.388 23.708 3.759L25.752 4.683C26.2298 4.333 26.7355 4.039 27.2658 3.80275L27.4898 1.575C27.579 0.67725 28.328 0 29.2293 0H32.0223C32.9253 0 33.6725 0.67725 33.7618 1.57675L33.9858 3.801C34.516 4.03725 35.0235 4.333 35.4995 4.68125L37.5418 3.759C38.3713 3.388 39.3285 3.69775 39.7783 4.47825L41.173 6.895C41.6263 7.6755 41.4145 8.6625 40.6813 9.191L38.8788 10.486C38.912 10.7572 38.9383 11.06 38.9383 11.375C38.9383 11.69 38.912 11.9928 38.8788 12.2622L40.6813 13.5573C41.4145 14.0858 41.6263 15.0745 41.173 15.855L39.7783 18.27C39.325 19.0522 38.359 19.3585 37.5435 18.991L35.4995 18.067C35.0218 18.417 34.516 18.711 33.9858 18.9473L33.7618 21.175C33.6725 22.0728 32.9235 22.75 32.0223 22.75ZM25.8745 16.1787C26.0758 16.1787 26.2753 16.2488 26.4363 16.3835C27.0295 16.8805 27.6858 17.2603 28.384 17.5157C28.699 17.6313 28.9213 17.9165 28.9528 18.2507L29.2293 21H32.0223L32.297 18.2507C32.3303 17.9165 32.5525 17.6313 32.8658 17.5157C33.564 17.2603 34.2203 16.8787 34.8135 16.3835C35.0708 16.1683 35.4278 16.1192 35.7358 16.2575L38.261 17.3985L39.6575 14.9817L37.421 13.3752C37.1498 13.1792 37.0133 12.8433 37.071 12.5125C37.1375 12.1398 37.1883 11.7653 37.1883 11.375C37.1883 10.9847 37.1375 10.6103 37.0728 10.241C37.015 9.91025 37.1515 9.576 37.4228 9.37825L39.6593 7.77175L38.2645 5.355L35.7375 6.49425C35.4278 6.6325 35.0725 6.58175 34.8153 6.36825C34.2238 5.87125 33.5675 5.4915 32.8675 5.236C32.5525 5.1205 32.3303 4.83525 32.2988 4.501L32.0223 1.75H29.2293L28.9545 4.49925C28.9213 4.8335 28.699 5.11875 28.3858 5.23425C27.6875 5.48975 27.0313 5.87125 26.438 6.3665C26.1808 6.58175 25.8255 6.63075 25.5158 6.4925L22.9905 5.3515L21.5923 7.77L23.8288 9.3765C24.1 9.5725 24.2365 9.9085 24.1788 10.2393C24.114 10.6102 24.0633 10.9847 24.0633 11.375C24.0633 11.7653 24.114 12.1397 24.1788 12.509C24.2365 12.8397 24.1 13.174 23.8288 13.3717L21.5923 14.98L22.987 17.3967L25.514 16.2575C25.6313 16.2033 25.7538 16.1787 25.8745 16.1787Z" fill="#292929"/>
</g>
<defs>
<clipPath id="clip0">
<rect width="42" height="42" fill="white" transform="translate(0.000488281)"/>
</clipPath>
</defs>
</svg>
