<svg width="50" height="50" viewBox="0 0 50 50" fill="none" xmlns="http://www.w3.org/2000/svg">
<g clip-path="url(#clip0)">
<path d="M22.9166 47.8841C10.2815 47.8841 0.000488281 37.6034 0.000488281 24.9684C0.000488281 12.3333 10.2815 2.05228 22.9166 2.05228C27.3102 2.05228 31.5848 3.30422 35.2785 5.67498C36.0036 6.14189 36.2161 7.1085 35.7492 7.83556C35.2808 8.56262 34.3161 8.7728 33.589 8.30628C30.4015 6.25823 26.7102 5.17718 22.9166 5.17718C12.0042 5.17718 3.12539 14.056 3.12539 24.9684C3.12539 35.8803 12.0042 44.7592 22.9166 44.7592C33.8285 44.7592 42.7074 35.8803 42.7074 24.9684C42.7074 24.3161 42.6761 23.6703 42.6158 23.0351C42.5326 22.1746 43.1617 21.412 44.02 21.3289C44.8824 21.2495 45.6427 21.8747 45.7262 22.733C45.7968 23.4685 45.8323 24.2142 45.8323 24.9684C45.8323 37.6034 35.5516 47.8841 22.9166 47.8841Z" fill="#FF392C"/>
<path d="M25.5204 30.1764C25.1206 30.1764 24.7205 30.0242 24.4164 29.7182L15.0417 20.3435C14.4314 19.7328 14.4314 18.7433 15.0417 18.133C15.6521 17.5226 16.6416 17.5226 17.2519 18.133L25.5227 26.4037L47.3321 4.59389C47.9429 3.98356 48.9324 3.98356 49.5427 4.59389C50.153 5.20422 50.153 6.19372 49.5427 6.80405L26.6266 29.7201C26.3203 30.0242 25.9205 30.1764 25.5204 30.1764Z" fill="#292929"/>
</g>
<defs>
<clipPath id="clip0">
<rect width="50" height="50" fill="white" transform="translate(0.000488281)"/>
</clipPath>
</defs>
</svg>
