<svg width="63" height="43" viewBox="0 0 63 43" fill="none" xmlns="http://www.w3.org/2000/svg">
<path d="M35.8455 6.15477C27.6399 -2.05102 14.3573 -2.05216 6.15036 6.15477C-0.866875 13.172 -1.73451 23.6476 2.81051 31.5028C2.96318 31.7666 3.27683 31.9086 3.58533 31.8317C3.72137 31.7982 3.5841 31.8645 6.00819 30.4649C6.36357 31.1194 6.86244 31.6921 7.47374 32.1354C8.39352 32.8023 9.19799 33.6069 9.86502 34.5267C10.5686 35.497 11.5981 36.1848 12.7637 36.4636C13.8686 36.7278 14.9198 37.1632 15.8879 37.7577C16.9107 38.3858 18.1257 38.626 19.307 38.4378C20.4291 38.2591 21.5668 38.2591 22.6888 38.4378C23.8726 38.6263 25.0867 38.3848 26.1079 37.7577C27.0762 37.1632 28.1275 36.7278 29.2324 36.4636C30.3981 36.1847 31.4275 35.497 32.131 34.5267C32.7979 33.607 33.6024 32.8024 34.5223 32.1354C35.1335 31.6922 35.6324 31.1195 35.9877 30.465L37.6039 31.398C34.2504 36.7357 28.3969 40.3499 21.6979 40.5863V39.7507C21.6979 39.3642 21.3845 39.0508 20.998 39.0508C20.6114 39.0508 20.298 39.3642 20.298 39.7507V40.5863C14.6743 40.388 9.43885 37.8069 5.84616 33.4331C5.60075 33.1344 5.15971 33.0912 4.86111 33.3365C4.56233 33.5818 4.51911 34.0228 4.76452 34.3215C8.77279 39.2013 14.6897 42 20.998 42C32.6027 42 41.9956 32.6087 41.9956 21.0024C41.9956 15.3936 39.8114 10.1207 35.8455 6.15477ZM20.298 1.4184V3.676C19.966 3.6543 19.6345 3.61913 19.307 3.56699C18.1235 3.37836 16.9093 3.62 15.8878 4.24705C14.9197 4.84154 13.8684 5.27698 12.7635 5.5412C11.5978 5.81994 10.5685 6.50779 9.86493 7.47806C9.19799 8.39784 8.39343 9.20231 7.47365 9.86934C6.86236 10.3126 6.36357 10.8854 6.00819 11.5398L5.54755 11.2738C5.21264 11.0805 4.78464 11.1953 4.59146 11.53C4.3982 11.8648 4.5129 12.2928 4.84763 12.4861L5.51063 12.8689C5.24431 13.9367 4.81902 14.9537 4.24273 15.8922C3.6156 16.9135 3.37404 18.1278 3.56267 19.3114C3.74141 20.4334 3.74141 21.5712 3.56267 22.6932C3.37412 23.8768 3.6156 25.0911 4.24273 26.1124C4.81902 27.0509 5.24431 28.0679 5.51063 29.1358L3.68366 30.1906C2.18802 27.3753 1.40017 24.2139 1.40017 21.0024C1.40017 10.4305 9.8148 1.7884 20.298 1.4184ZM36.4853 29.1358C36.7517 28.0677 37.177 27.0507 37.7532 26.1124C38.3803 25.0911 38.622 23.8769 38.4334 22.6932C38.2546 21.5712 38.2546 20.4334 38.4334 19.3115C38.6219 18.1279 38.3803 16.9135 37.7532 15.8922C37.177 14.9539 36.7517 13.9369 36.4853 12.8689L37.1483 12.4862C37.483 12.2929 37.5978 11.8648 37.4046 11.5301C37.2113 11.1953 36.7832 11.0805 36.4484 11.2739L35.9877 11.5399C35.6323 10.8854 35.1334 10.3127 34.5222 9.86934C33.6023 9.20231 32.7979 8.39784 32.1309 7.47806C31.4272 6.50779 30.3978 5.81994 29.2323 5.54129C28.1274 5.27707 27.0761 4.84163 26.1079 4.24713C25.9111 4.12631 25.7042 4.01817 25.493 3.92569C25.139 3.77057 24.7261 3.93208 24.5712 4.28624C24.4162 4.64031 24.5776 5.05309 24.9317 5.20804C25.509 5.46053 26.6624 6.36615 28.9068 6.90272C29.7475 7.10378 30.4901 7.59993 30.9977 8.29985C31.7515 9.33932 32.6608 10.2487 33.7005 11.0026C34.4003 11.5101 34.8965 12.2527 35.0976 13.0935C35.3963 14.3426 35.8884 15.5307 36.5603 16.6248C37.0127 17.3615 37.187 18.2374 37.0509 19.0912C36.8488 20.3593 36.8488 21.6453 37.0509 22.9134C37.187 23.7672 37.0126 24.6431 36.5603 25.3798C35.8884 26.4739 35.3963 27.662 35.0976 28.911C34.8965 29.7519 34.4003 30.4945 33.7005 31.002C32.6608 31.7559 31.7516 32.6652 30.9977 33.7047C30.4902 34.4046 29.7476 34.9007 28.9068 35.1019C27.658 35.4005 26.4699 35.8926 25.3755 36.5646C24.6388 37.017 23.7628 37.1912 22.9091 37.0552C21.6409 36.8531 20.355 36.8531 19.0868 37.0552C18.2331 37.1912 17.3571 37.0169 16.6205 36.5646C15.5262 35.8927 14.338 35.4005 13.0892 35.1019C12.2484 34.9008 11.5058 34.4046 10.9983 33.7047C10.2444 32.6652 9.33509 31.7559 8.29553 31.002C7.59561 30.4944 7.09954 29.7519 6.8984 28.9111C6.59971 27.6622 6.10758 26.4741 5.43565 25.3799C4.98333 24.6431 4.80905 23.7672 4.9451 22.9134C5.14711 21.6453 5.14711 20.3593 4.9451 19.0912C4.80905 18.2373 4.98333 17.3615 5.43565 16.6248C6.10758 15.5305 6.59971 14.3424 6.8984 13.0935C7.09945 12.2527 7.59561 11.5101 8.29553 11.0026C9.33509 10.2487 10.2444 9.33941 10.9983 8.29985C11.5058 7.59993 12.2483 7.10386 13.0891 6.90272C14.338 6.60403 15.5262 6.1119 16.6204 5.43997C17.3572 4.98765 18.2331 4.81337 19.0868 4.94942C19.7171 5.04977 20.3601 5.10069 20.998 5.10069C21.3845 5.10069 21.6979 4.7873 21.6979 4.40077V1.4184C32.1811 1.7884 40.5958 10.4305 40.5958 21.0024C40.5958 24.3192 39.7664 27.4456 38.3058 30.1868L36.4853 29.1358Z" fill="#F9392D"/>
<path d="M60.0715 24.9312C56.1636 21.0232 49.8379 21.0227 45.9293 24.9312C42.5874 28.2731 42.1742 33.262 44.3388 37.0031C44.4115 37.1287 44.5608 37.1964 44.7078 37.1597C44.7725 37.1438 44.7072 37.1753 45.8616 36.5088C46.0309 36.8205 46.2685 37.0932 46.5596 37.3044C46.9976 37.622 47.3808 38.0051 47.6984 38.4432C48.0335 38.9053 48.5238 39.2329 49.0789 39.3656C49.6051 39.4914 50.1057 39.6988 50.5668 39.9819C51.0539 40.2811 51.6325 40.3955 52.1952 40.3058C52.7295 40.2207 53.2714 40.2207 53.8057 40.3058C54.3695 40.3956 54.9477 40.2806 55.434 39.9819C55.8952 39.6988 56.3958 39.4914 56.922 39.3656C57.4772 39.2328 57.9675 38.9053 58.3025 38.4432C58.6201 38.0052 59.0033 37.622 59.4413 37.3044C59.7324 37.0933 59.97 36.8205 60.1393 36.5088L60.9089 36.9532C59.3118 39.4952 56.5242 41.2165 53.3338 41.3291V40.9311C53.3338 40.747 53.1845 40.5978 53.0005 40.5978C52.8164 40.5978 52.6671 40.747 52.6671 40.9311V41.3291C49.9888 41.2346 47.4955 40.0054 45.7845 37.9224C45.6676 37.7801 45.4575 37.7595 45.3153 37.8764C45.173 37.9932 45.1525 38.2032 45.2693 38.3455C47.1783 40.6695 49.9961 42.0023 53.0005 42.0023C58.5271 42.0023 63.0005 37.5298 63.0005 32.0023C63.0005 29.3312 61.9603 26.8199 60.0715 24.9312ZM52.6671 22.6755V23.7507C52.509 23.7403 52.3511 23.7236 52.1952 23.6988C51.6315 23.6089 51.0532 23.724 50.5668 24.0226C50.1057 24.3058 49.605 24.5131 49.0788 24.639C48.5237 24.7717 48.0335 25.0993 47.6984 25.5614C47.3808 25.9994 46.9976 26.3826 46.5596 26.7002C46.2684 26.9113 46.0309 27.1841 45.8616 27.4958L45.6423 27.3691C45.4828 27.277 45.2789 27.3317 45.1869 27.4911C45.0949 27.6506 45.1495 27.8544 45.3089 27.9464L45.6247 28.1287C45.4978 28.6373 45.2953 29.1216 45.0208 29.5686C44.7222 30.055 44.6071 30.6333 44.697 31.197C44.7821 31.7313 44.7821 32.2732 44.697 32.8075C44.6072 33.3712 44.7222 33.9495 45.0208 34.4359C45.2953 34.8829 45.4978 35.3672 45.6247 35.8758L44.7546 36.3781C44.0423 35.0374 43.6671 33.5318 43.6671 32.0023C43.6671 26.9675 47.6745 22.8517 52.6671 22.6755ZM60.3762 35.8758C60.5031 35.3671 60.7056 34.8828 60.9801 34.4359C61.2787 33.9496 61.3938 33.3713 61.304 32.8075C61.2189 32.2732 61.2189 31.7313 61.304 31.197C61.3938 30.6333 61.2787 30.055 60.9801 29.5686C60.7056 29.1217 60.5031 28.6374 60.3762 28.1288L60.692 27.9465C60.8514 27.8544 60.9061 27.6506 60.814 27.4912C60.722 27.3317 60.5181 27.277 60.3586 27.3692L60.1392 27.4958C59.97 27.1841 59.7324 26.9114 59.4413 26.7002C59.0032 26.3826 58.6201 25.9994 58.3025 25.5614C57.9673 25.0993 57.4771 24.7717 56.922 24.639C56.3958 24.5132 55.8951 24.3058 55.434 24.0227C55.3403 23.9651 55.2418 23.9136 55.1412 23.8696C54.9726 23.7957 54.776 23.8726 54.7022 24.0413C54.6284 24.2099 54.7052 24.4065 54.8739 24.4803C55.1488 24.6006 55.6981 25.0319 56.767 25.2874C57.1674 25.3831 57.5211 25.6194 57.7628 25.9528C58.1218 26.4478 58.5548 26.8809 59.05 27.2399C59.3833 27.4817 59.6196 27.8353 59.7154 28.2357C59.8576 28.8306 60.092 29.3964 60.4119 29.9175C60.6274 30.2683 60.7104 30.6855 60.6456 31.0921C60.5494 31.696 60.5494 32.3085 60.6456 32.9124C60.7104 33.319 60.6274 33.7362 60.4119 34.087C60.092 34.6081 59.8576 35.1739 59.7154 35.7688C59.6196 36.1692 59.3833 36.5229 59.05 36.7646C58.5548 37.1236 58.1218 37.5567 57.7628 38.0517C57.5211 38.385 57.1674 38.6213 56.767 38.7171C56.1723 38.8593 55.6064 39.0937 55.0852 39.4137C54.7344 39.6292 54.3172 39.7122 53.9106 39.6474C53.3067 39.5512 52.6942 39.5512 52.0903 39.6474C51.6837 39.7122 51.2665 39.6292 50.9157 39.4137C50.3945 39.0937 49.8287 38.8594 49.2339 38.7171C48.8335 38.6214 48.4798 38.3851 48.2381 38.0517C47.8791 37.5566 47.4461 37.1236 46.951 36.7646C46.6176 36.5229 46.3814 36.1692 46.2856 35.7688C46.1433 35.174 45.909 34.6082 45.589 34.0871C45.3735 33.7362 45.2905 33.319 45.3553 32.9124C45.4515 32.3085 45.4515 31.696 45.3553 31.0921C45.2905 30.6855 45.3735 30.2683 45.589 29.9175C45.909 29.3963 46.1433 28.8305 46.2856 28.2357C46.3813 27.8353 46.6176 27.4817 46.951 27.2399C47.4461 26.8809 47.8791 26.4479 48.2381 25.9528C48.4798 25.6194 48.8335 25.3832 49.2339 25.2874C49.8287 25.1451 50.3945 24.9108 50.9156 24.5908C51.2665 24.3753 51.6837 24.2923 52.0903 24.3571C52.3904 24.4049 52.6967 24.4292 53.0005 24.4292C53.1845 24.4292 53.3338 24.2799 53.3338 24.0958V22.6755C58.3264 22.8517 62.3338 26.9675 62.3338 32.0023C62.3338 33.5819 61.9388 35.0708 61.2432 36.3764L60.3762 35.8758Z" fill="#292929"/>
</svg>
