<svg width="80" height="80" viewBox="0 0 79 79" fill="none" xmlns="http://www.w3.org/2000/svg">
    <path d="M75.3584 75.9142H71.9742V26.7762C71.9742 24.4891 70.1134 22.6284 67.8264 22.6284H60.2621C57.975 22.6284 56.1143 24.4892 56.1143 26.7762V75.9142H47.5212V49.0396C47.5212 46.7524 45.6606 44.8918 43.3734 44.8918H35.8092C33.522 44.8918 31.6614 46.7526 31.6614 49.0396V75.9142H23.0683V61.996C23.0683 59.7089 21.2074 57.8482 18.9205 57.8482H11.356C9.0689 57.8482 7.20824 59.709 7.20824 61.996V75.9142H3.64151C2.78933 75.9142 2.09854 76.605 2.09854 77.4572C2.09854 78.3094 2.78933 79.0002 3.64151 79.0002H75.3584C76.2106 79.0002 76.9014 78.3094 76.9014 77.4572C76.9014 76.605 76.2106 75.9142 75.3584 75.9142ZM19.982 75.9142H10.294V61.996C10.294 61.4105 10.7703 60.9342 11.3559 60.9342H18.9201C19.5057 60.9342 19.982 61.4105 19.982 61.996V75.9142ZM44.4351 75.9142H34.7471V49.0396C34.7471 48.454 35.2235 47.9777 35.809 47.9777H43.3733C43.9587 47.9777 44.4351 48.454 44.4351 49.0396V75.9142ZM68.8883 75.9142H59.2003V26.7762C59.2003 26.1907 59.6766 25.7144 60.2621 25.7144H67.8264C68.4119 25.7144 68.8883 26.1907 68.8883 26.7762V75.9142Z" fill="#F9392D"/>
    <path d="M71.9706 1.62259C71.9922 1.20151 71.8441 0.773336 71.5225 0.451781C71.201 0.130227 70.7728 -0.0180527 70.3517 0.00370313C70.3269 0.00262305 70.3023 0 70.277 0H60.9421C60.0899 0 59.3991 0.690787 59.3991 1.54297C59.3991 2.39515 60.0899 3.08594 60.9421 3.08594H66.7061L51.4528 18.3394L45.7006 12.5872C45.4113 12.2979 45.0188 12.1353 44.6096 12.1353C44.2004 12.1353 43.8079 12.2979 43.5186 12.5872L15.7808 40.3252C15.1782 40.9277 15.1782 41.9047 15.7808 42.5074C16.0821 42.8084 16.4769 42.959 16.8718 42.959C17.2666 42.959 17.6616 42.8084 17.9628 42.5071L44.6096 15.8602L50.3618 21.6124C50.9643 22.2149 51.9413 22.2149 52.544 21.6124L68.8884 5.26816V10.4849C68.8884 11.3371 69.5791 12.0279 70.4313 12.0279C71.2835 12.0279 71.9743 11.3371 71.9743 10.4849V1.69727C71.9743 1.67212 71.9717 1.64758 71.9706 1.62259Z" fill="#292929"/>
    <path d="M11.6709 48.3428C12.5231 48.3428 13.2139 47.652 13.2139 46.7998C13.2139 45.9476 12.5231 45.2568 11.6709 45.2568C10.8187 45.2568 10.1279 45.9476 10.1279 46.7998C10.1279 47.652 10.8187 48.3428 11.6709 48.3428Z" fill="#292929"/>
</svg>
