<svg width="76" height="76" viewBox="0 0 76 76" fill="none" xmlns="http://www.w3.org/2000/svg">
<g clip-path="url(#clip0)">
<path d="M34.8963 69.6667H1.58293C1.09526 69.6667 0.636096 69.4418 0.335262 69.0587C0.0344288 68.6723 -0.0732379 68.1752 0.0439288 67.7002L1.75393 60.8285C2.61526 57.4117 5.11376 54.72 8.43243 53.6275L21.1561 49.3873C23.0434 48.5988 24.2214 45.7552 24.3418 41.5625C22.8851 40.2388 19.7596 37.0088 19.7596 33.6965C19.7596 32.5343 19.3701 32.2968 19.3669 32.2937C18.8856 32.1638 18.6323 31.8662 18.4454 31.4007C18.2871 31.0017 16.9096 27.4677 16.9096 25.08C16.9096 24.9533 16.9254 24.8267 16.9571 24.7032C17.1566 23.883 17.6379 23.0597 18.3631 22.5593C18.3821 22.1793 18.4043 21.7582 18.4296 21.2895C18.5088 19.7252 18.6196 17.6383 18.6196 15.0417C18.6196 9.101 25.8839 0 34.8329 0C42.9301 0 46.8504 4.313 47.4996 7.09967C49.4788 8.19533 51.2046 10.0035 51.2046 15.0417V22.5688C51.9899 23.1103 52.4744 23.978 52.6771 24.5765C52.7309 24.738 52.7563 24.909 52.7563 25.08C52.7563 25.954 52.0469 26.7267 51.1729 26.7267C50.3781 26.7267 49.7226 26.1947 49.6086 25.4442C49.5484 25.3333 49.4724 25.2225 49.4218 25.1845C48.5509 25.1845 48.0348 24.529 48.0348 23.655V15.0417C48.0348 10.9092 46.7079 10.241 45.9163 9.84517C45.4381 9.60133 44.4279 9.09467 44.4279 7.885C44.3709 6.93183 41.7046 3.16667 34.8329 3.16667C27.2963 3.16667 21.7863 10.9757 21.7863 15.0417C21.7863 17.708 21.6754 19.8487 21.5868 21.4542C21.5424 22.3693 21.5013 23.1072 21.5013 23.655C21.5013 24.4752 20.8774 25.1497 20.0794 25.232C20.1301 26.5303 20.7793 28.5665 21.1941 29.7033C22.0428 30.305 22.9263 31.5337 22.9263 33.6933C22.9263 35.4793 25.0099 38.0222 26.9479 39.6308C27.3089 39.9317 27.5179 40.3782 27.5179 40.85C27.5179 46.8603 25.6528 50.9453 22.2644 52.3513L9.42993 56.6358C7.13726 57.3927 5.41776 59.2483 4.8256 61.6012L3.6096 66.5H34.8963C35.7703 66.5 36.4796 67.2093 36.4796 68.0833C36.4796 68.9573 35.7703 69.6667 34.8963 69.6667Z" fill="#FF392C"/>
<path d="M57 75.9999C56.791 75.9999 56.582 75.9587 56.3857 75.8732C55.632 75.5597 38 67.9376 38 52.3639V39.1304C38 38.4527 38.4338 37.8479 39.0767 37.6294L56.4933 31.7489C56.8227 31.6381 57.1805 31.6381 57.5067 31.7489L74.9233 37.6294C75.5662 37.8447 76 38.4496 76 39.1304V52.3639C76 67.9376 58.368 75.5597 57.6143 75.8764C57.418 75.9587 57.209 75.9999 57 75.9999ZM41.1667 40.2672V52.3639C41.1667 64.3497 54.0075 71.2309 57 72.6749C59.9893 71.2277 72.8333 64.3212 72.8333 52.3639V40.2672L57 34.9219L41.1667 40.2672Z" fill="#292929"/>
<path d="M55.4171 60.1666C55.3886 60.1666 55.3569 60.1666 55.3316 60.1634C54.8788 60.1381 54.4639 59.9227 54.1821 59.5712L47.8488 51.6546C47.3041 50.9706 47.4118 49.9762 48.0958 49.4284C48.7829 48.8837 49.7773 48.9977 50.3219 49.6754L55.5469 56.2114L65.3794 46.3789C65.9969 45.7614 67.0008 45.7614 67.6183 46.3789C68.2358 46.9964 68.2358 48.0002 67.6183 48.6177L56.5349 59.7011C56.2404 60.0019 55.8351 60.1666 55.4171 60.1666Z" fill="#292929"/>
</g>
<defs>
<clipPath id="clip0">
<rect width="76" height="76" fill="white"/>
</clipPath>
</defs>
</svg>
