<svg width="78" height="78" viewBox="0 0 78 78" fill="none" xmlns="http://www.w3.org/2000/svg">
<path d="M18.929 48.0188C19.9765 47.2364 21.5846 43.1109 28.0001 42.5564C29.9338 42.4035 31.8789 42.6152 33.7344 43.1804L35.8221 43.7928C38.0067 44.4327 40.2714 44.7575 42.5478 44.7574H51.4836C52.1 44.7588 52.7039 44.931 53.2283 45.2549C53.7528 45.5788 54.1771 46.0418 54.4543 46.5923L65.8783 37.5894C66.3427 37.2233 66.8909 36.9785 67.4735 36.877C68.056 36.7755 68.6547 36.8204 69.2156 37.0078C69.7765 37.1951 70.282 37.519 70.6866 37.9503C71.0911 38.3816 71.3821 38.9067 71.5333 39.4784C71.726 38.7549 71.686 37.989 71.4191 37.2894C71.1522 36.5899 70.6718 35.9921 70.0461 35.5808C69.4204 35.1695 68.6811 34.9656 67.9331 34.998C67.185 35.0304 66.4661 35.2974 65.8783 35.7612L54.4543 44.7617C54.1771 44.2112 53.7528 43.7483 53.2283 43.4244C52.7039 43.1005 52.1 42.9283 51.4836 42.9269H42.5478C40.2714 42.9269 38.0067 42.6021 35.8221 41.9622L33.7344 41.3498C31.8789 40.7846 29.9338 40.5729 28.0001 40.7258C21.5846 41.2804 19.9765 45.4058 18.929 46.1883C18.642 46.4028 15.0247 48.7476 14.3221 49.2034L15.1515 50.4935C16.4647 49.641 18.7078 48.1834 18.929 48.0188Z" fill="white"/>
<path d="M10.4466 48.2675L5.16673 51.6648C3.88973 52.4865 3.52062 54.1878 4.3423 55.4648L12.772 68.5657C13.5937 69.8427 15.295 70.2118 16.572 69.3902L21.8518 65.9929C23.1288 65.1712 23.4979 63.4699 22.6763 62.1929L14.2465 49.092C13.4249 47.815 11.7236 47.4459 10.4466 48.2675Z" fill="#91BA83"/>
<path d="M15.4089 65.4609C16.2503 65.4609 16.9324 64.7789 16.9324 63.9375C16.9324 63.0961 16.2503 62.4141 15.4089 62.4141C14.5676 62.4141 13.8855 63.0961 13.8855 63.9375C13.8855 64.7789 14.5676 65.4609 15.4089 65.4609Z" fill="white"/>
<path d="M30.458 25.5528H32.3008C32.6442 26.9807 33.2108 28.3454 33.9796 29.5966L32.6737 30.9019C32.3791 31.1975 32.2136 31.5979 32.2136 32.0152C32.2136 32.4326 32.3791 32.833 32.6737 33.1286L35.124 35.5789C35.4237 35.8654 35.8224 36.0254 36.2371 36.0254C36.6517 36.0254 37.0504 35.8654 37.3501 35.5789L38.6554 34.2736C39.9068 35.0431 41.272 35.6099 42.7004 35.953V37.7958C42.7007 38.2132 42.8666 38.6134 43.1617 38.9086C43.4568 39.2039 43.857 39.3699 44.2744 39.3704H47.7399C48.1574 39.3699 48.5576 39.2039 48.8528 38.9087C49.148 38.6135 49.3141 38.2132 49.3146 37.7958V35.953C50.7425 35.6101 52.1072 35.0437 53.3584 34.2748L54.6612 35.5789C54.9569 35.8734 55.3572 36.0387 55.7745 36.0387C56.1919 36.0387 56.5922 35.8734 56.8879 35.5789L59.3382 33.1286C59.6329 32.8331 59.7985 32.4327 59.7985 32.0152C59.7985 31.5978 59.6329 31.1975 59.3382 30.9019L58.0323 29.5966C58.8016 28.3457 59.3682 26.9809 59.7111 25.5528H61.5545C61.9718 25.552 62.3717 25.3859 62.6668 25.0907C62.9618 24.7956 63.1278 24.3955 63.1285 23.9782V20.5127C63.1278 20.0954 62.9618 19.6954 62.6667 19.4004C62.3717 19.1054 61.9717 18.9393 61.5545 18.9387H59.7135C59.3708 17.5104 58.8041 16.1454 58.0347 14.8943L59.3406 13.589C59.6354 13.2934 59.8009 12.8931 59.8009 12.4756C59.8009 12.0582 59.6354 11.6578 59.3406 11.3623L56.8903 8.91202C56.5946 8.61752 56.1943 8.45218 55.777 8.45218C55.3596 8.45218 54.9593 8.61752 54.6636 8.91202L53.3584 10.2167C52.1072 9.44799 50.7424 8.88181 49.3146 8.53908V6.69694C49.3141 6.27947 49.148 5.87924 48.8528 5.58405C48.5576 5.28885 48.1574 5.1228 47.7399 5.12231H44.2744C43.857 5.1228 43.4568 5.28887 43.1617 5.58408C42.8666 5.8793 42.7007 6.27953 42.7004 6.69694V8.53969C41.2723 8.88231 39.9073 9.4485 38.656 10.2173L37.3507 8.91263C37.0509 8.62622 36.6523 8.46639 36.2377 8.46639C35.8231 8.46639 35.4244 8.62622 35.1246 8.91263L32.6737 11.3623C32.3791 11.6579 32.2136 12.0583 32.2136 12.4756C32.2136 12.893 32.3791 13.2934 32.6737 13.589L33.979 14.8943C33.2101 16.1456 32.6435 17.5106 32.3002 18.9387H30.458C30.0408 18.9393 29.6409 19.1054 29.346 19.4004C29.051 19.6955 28.8851 20.0955 28.8846 20.5127V23.9782C28.8851 24.3955 29.051 24.7955 29.3459 25.0907C29.6409 25.3858 30.0408 25.552 30.458 25.5528V25.5528ZM30.1034 20.5127C30.1036 20.4185 30.141 20.3282 30.2076 20.2617C30.2742 20.1951 30.3645 20.1576 30.4587 20.1574H32.7907C32.9312 20.1575 33.0674 20.1089 33.1762 20.0201C33.285 19.9313 33.3598 19.8076 33.3879 19.6699C33.7154 18.055 34.3528 16.5189 35.2648 15.1465C35.3424 15.0294 35.3772 14.8891 35.3632 14.7492C35.3492 14.6094 35.2873 14.4788 35.188 14.3793L33.5366 12.7279C33.4702 12.661 33.4328 12.5706 33.4328 12.4763C33.4328 12.382 33.4702 12.2915 33.5366 12.2246L35.9869 9.77489C36.0548 9.71061 36.1448 9.67478 36.2383 9.67478C36.3318 9.67478 36.4217 9.71061 36.4896 9.77489L38.141 11.4257C38.2404 11.5251 38.371 11.5871 38.5109 11.6012C38.6507 11.6153 38.7911 11.5806 38.9083 11.5031C40.2806 10.591 41.8167 9.95366 43.4316 9.6262C43.5693 9.59811 43.693 9.52332 43.7818 9.4145C43.8707 9.30567 43.9192 9.1695 43.9191 9.02902V6.69694C43.9191 6.60266 43.9566 6.51224 44.0232 6.44551C44.0898 6.37879 44.1801 6.34123 44.2744 6.34106H47.7399C47.8343 6.34123 47.9247 6.37877 47.9914 6.44548C48.0581 6.51218 48.0956 6.6026 48.0958 6.69694V9.02841C48.0958 9.16889 48.1443 9.30506 48.2331 9.41389C48.3219 9.52271 48.4457 9.5975 48.5833 9.6256C50.1983 9.95284 51.7344 10.5902 53.1067 11.5025C53.2239 11.58 53.3643 11.6147 53.5041 11.6006C53.6439 11.5865 53.7745 11.5245 53.8739 11.4251L55.5247 9.77428C55.5577 9.74123 55.597 9.71501 55.6402 9.69712C55.6833 9.67923 55.7296 9.67002 55.7764 9.67002C55.8231 9.67002 55.8694 9.67923 55.9126 9.69712C55.9557 9.71501 55.995 9.74123 56.028 9.77428L58.4783 12.224C58.5448 12.2909 58.5821 12.3813 58.5821 12.4756C58.5821 12.5699 58.5448 12.6604 58.4783 12.7273L56.8269 14.3787C56.7275 14.4781 56.6656 14.6087 56.6514 14.7485C56.6373 14.8883 56.672 15.0287 56.7495 15.1459C57.6621 16.518 58.2995 18.0542 58.6264 19.6693C58.6545 19.807 58.7293 19.9307 58.8381 20.0195C58.9469 20.1083 59.0831 20.1568 59.2236 20.1568H61.5563C61.6505 20.157 61.7407 20.1945 61.8073 20.261C61.8739 20.3276 61.9114 20.4179 61.9115 20.5121V23.9776C61.9115 24.0719 61.8741 24.1623 61.8075 24.229C61.7409 24.2957 61.6506 24.3333 61.5563 24.3335H59.2242C59.0837 24.3334 58.9476 24.3819 58.8387 24.4708C58.7299 24.5596 58.6551 24.6833 58.627 24.821C58.2999 26.436 57.6625 27.9722 56.7501 29.3444C56.6726 29.4616 56.638 29.6019 56.6521 29.7418C56.6662 29.8816 56.7282 30.0122 56.8275 30.1116L58.4789 31.7624C58.5454 31.8293 58.5827 31.9197 58.5827 32.014C58.5827 32.1083 58.5454 32.1988 58.4789 32.2657L56.0286 34.7154C55.9956 34.7484 55.9564 34.7747 55.9132 34.7926C55.87 34.8104 55.8237 34.8197 55.777 34.8197C55.7302 34.8197 55.6839 34.8104 55.6408 34.7926C55.5976 34.7747 55.5583 34.7484 55.5253 34.7154L53.8745 33.064C53.7752 32.9646 53.6445 32.9026 53.5047 32.8885C53.3649 32.8744 53.2245 32.9091 53.1073 32.9866C51.735 33.8989 50.1989 34.5365 48.5839 34.8641C48.4463 34.8922 48.3226 34.967 48.2337 35.0758C48.1449 35.1846 48.0964 35.3208 48.0964 35.4613V37.7927C48.0962 37.8871 48.0587 37.9775 47.992 38.0442C47.9253 38.1109 47.8349 38.1484 47.7405 38.1486H44.2744C44.1801 38.1484 44.0898 38.1109 44.0232 38.0442C43.9566 37.9774 43.9191 37.887 43.9191 37.7927V35.4655C43.9192 35.3251 43.8707 35.1889 43.7818 35.0801C43.693 34.9712 43.5693 34.8964 43.4316 34.8683C41.8167 34.541 40.2805 33.9036 38.9083 32.9915C38.7911 32.9139 38.6508 32.8791 38.511 32.8931C38.3712 32.9071 38.2405 32.969 38.141 33.0683L36.489 34.7197C36.4212 34.7838 36.3313 34.8195 36.238 34.8195C36.1446 34.8195 36.0548 34.7838 35.9869 34.7197L33.5366 32.2694C33.4702 32.2025 33.4328 32.112 33.4328 32.0177C33.4328 31.9234 33.4702 31.8329 33.5366 31.766L35.188 30.1152C35.2873 30.0158 35.3492 29.8851 35.3632 29.7453C35.3772 29.6055 35.3424 29.4651 35.2648 29.348C34.3528 27.9754 33.7155 26.4391 33.3879 24.824C33.3598 24.6864 33.285 24.5627 33.1762 24.4738C33.0674 24.385 32.9312 24.3365 32.7907 24.3365H30.458C30.3638 24.3364 30.2734 24.2988 30.2068 24.2321C30.1402 24.1653 30.1028 24.0749 30.1028 23.9806L30.1034 20.5127Z" fill="#2A1E17"/>
<path d="M46.0079 30.7503C47.6899 30.7502 49.3341 30.2513 50.7326 29.3168C52.131 28.3822 53.221 27.054 53.8646 25.5C54.5081 23.946 54.6765 22.236 54.3483 20.5864C54.02 18.9367 53.21 17.4214 52.0206 16.2321C50.8312 15.0428 49.3159 14.2329 47.6662 13.9048C46.0165 13.5767 44.3066 13.7452 42.7527 14.3889C41.1987 15.0326 39.8705 16.1226 38.9361 17.5211C38.0016 18.9197 37.5029 20.5639 37.5029 22.2459C37.5054 24.5007 38.4024 26.6625 39.9968 28.2568C41.5913 29.8512 43.7531 30.7479 46.0079 30.7503ZM46.0079 14.9602C47.4489 14.9603 48.8574 15.3877 50.0555 16.1884C51.2535 16.989 52.1872 18.1269 52.7386 19.4582C53.2899 20.7895 53.4341 22.2544 53.1529 23.6676C52.8717 25.0809 52.1778 26.379 51.1588 27.3979C50.1399 28.4167 48.8417 29.1106 47.4284 29.3916C46.0152 29.6727 44.5503 29.5284 43.2191 28.9769C41.8878 28.4255 40.75 27.4917 39.9494 26.2935C39.1489 25.0954 38.7216 23.6868 38.7216 22.2459C38.7237 20.3141 39.4921 18.4621 40.8581 17.0962C42.2241 15.7303 44.0762 14.9621 46.0079 14.9602V14.9602Z" fill="#2A1E17"/>
<path d="M71.1141 35.6837C70.3992 34.9255 69.4257 34.4632 68.3863 34.3884C67.3469 34.3136 66.3173 34.6317 65.5011 35.2797L54.6073 43.8652C54.2412 43.3839 53.7687 42.9937 53.2269 42.7252C52.685 42.4567 52.0884 42.3171 51.4837 42.3173H42.5478C40.3293 42.3173 38.1222 42.0005 35.9934 41.3765L33.9069 40.7671C31.9788 40.1788 29.9572 39.9592 27.9478 40.1199C22.6316 40.58 20.4214 43.4106 19.2337 44.9291C19.036 45.2079 18.8119 45.4671 18.5646 45.703C18.4031 45.8249 16.8127 46.8645 14.4641 48.3873C13.9396 47.7732 13.2097 47.3706 12.4105 47.2545C11.6112 47.1384 10.797 47.3166 10.1193 47.756L4.83967 51.1502C4.0915 51.6328 3.56524 52.3924 3.37629 53.2624C3.18735 54.1324 3.35115 55.0418 3.83176 55.7912L12.2558 68.8928C12.494 69.2644 12.8031 69.5853 13.1656 69.8372C13.528 70.0891 13.9366 70.2669 14.3679 70.3606C14.7992 70.4543 15.2447 70.462 15.679 70.3832C16.1133 70.3043 16.5277 70.1406 16.8986 69.9013L22.1813 66.5071C22.9294 66.0247 23.4556 65.2652 23.6447 64.3954C23.8337 63.5255 23.6702 62.6162 23.1898 61.8667L22.6761 61.0678C25.3317 59.4359 27.3738 58.2507 27.7211 58.1428C29.13 57.7443 32.1854 58.4091 35.4187 59.1142C38.5576 59.7985 41.8031 60.506 44.4984 60.506C48.009 60.506 50.8591 58.7193 52.6317 57.2202C52.9791 56.9259 54.1357 55.9405 55.7097 54.5999L55.9291 54.4128C55.99 54.3608 56.0401 54.2973 56.0765 54.2259C56.1129 54.1546 56.1349 54.0767 56.1412 53.9968C56.1475 53.917 56.138 53.8366 56.1133 53.7604C56.0885 53.6842 56.049 53.6136 55.997 53.5527C55.945 53.4918 55.8815 53.4417 55.8101 53.4053C55.7387 53.3689 55.6609 53.3469 55.581 53.3406C55.5011 53.3343 55.4208 53.3438 55.3446 53.3685C55.2684 53.3932 55.1978 53.4327 55.1369 53.4848L54.9175 53.6718C53.3447 55.0125 52.1893 55.9966 51.8426 56.2921C50.2259 57.6602 47.6379 59.2897 44.4966 59.2897C41.9317 59.2897 38.7514 58.5968 35.6759 57.9259C32.1415 57.1556 29.0904 56.489 27.3884 56.9728C26.8003 57.1392 23.9649 58.8479 22.0167 60.0465L15.1625 49.3843C16.6171 48.441 19.0412 46.8651 19.294 46.6768C19.6339 46.3819 19.9362 46.0462 20.1941 45.6774C21.3428 44.2076 23.2653 41.747 28.055 41.3326C29.913 41.1854 31.7821 41.3897 33.5644 41.9347L35.6521 42.544C37.8922 43.2007 40.2146 43.534 42.549 43.5337H51.4837C51.9878 43.5349 52.4818 43.6761 52.9105 43.9414C53.3392 44.2067 53.6859 44.5857 53.912 45.0364V45.0364C54.1066 45.4192 54.2075 45.8428 54.2064 46.2722C54.2064 46.9988 53.918 47.6958 53.4045 48.2099C52.891 48.7241 52.1945 49.0134 51.4678 49.0144H35.5296C35.368 49.0144 35.213 49.0786 35.0987 49.1929C34.9845 49.3071 34.9203 49.4621 34.9203 49.6238C34.9203 49.7854 34.9845 49.9404 35.0987 50.0546C35.213 50.1689 35.368 50.2331 35.5296 50.2331H51.4678C52.5177 50.2322 53.5242 49.8144 54.2663 49.0717C55.0083 48.329 55.4251 47.3221 55.4251 46.2722C55.4255 45.8218 55.3482 45.3746 55.1966 44.9505L66.2555 36.2364C66.8612 35.7564 67.6307 35.5326 68.3993 35.6127C69.1679 35.6928 69.8746 36.0706 70.3683 36.6651C70.862 37.2597 71.1034 38.0238 71.0408 38.794C70.9783 39.5643 70.6168 40.2795 70.0337 40.7866L62.7333 47.0089C62.6724 47.0609 62.6223 47.1245 62.5859 47.1958C62.5495 47.2672 62.5275 47.3451 62.5212 47.4249C62.5149 47.5048 62.5244 47.5851 62.5491 47.6613C62.5739 47.7375 62.6134 47.8081 62.6654 47.8691C62.7174 47.93 62.7809 47.9801 62.8523 48.0165C62.9237 48.0529 63.0015 48.0749 63.0814 48.0812C63.1613 48.0875 63.2416 48.078 63.3178 48.0533C63.394 48.0285 63.4646 47.989 63.5255 47.937L70.8277 41.7116C71.2532 41.3415 71.5993 40.8891 71.8452 40.3816C72.0911 39.8742 72.2317 39.3221 72.2585 38.7588C72.2852 38.1955 72.1976 37.6327 72.0009 37.1042C71.8043 36.5756 71.5026 36.0924 71.1141 35.6837V35.6837ZM21.5189 65.4821L16.2392 68.88C16.0028 69.0321 15.7388 69.136 15.4622 69.186C15.1855 69.236 14.9018 69.231 14.6271 69.1713C14.3524 69.1116 14.0922 68.9984 13.8613 68.8381C13.6304 68.6778 13.4333 68.4736 13.2813 68.2371L4.85734 55.1325C4.55101 54.655 4.44654 54.0756 4.56682 53.5212C4.68711 52.9668 5.02235 52.4828 5.49901 52.1752L10.7786 48.7779C11.1225 48.5555 11.5233 48.437 11.9328 48.4367C12.0869 48.4368 12.2405 48.4534 12.391 48.4861C12.6661 48.545 12.9266 48.6579 13.1577 48.8183C13.3888 48.9786 13.5857 49.1832 13.7372 49.4202L22.1612 62.5254C22.4674 63.0029 22.5718 63.5823 22.4514 64.1366C22.3309 64.6909 21.9956 65.1748 21.5189 65.4821V65.4821Z" fill="#292929"/>
<path d="M60.7581 48.6933L57.2328 51.6975C57.1719 51.7495 57.1219 51.813 57.0855 51.8843C57.0492 51.9557 57.0272 52.0335 57.021 52.1134C57.0147 52.1932 57.0242 52.2735 57.0489 52.3497C57.0737 52.4259 57.1132 52.4964 57.1652 52.5573C57.2172 52.6182 57.2807 52.6683 57.3521 52.7046C57.4234 52.741 57.5013 52.7629 57.5811 52.7692C57.661 52.7755 57.7413 52.766 57.8174 52.7412C57.8936 52.7165 57.9641 52.677 58.025 52.6249L61.5466 49.6207C61.6075 49.5687 61.6576 49.5052 61.6939 49.4338C61.7303 49.3625 61.7522 49.2847 61.7585 49.2048C61.7648 49.125 61.7553 49.0447 61.7305 48.9685C61.7058 48.8923 61.6663 48.8218 61.6143 48.7609C61.5622 48.7 61.4987 48.6499 61.4274 48.6136C61.356 48.5772 61.2782 48.5553 61.1983 48.549C61.1185 48.5427 61.0382 48.5522 60.962 48.577C60.8859 48.6017 60.8153 48.6412 60.7544 48.6933H60.7581Z" fill="#3A2C60"/>
<path d="M15.4089 61.8047C14.9871 61.8047 14.5747 61.9298 14.224 62.1641C13.8733 62.3985 13.5999 62.7316 13.4385 63.1213C13.277 63.511 13.2348 63.9399 13.3171 64.3536C13.3994 64.7673 13.6025 65.1473 13.9008 65.4456C14.1991 65.7439 14.5791 65.947 14.9928 66.0293C15.4066 66.1116 15.8354 66.0694 16.2251 65.908C16.6148 65.7465 16.9479 65.4732 17.1823 65.1224C17.4167 64.7717 17.5417 64.3593 17.5417 63.9375C17.5417 63.3718 17.317 62.8294 16.9171 62.4294C16.5171 62.0294 15.9746 61.8047 15.4089 61.8047ZM15.4089 64.8516C15.2282 64.8516 15.0514 64.798 14.9011 64.6975C14.7508 64.5971 14.6336 64.4543 14.5645 64.2873C14.4953 64.1203 14.4772 63.9365 14.5124 63.7592C14.5477 63.5819 14.6348 63.419 14.7626 63.2912C14.8904 63.1633 15.0533 63.0763 15.2306 63.041C15.4079 63.0057 15.5917 63.0238 15.7587 63.093C15.9258 63.1622 16.0685 63.2794 16.169 63.4297C16.2694 63.58 16.323 63.7567 16.323 63.9375C16.323 64.1799 16.2267 64.4124 16.0553 64.5838C15.8839 64.7553 15.6514 64.8516 15.4089 64.8516Z" fill="#292929"/>
</svg>
