<svg width="177" height="205" viewBox="0 0 177 205" fill="none" xmlns="http://www.w3.org/2000/svg">
<circle cx="8.60687" cy="8.60687" r="8.60687" fill="white" fill-opacity="0.32"/>
<circle cx="35.2104" cy="8.60687" r="8.60687" fill="white" fill-opacity="0.32"/>
<circle cx="61.8129" cy="8.60687" r="8.60687" fill="white" fill-opacity="0.32"/>
<circle cx="88.4164" cy="8.60687" r="8.60687" fill="white" fill-opacity="0.32"/>
<circle cx="115.019" cy="8.60687" r="8.60687" fill="white" fill-opacity="0.32"/>
<circle cx="141.622" cy="8.60687" r="8.60687" fill="white" fill-opacity="0.32"/>
<circle cx="168.225" cy="8.60687" r="8.60687" fill="white" fill-opacity="0.32"/>
<circle cx="8.60687" cy="8.60687" r="8.60687" fill="white" fill-opacity="0.32"/>
<circle cx="35.2104" cy="8.60687" r="8.60687" fill="white" fill-opacity="0.32"/>
<circle cx="61.8129" cy="8.60687" r="8.60687" fill="white" fill-opacity="0.32"/>
<circle cx="88.4164" cy="8.60687" r="8.60687" fill="white" fill-opacity="0.32"/>
<circle cx="115.019" cy="8.60687" r="8.60687" fill="white" fill-opacity="0.32"/>
<circle cx="141.622" cy="8.60687" r="8.60687" fill="white" fill-opacity="0.32"/>
<circle cx="168.225" cy="8.60687" r="8.60687" fill="white" fill-opacity="0.32"/>
<circle cx="8.60687" cy="39.9045" r="8.60687" fill="white" fill-opacity="0.32"/>
<circle cx="35.2104" cy="39.9045" r="8.60687" fill="white" fill-opacity="0.32"/>
<circle cx="61.8129" cy="39.9045" r="8.60687" fill="white" fill-opacity="0.32"/>
<circle cx="88.4164" cy="39.9045" r="8.60687" fill="white" fill-opacity="0.32"/>
<circle cx="115.019" cy="39.9045" r="8.60687" fill="white" fill-opacity="0.32"/>
<circle cx="141.622" cy="39.9045" r="8.60687" fill="white" fill-opacity="0.32"/>
<circle cx="168.225" cy="39.9045" r="8.60687" fill="white" fill-opacity="0.32"/>
<circle cx="8.60687" cy="71.2023" r="8.60687" fill="white" fill-opacity="0.32"/>
<circle cx="35.2104" cy="71.2023" r="8.60687" fill="white" fill-opacity="0.32"/>
<circle cx="61.8129" cy="71.2023" r="8.60687" fill="white" fill-opacity="0.32"/>
<circle cx="88.4164" cy="71.2023" r="8.60687" fill="white" fill-opacity="0.32"/>
<circle cx="115.019" cy="71.2023" r="8.60687" fill="white" fill-opacity="0.32"/>
<circle cx="141.622" cy="71.2023" r="8.60687" fill="white" fill-opacity="0.32"/>
<circle cx="168.225" cy="71.2023" r="8.60687" fill="white" fill-opacity="0.32"/>
<circle cx="8.60687" cy="102.5" r="8.60687" fill="white" fill-opacity="0.32"/>
<circle cx="35.2104" cy="102.5" r="8.60687" fill="white" fill-opacity="0.32"/>
<circle cx="61.8129" cy="102.5" r="8.60687" fill="white" fill-opacity="0.32"/>
<circle cx="88.4164" cy="102.5" r="8.60687" fill="white" fill-opacity="0.32"/>
<circle cx="115.019" cy="102.5" r="8.60687" fill="white" fill-opacity="0.32"/>
<circle cx="141.622" cy="102.5" r="8.60687" fill="white" fill-opacity="0.32"/>
<circle cx="168.225" cy="102.5" r="8.60687" fill="white" fill-opacity="0.32"/>
<circle cx="8.60687" cy="133.798" r="8.60687" fill="white" fill-opacity="0.32"/>
<circle cx="35.2104" cy="133.798" r="8.60687" fill="white" fill-opacity="0.32"/>
<circle cx="61.8129" cy="133.798" r="8.60687" fill="white" fill-opacity="0.32"/>
<circle cx="88.4164" cy="133.798" r="8.60687" fill="white" fill-opacity="0.32"/>
<circle cx="115.019" cy="133.798" r="8.60687" fill="white" fill-opacity="0.32"/>
<circle cx="141.622" cy="133.798" r="8.60687" fill="white" fill-opacity="0.32"/>
<circle cx="168.225" cy="133.798" r="8.60687" fill="white" fill-opacity="0.32"/>
<circle cx="8.60687" cy="165.095" r="8.60687" fill="white" fill-opacity="0.32"/>
<circle cx="35.2104" cy="165.095" r="8.60687" fill="white" fill-opacity="0.32"/>
<circle cx="61.8129" cy="165.095" r="8.60687" fill="white" fill-opacity="0.32"/>
<circle cx="88.4164" cy="165.095" r="8.60687" fill="white" fill-opacity="0.32"/>
<circle cx="115.019" cy="165.095" r="8.60687" fill="white" fill-opacity="0.32"/>
<circle cx="141.622" cy="165.095" r="8.60687" fill="white" fill-opacity="0.32"/>
<circle cx="168.225" cy="165.095" r="8.60687" fill="white" fill-opacity="0.32"/>
<circle cx="8.60687" cy="196.393" r="8.60687" fill="white" fill-opacity="0.32"/>
<circle cx="35.2104" cy="196.393" r="8.60687" fill="white" fill-opacity="0.32"/>
<circle cx="61.8129" cy="196.393" r="8.60687" fill="white" fill-opacity="0.32"/>
<circle cx="88.4164" cy="196.393" r="8.60687" fill="white" fill-opacity="0.32"/>
<circle cx="115.019" cy="196.393" r="8.60687" fill="white" fill-opacity="0.32"/>
<circle cx="141.622" cy="196.393" r="8.60687" fill="white" fill-opacity="0.32"/>
<circle cx="168.225" cy="196.393" r="8.60687" fill="white" fill-opacity="0.32"/>
</svg>
