<svg width="38" height="38" viewBox="0 0 38 38" fill="none" xmlns="http://www.w3.org/2000/svg">
<path d="M33.8695 0.826416H4.13041C1.85374 0.826416 0 2.68015 0 4.95682V23.1307C0 25.4074 1.85374 27.2612 4.13041 27.2612H7.43478C7.89078 27.2612 8.26089 26.891 8.26089 26.435C8.26089 25.979 7.89078 25.6089 7.43478 25.6089H4.13041C2.76403 25.6089 1.65215 24.497 1.65215 23.1307V4.95682C1.65215 3.59045 2.76403 2.47856 4.13041 2.47856H33.8695C35.2359 2.47856 36.3478 3.59045 36.3478 4.95682V23.1307C36.3478 24.4971 35.2359 25.609 33.8695 25.609H30.5651C30.1091 25.609 29.739 25.9791 29.739 26.4351C29.739 26.8911 30.1091 27.2612 30.5651 27.2612H33.8695C36.1462 27.2612 37.9999 25.4075 37.9999 23.1308V4.95682C38 2.68015 36.1463 0.826416 33.8695 0.826416Z" fill="#F9392D"/>
<path d="M34.5404 4.47226C34.2727 4.10214 33.7572 4.01788 33.3871 4.28724L20.5497 13.5576C19.6096 14.2366 18.392 14.2366 17.4519 13.5576L4.61453 4.28724C4.24279 4.01796 3.72731 4.10222 3.46128 4.47226C3.19363 4.84237 3.27627 5.35947 3.6463 5.6255L16.4837 14.8958C17.2354 15.4394 18.1177 15.712 19 15.712C19.8822 15.712 20.7645 15.441 21.5179 14.8958L34.3553 5.6255C34.7237 5.35947 34.808 4.84237 34.5404 4.47226Z" fill="#F9392D"/>
<path d="M12.9746 14.2861C12.6524 13.9639 12.1287 13.9639 11.8065 14.2861L3.54559 22.547C3.22341 22.8691 3.22341 23.3929 3.54559 23.7151C3.70752 23.8753 3.91895 23.9563 4.13045 23.9563C4.34196 23.9563 4.55339 23.8754 4.7137 23.7151L12.9746 15.4542C13.2968 15.132 13.2968 14.6082 12.9746 14.2861Z" fill="#F9392D"/>
<path d="M34.4527 22.547L26.1918 14.2861C25.8697 13.9639 25.3459 13.9639 25.0237 14.2861C24.7016 14.6082 24.7016 15.132 25.0237 15.4542L33.2846 23.7151C33.4466 23.8753 33.658 23.9563 33.8695 23.9563C34.081 23.9563 34.2924 23.8754 34.4527 23.7151C34.7749 23.3929 34.7749 22.8691 34.4527 22.547Z" fill="#F9392D"/>
<path d="M19 19C13.989 19 9.91309 23.076 9.91309 28.087C9.91309 33.098 13.989 37.1739 19 37.1739C21.3726 37.1739 23.6161 36.2669 25.3179 34.618C25.6467 34.3008 25.655 33.777 25.3378 33.4499C25.0205 33.1211 24.4985 33.1162 24.1697 33.43C22.7769 34.7798 20.9396 35.5217 19 35.5217C14.901 35.5217 11.5652 32.186 11.5652 28.0869C11.5652 23.9879 14.901 20.6521 19 20.6521C23.099 20.6521 26.4348 23.9879 26.4348 28.0869C26.4348 28.5429 26.8049 28.913 27.2609 28.913C27.7169 28.913 28.087 28.5429 28.087 28.0869C28.087 23.076 24.011 19 19 19Z" fill="#292929"/>
<path d="M19 23.9565C16.7234 23.9565 14.8696 25.8103 14.8696 28.0869C14.8696 30.3636 16.7234 32.2174 19 32.2174C21.2767 32.2174 23.1304 30.3637 23.1304 28.087C23.1304 25.8104 21.2768 23.9565 19 23.9565ZM19 30.5653C17.6337 30.5653 16.5218 29.4534 16.5218 28.087C16.5218 26.7207 17.6337 25.6088 19 25.6088C20.3664 25.6088 21.4783 26.7207 21.4783 28.087C21.4783 29.4533 20.3664 30.5653 19 30.5653Z" fill="#292929"/>
<path d="M27.2608 27.2612C26.8048 27.2612 26.4347 27.6313 26.4347 28.0873C26.4347 29.9411 26.0183 30.5656 24.7825 30.5656C23.6855 30.5656 23.1304 29.7313 23.1304 28.0873C23.1304 27.6313 22.7603 27.2612 22.3043 27.2612C21.8483 27.2612 21.4781 27.6313 21.4781 28.0873C21.4781 30.6729 22.714 32.2178 24.7825 32.2178C28.0869 32.2178 28.0869 29.1084 28.0869 28.0873C28.0869 27.6313 27.7168 27.2612 27.2608 27.2612Z" fill="#292929"/>
</svg>
