<svg width="1920" height="718" viewBox="0 0 1920 718" fill="none" xmlns="http://www.w3.org/2000/svg">
<path d="M334.723 602.685C334.888 602.685 335.053 602.771 335.146 602.928C335.283 603.157 335.204 603.458 334.967 603.594L238.186 659.428C237.95 659.557 237.656 659.479 237.52 659.249C237.384 659.02 237.462 658.719 237.699 658.583L334.48 602.749C334.558 602.706 334.645 602.685 334.723 602.685Z" fill="white" fill-opacity="0.03"/>
<path d="M625.028 435.182C625.193 435.182 625.358 435.268 625.451 435.425C625.587 435.654 625.508 435.955 625.272 436.091L528.491 491.926C528.255 492.062 527.961 491.983 527.824 491.746C527.688 491.517 527.767 491.216 528.004 491.08L624.784 435.246C624.856 435.203 624.942 435.182 625.028 435.182Z" fill="white" fill-opacity="0.03"/>
<path d="M528.247 491.016C528.511 491.016 528.733 491.231 528.733 491.503V603.171C528.733 603.436 528.519 603.658 528.247 603.658C527.982 603.658 527.76 603.443 527.76 603.171V491.503C527.76 491.231 527.975 491.016 528.247 491.016Z" fill="white" fill-opacity="0.03"/>
<path d="M528.262 491.016C528.527 491.016 528.749 491.231 528.749 491.503V603.171C528.749 603.436 528.534 603.658 528.262 603.658C527.997 603.658 527.775 603.443 527.775 603.171V491.503C527.783 491.231 527.997 491.016 528.262 491.016Z" fill="white" fill-opacity="0.03"/>
<path d="M431.482 435.183C431.568 435.183 431.647 435.204 431.726 435.247L528.507 491.081C528.736 491.217 528.815 491.511 528.686 491.748C528.55 491.977 528.256 492.056 528.019 491.927L431.238 436.092C431.009 435.956 430.923 435.663 431.059 435.426C431.152 435.269 431.317 435.183 431.482 435.183Z" fill="white" fill-opacity="0.03"/>
<path d="M433.31 432.503C431.561 431.493 429.332 432.095 428.321 433.836C427.31 435.583 427.912 437.811 429.654 438.821C431.403 439.832 433.633 439.23 434.644 437.489C435.655 435.748 435.06 433.513 433.31 432.503Z" fill="white" fill-opacity="0.03"/>
<path d="M431.481 435.182C431.646 435.182 431.811 435.268 431.904 435.425C432.04 435.654 431.961 435.955 431.725 436.091L334.944 491.926C334.715 492.062 334.414 491.983 334.278 491.746C334.141 491.517 334.22 491.216 334.457 491.08L431.237 435.246C431.316 435.203 431.402 435.182 431.481 435.182Z" fill="white" fill-opacity="0.03"/>
<path d="M334.708 491.016C334.972 491.016 335.194 491.231 335.194 491.503V603.171C335.194 603.436 334.98 603.658 334.708 603.658C334.443 603.658 334.221 603.443 334.221 603.171V491.503C334.221 491.231 334.435 491.016 334.708 491.016Z" fill="white" fill-opacity="0.03"/>
<path d="M334.721 491.016C334.986 491.016 335.208 491.231 335.208 491.503V603.171C335.208 603.436 334.993 603.658 334.721 603.658C334.456 603.658 334.234 603.443 334.234 603.171V491.503C334.242 491.231 334.456 491.016 334.721 491.016Z" fill="white" fill-opacity="0.03"/>
<path d="M237.942 435.182C238.028 435.182 238.107 435.203 238.186 435.246L334.966 491.08C335.196 491.216 335.282 491.51 335.145 491.747C335.009 491.976 334.715 492.055 334.479 491.926L237.698 436.091C237.469 435.955 237.39 435.662 237.519 435.425C237.612 435.268 237.777 435.182 237.942 435.182Z" fill="white" fill-opacity="0.03"/>
<path d="M237.942 435.182C238.107 435.182 238.272 435.268 238.365 435.425C238.501 435.654 238.422 435.955 238.186 436.091L141.405 491.926C141.169 492.062 140.875 491.983 140.739 491.746C140.602 491.517 140.681 491.216 140.918 491.08L237.698 435.246C237.777 435.203 237.863 435.182 237.942 435.182Z" fill="white" fill-opacity="0.03"/>
<path d="M141.161 491.017C141.425 491.017 141.647 491.232 141.647 491.504V603.172C141.647 603.437 141.433 603.659 141.161 603.659C140.896 603.659 140.674 603.444 140.674 603.172V491.504C140.681 491.232 140.896 491.017 141.161 491.017Z" fill="white" fill-opacity="0.03"/>
<path d="M141.182 602.685C141.268 602.685 141.347 602.706 141.426 602.749L238.185 658.583C238.414 658.719 238.5 659.013 238.364 659.249C238.228 659.479 237.934 659.557 237.697 659.428L140.938 603.594C140.709 603.458 140.63 603.165 140.759 602.928C140.852 602.771 141.017 602.685 141.182 602.685Z" fill="white" fill-opacity="0.03"/>
<path d="M334.723 602.685C334.888 602.685 335.053 602.771 335.146 602.928C335.282 603.157 335.204 603.458 334.967 603.594L238.186 659.428C237.95 659.557 237.656 659.479 237.52 659.249C237.384 659.02 237.462 658.719 237.699 658.583L334.48 602.749C334.558 602.706 334.644 602.685 334.723 602.685Z" fill="white" fill-opacity="0.03"/>
<path d="M528.262 267.673C528.427 267.673 528.592 267.759 528.685 267.916C528.822 268.146 528.743 268.447 528.506 268.583L431.726 324.417C431.496 324.546 431.195 324.474 431.059 324.238C430.923 324.008 431.001 323.708 431.238 323.571L528.019 267.737C528.098 267.694 528.184 267.673 528.262 267.673Z" fill="white" fill-opacity="0.03"/>
<path d="M431.481 323.514C431.746 323.514 431.968 323.729 431.968 324.001V435.669C431.968 435.934 431.753 436.156 431.481 436.156C431.216 436.156 430.994 435.941 430.994 435.669V324.001C431.001 323.729 431.216 323.514 431.481 323.514Z" fill="white" fill-opacity="0.03"/>
<path d="M431.504 435.182C431.59 435.182 431.669 435.203 431.747 435.246L528.507 491.08C528.736 491.216 528.815 491.51 528.686 491.747C528.55 491.976 528.256 492.055 528.019 491.926L431.26 436.091C431.031 435.955 430.945 435.662 431.081 435.425C431.174 435.268 431.339 435.182 431.504 435.182Z" fill="white" fill-opacity="0.03"/>
<path d="M625.044 435.182C625.209 435.182 625.374 435.268 625.467 435.425C625.603 435.654 625.524 435.955 625.288 436.091L528.507 491.926C528.277 492.062 527.976 491.983 527.84 491.746C527.704 491.517 527.783 491.216 528.019 491.08L624.8 435.246C624.879 435.203 624.965 435.182 625.044 435.182Z" fill="white" fill-opacity="0.03"/>
<path d="M431.502 323.514C431.767 323.514 431.989 323.729 431.989 324.001V435.669C431.989 435.934 431.774 436.156 431.502 436.156C431.238 436.156 431.016 435.941 431.016 435.669V323.994C431.016 323.729 431.238 323.514 431.502 323.514Z" fill="white" fill-opacity="0.03"/>
<path d="M334.723 267.673C334.809 267.673 334.888 267.694 334.967 267.737L431.748 323.571C431.977 323.707 432.056 324.001 431.927 324.238C431.791 324.467 431.497 324.546 431.26 324.417L334.479 268.583C334.25 268.447 334.171 268.153 334.3 267.916C334.393 267.759 334.558 267.673 334.723 267.673Z" fill="white" fill-opacity="0.03"/>
<path d="M334.723 267.673C334.888 267.673 335.053 267.759 335.146 267.916C335.283 268.146 335.204 268.447 334.967 268.583L238.186 324.417C237.95 324.546 237.656 324.474 237.52 324.238C237.384 324.008 237.462 323.708 237.699 323.571L334.48 267.737C334.558 267.694 334.645 267.673 334.723 267.673Z" fill="white" fill-opacity="0.03"/>
<path d="M237.942 323.514C238.207 323.514 238.429 323.729 238.429 324.001V435.669C238.429 435.934 238.214 436.156 237.942 436.156C237.677 436.156 237.455 435.941 237.455 435.669V324.001C237.462 323.729 237.677 323.514 237.942 323.514Z" fill="white" fill-opacity="0.03"/>
<path d="M237.963 435.182C238.049 435.182 238.128 435.203 238.207 435.246L334.966 491.08C335.196 491.216 335.282 491.51 335.145 491.747C335.009 491.976 334.715 492.055 334.479 491.926L237.72 436.091C237.49 435.955 237.411 435.662 237.54 435.425C237.634 435.268 237.799 435.182 237.963 435.182Z" fill="white" fill-opacity="0.03"/>
<path d="M431.503 435.182C431.668 435.182 431.832 435.268 431.926 435.425C432.062 435.654 431.983 435.955 431.746 436.091L334.966 491.926C334.736 492.062 334.435 491.983 334.299 491.746C334.163 491.517 334.242 491.216 334.478 491.08L431.259 435.246C431.338 435.203 431.424 435.182 431.503 435.182Z" fill="white" fill-opacity="0.03"/>
<path d="M528.247 156.005C528.511 156.005 528.733 156.22 528.733 156.492V268.16C528.733 268.425 528.519 268.647 528.247 268.647C527.982 268.647 527.76 268.432 527.76 268.16V156.492C527.76 156.22 527.975 156.005 528.247 156.005Z" fill="white" fill-opacity="0.03"/>
<path d="M528.262 156.005C528.527 156.005 528.749 156.22 528.749 156.492V268.16C528.749 268.425 528.534 268.647 528.262 268.647C527.997 268.647 527.775 268.432 527.775 268.16V156.492C527.783 156.22 527.997 156.005 528.262 156.005Z" fill="white" fill-opacity="0.03"/>
<path d="M431.482 100.171C431.568 100.171 431.647 100.192 431.726 100.235L528.507 156.069C528.736 156.206 528.815 156.499 528.686 156.736C528.55 156.965 528.256 157.044 528.019 156.915L431.238 101.081C431.009 100.945 430.923 100.651 431.059 100.414C431.152 100.257 431.317 100.171 431.482 100.171Z" fill="white" fill-opacity="0.03"/>
<path d="M433.31 97.4914C431.561 96.4813 429.332 97.083 428.321 98.8238C427.31 100.572 427.912 102.8 429.654 103.81C431.403 104.82 433.633 104.218 434.644 102.477C435.655 100.737 435.06 98.5015 433.31 97.4914Z" fill="white" fill-opacity="0.03"/>
<path d="M431.481 100.171C431.646 100.171 431.811 100.257 431.904 100.414C432.04 100.644 431.961 100.945 431.725 101.081L334.944 156.915C334.715 157.051 334.414 156.972 334.278 156.736C334.141 156.506 334.22 156.206 334.457 156.069L431.237 100.235C431.316 100.192 431.402 100.171 431.481 100.171Z" fill="white" fill-opacity="0.03"/>
<path d="M429.66 97.4914C431.409 96.4813 433.639 97.083 434.65 98.8238C435.66 100.572 435.058 102.8 433.309 103.81C431.56 104.82 429.33 104.218 428.319 102.477C427.316 100.737 427.911 98.5015 429.66 97.4914Z" fill="white" fill-opacity="0.03"/>
<path d="M334.708 156.005C334.972 156.005 335.194 156.22 335.194 156.492V268.16C335.194 268.425 334.98 268.647 334.708 268.647C334.443 268.647 334.221 268.432 334.221 268.16V156.492C334.221 156.22 334.435 156.005 334.708 156.005Z" fill="white" fill-opacity="0.03"/>
<path d="M334.723 267.673C334.809 267.673 334.888 267.694 334.967 267.737L431.726 323.571C431.955 323.708 432.034 324.001 431.905 324.238C431.769 324.467 431.475 324.546 431.238 324.417L334.479 268.583C334.25 268.447 334.171 268.153 334.3 267.916C334.393 267.759 334.558 267.673 334.723 267.673Z" fill="white" fill-opacity="0.03"/>
<path d="M528.262 267.673C528.427 267.673 528.592 267.759 528.685 267.916C528.822 268.146 528.743 268.447 528.506 268.583L431.726 324.417C431.496 324.546 431.195 324.474 431.059 324.238C430.923 324.008 431.001 323.708 431.238 323.571L528.019 267.737C528.097 267.694 528.183 267.673 528.262 267.673Z" fill="white" fill-opacity="0.03"/>
<path d="M334.721 156.005C334.986 156.005 335.208 156.22 335.208 156.492V268.16C335.208 268.425 334.993 268.647 334.721 268.647C334.456 268.647 334.234 268.432 334.234 268.16V156.492C334.242 156.22 334.456 156.005 334.721 156.005Z" fill="white" fill-opacity="0.03"/>
<path d="M237.942 100.171C238.028 100.171 238.107 100.192 238.186 100.235L334.966 156.069C335.196 156.206 335.282 156.499 335.145 156.736C335.009 156.965 334.715 157.044 334.479 156.915L237.698 101.081C237.469 100.945 237.39 100.651 237.519 100.414C237.612 100.257 237.777 100.171 237.942 100.171Z" fill="white" fill-opacity="0.03"/>
<path d="M239.769 97.4914C238.02 96.4813 235.791 97.083 234.78 98.8238C233.769 100.572 234.371 102.8 236.113 103.81C237.862 104.82 240.092 104.218 241.103 102.477C242.114 100.737 241.519 98.5015 239.769 97.4914Z" fill="white" fill-opacity="0.03"/>
<path d="M237.942 100.171C238.107 100.171 238.272 100.257 238.365 100.414C238.501 100.644 238.422 100.945 238.186 101.081L141.405 156.915C141.169 157.051 140.875 156.972 140.739 156.736C140.602 156.506 140.681 156.206 140.918 156.069L237.698 100.235C237.777 100.192 237.863 100.171 237.942 100.171Z" fill="white" fill-opacity="0.03"/>
<path d="M236.121 97.4914C237.87 96.4813 240.1 97.083 241.11 98.8238C242.121 100.572 241.519 102.8 239.77 103.81C238.021 104.82 235.791 104.218 234.78 102.477C233.777 100.737 234.372 98.5015 236.121 97.4914Z" fill="white" fill-opacity="0.03"/>
<path d="M141.161 156.005C141.425 156.005 141.647 156.22 141.647 156.492V268.16C141.647 268.425 141.433 268.647 141.161 268.647C140.896 268.647 140.674 268.432 140.674 268.16V156.492C140.681 156.22 140.896 156.005 141.161 156.005Z" fill="white" fill-opacity="0.03"/>
<path d="M141.182 267.673C141.268 267.673 141.347 267.694 141.426 267.737L238.185 323.571C238.414 323.708 238.5 324.001 238.364 324.238C238.228 324.467 237.934 324.546 237.697 324.417L140.938 268.583C140.709 268.447 140.63 268.153 140.759 267.916C140.852 267.759 141.017 267.673 141.182 267.673Z" fill="white" fill-opacity="0.03"/>
<path d="M334.723 267.673C334.888 267.673 335.053 267.759 335.146 267.916C335.282 268.146 335.204 268.447 334.967 268.583L238.186 324.417C237.95 324.546 237.656 324.474 237.52 324.238C237.384 324.008 237.462 323.708 237.699 323.571L334.48 267.737C334.558 267.694 334.644 267.673 334.723 267.673Z" fill="white" fill-opacity="0.03"/>
<path d="M431 0V100.658C431 100.923 431.215 101.145 431.487 101.145C431.752 101.145 431.974 100.93 431.974 100.658V0H431Z" fill="white" fill-opacity="0.03"/>
<path d="M427.832 100.657C427.832 102.67 429.467 104.303 431.481 104.303C433.496 104.303 435.13 102.67 435.13 100.657C435.13 98.6441 433.496 97.0108 431.481 97.0108C429.467 97.0036 427.832 98.6369 427.832 100.657Z" fill="white" fill-opacity="0.03"/>
<path d="M431.502 100.17C431.588 100.17 431.667 100.191 431.745 100.234L528.505 156.068C528.734 156.205 528.813 156.498 528.684 156.735C528.548 156.964 528.254 157.043 528.017 156.914L431.258 101.08C431.029 100.944 430.943 100.65 431.079 100.413C431.172 100.256 431.337 100.17 431.502 100.17Z" fill="white" fill-opacity="0.03"/>
<path d="M429.681 103.816C427.932 102.806 427.337 100.578 428.348 98.8303C429.359 97.0823 431.588 96.4877 433.337 97.4978C435.087 98.5079 435.682 100.736 434.671 102.484C433.66 104.225 431.423 104.826 429.681 103.816Z" fill="white" fill-opacity="0.03"/>
<path d="M431.016 0V100.658C431.016 100.923 431.23 101.145 431.502 101.145C431.767 101.145 431.989 100.93 431.989 100.658V0H431.016Z" fill="white" fill-opacity="0.03"/>
<path d="M427.854 100.657C427.854 102.67 429.488 104.303 431.503 104.303C433.517 104.303 435.151 102.67 435.151 100.657C435.151 98.6441 433.517 97.0108 431.503 97.0108C429.488 97.0036 427.854 98.6369 427.854 100.657Z" fill="white" fill-opacity="0.03"/>
<path d="M237.461 0V100.658C237.461 100.923 237.676 101.145 237.948 101.145C238.213 101.145 238.434 100.93 238.434 100.658V0H237.461Z" fill="white" fill-opacity="0.03"/>
<path d="M234.293 100.657C234.293 102.67 235.927 104.303 237.942 104.303C239.956 104.303 241.591 102.67 241.591 100.657C241.591 98.6441 239.956 97.0108 237.942 97.0108C235.927 97.0036 234.293 98.6369 234.293 100.657Z" fill="white" fill-opacity="0.03"/>
<path d="M237.963 100.17C238.049 100.17 238.128 100.191 238.207 100.234L334.966 156.068C335.196 156.205 335.282 156.498 335.145 156.735C335.009 156.964 334.715 157.043 334.479 156.914L237.72 101.08C237.49 100.944 237.411 100.65 237.54 100.413C237.634 100.256 237.799 100.17 237.963 100.17Z" fill="white" fill-opacity="0.03"/>
<path d="M236.142 103.816C234.393 102.806 233.798 100.578 234.809 98.8303C235.82 97.0823 238.049 96.4877 239.798 97.4978C241.548 98.5079 242.143 100.736 241.132 102.484C240.121 104.225 237.884 104.826 236.142 103.816Z" fill="white" fill-opacity="0.03"/>
<path d="M431.503 100.17C431.668 100.17 431.832 100.256 431.926 100.413C432.062 100.643 431.983 100.944 431.746 101.08L334.966 156.914C334.736 157.05 334.435 156.971 334.299 156.735C334.163 156.505 334.242 156.205 334.478 156.069L431.259 100.234C431.338 100.191 431.424 100.17 431.503 100.17Z" fill="white" fill-opacity="0.03"/>
<path d="M433.331 103.816C435.081 102.806 435.676 100.578 434.665 98.8303C433.654 97.0823 431.425 96.4877 429.675 97.4978C427.926 98.5079 427.331 100.736 428.342 102.484C429.353 104.225 431.582 104.826 433.331 103.816Z" fill="white" fill-opacity="0.03"/>
<path d="M-31.8639 126.316H-33.8066L42.8579 170.545C43.0873 170.674 43.3884 170.603 43.5246 170.366C43.6609 170.137 43.582 169.836 43.3454 169.7L-31.8639 126.316Z" fill="white" fill-opacity="0.03"/>
<path d="M-42 327.553L43.3677 278.302C43.5971 278.166 43.6831 277.873 43.5469 277.636C43.4537 277.479 43.296 277.393 43.1239 277.393C43.0379 277.393 42.959 277.414 42.8802 277.457L-42 326.435V327.553Z" fill="white" fill-opacity="0.03"/>
<path d="M43.1235 169.636C43.3884 169.636 43.6103 169.851 43.6103 170.123V277.88C43.6103 278.145 43.3955 278.367 43.1235 278.367C42.8586 278.367 42.6367 278.152 42.6367 277.88V170.123C42.6367 169.858 42.8586 169.636 43.1235 169.636Z" fill="white" fill-opacity="0.03"/>
<path d="M-31.8424 126.316H-33.7852L42.8651 170.545C43.0945 170.674 43.3956 170.603 43.5318 170.366C43.668 170.137 43.5891 169.836 43.3526 169.7L-31.8424 126.316Z" fill="white" fill-opacity="0.03"/>
<path d="M43.102 169.636C43.3669 169.636 43.5888 169.851 43.5888 170.123V277.88C43.5888 278.145 43.374 278.367 43.102 278.367C42.8371 278.367 42.6152 278.152 42.6152 277.88V170.123C42.6224 169.858 42.8371 169.636 43.102 169.636Z" fill="white" fill-opacity="0.03"/>
<path d="M43.1021 277.393C43.1881 277.393 43.2669 277.414 43.3458 277.457L136.736 331.335C136.965 331.472 137.051 331.765 136.915 332.002C136.779 332.231 136.485 332.31 136.248 332.181L42.8583 278.302C42.6289 278.166 42.5501 277.873 42.6791 277.636C42.7723 277.486 42.9372 277.393 43.1021 277.393Z" fill="white" fill-opacity="0.03"/>
<path d="M-42 444.852L42.8658 493.816C43.0952 493.952 43.3963 493.873 43.5325 493.637C43.6687 493.408 43.5899 493.107 43.3533 492.971L-42 443.734V444.852Z" fill="white" fill-opacity="0.03"/>
<path d="M136.493 439.027C136.657 439.027 136.822 439.113 136.916 439.271C137.052 439.5 136.973 439.801 136.736 439.937L43.3466 493.816C43.1101 493.952 42.8161 493.873 42.6799 493.636C42.5437 493.407 42.6226 493.106 42.8592 492.97L136.249 439.092C136.328 439.049 136.414 439.027 136.493 439.027Z" fill="white" fill-opacity="0.03"/>
<path d="M136.491 331.271C136.756 331.271 136.977 331.485 136.977 331.758V439.514C136.977 439.779 136.763 440.002 136.491 440.002C136.226 440.002 136.004 439.787 136.004 439.514V331.758C136.004 331.493 136.226 331.271 136.491 331.271Z" fill="white" fill-opacity="0.03"/>
<path d="M43.1021 277.393C43.1881 277.393 43.2669 277.414 43.3458 277.457L136.714 331.335C136.943 331.472 137.029 331.765 136.893 332.002C136.757 332.231 136.463 332.31 136.227 332.181L42.8583 278.302C42.6289 278.166 42.5501 277.873 42.6791 277.636C42.7723 277.486 42.9372 277.393 43.1021 277.393Z" fill="white" fill-opacity="0.03"/>
<path d="M-42 327.546L43.3533 278.302C43.5827 278.166 43.6616 277.873 43.5325 277.636C43.4393 277.479 43.2816 277.393 43.1096 277.393C43.0235 277.393 42.9447 277.414 42.8658 277.457L-42 326.421V327.546Z" fill="white" fill-opacity="0.03"/>
<path d="M136.469 331.271C136.734 331.271 136.956 331.485 136.956 331.758V439.514C136.956 439.779 136.741 440.002 136.469 440.002C136.204 440.002 135.982 439.787 135.982 439.514V331.758C135.99 331.493 136.204 331.271 136.469 331.271Z" fill="white" fill-opacity="0.03"/>
<path d="M-42 650.823L43.3677 601.573C43.5971 601.437 43.6831 601.143 43.5469 600.907C43.4537 600.749 43.296 600.663 43.1239 600.663C43.0379 600.663 42.959 600.685 42.8802 600.728L-42 649.699V650.823Z" fill="white" fill-opacity="0.03"/>
<path d="M43.1235 492.905C43.3884 492.905 43.6103 493.12 43.6103 493.392V601.149C43.6103 601.414 43.3955 601.636 43.1235 601.636C42.8586 601.636 42.6367 601.421 42.6367 601.149V493.392C42.6367 493.127 42.8586 492.905 43.1235 492.905Z" fill="white" fill-opacity="0.03"/>
<path d="M-42 444.844L42.8658 493.816C43.0952 493.952 43.3963 493.873 43.5325 493.637C43.6687 493.407 43.5899 493.106 43.3533 492.97L-42 443.72V444.844Z" fill="white" fill-opacity="0.03"/>
<path d="M43.102 492.905C43.3669 492.905 43.5888 493.12 43.5888 493.392V601.149C43.5888 601.414 43.374 601.636 43.102 601.636C42.8371 601.636 42.6152 601.421 42.6152 601.149V493.392C42.6224 493.127 42.8371 492.905 43.102 492.905Z" fill="white" fill-opacity="0.03"/>
<path d="M43.1021 600.663C43.1881 600.663 43.2669 600.685 43.3458 600.728L136.736 654.606C136.965 654.742 137.051 655.036 136.915 655.272C136.779 655.501 136.485 655.58 136.248 655.451L42.8583 601.573C42.6289 601.437 42.5501 601.143 42.6791 600.907C42.7723 600.749 42.9372 600.663 43.1021 600.663Z" fill="white" fill-opacity="0.03"/>
<path d="M136.493 439.027C136.657 439.027 136.822 439.113 136.916 439.271C137.052 439.5 136.973 439.801 136.736 439.937L43.3466 493.816C43.1101 493.952 42.8161 493.873 42.6799 493.636C42.5437 493.407 42.6226 493.106 42.8592 492.97L136.249 439.092C136.328 439.049 136.414 439.027 136.493 439.027Z" fill="white" fill-opacity="0.03"/>
<path d="M136.491 654.541C136.756 654.541 136.977 654.756 136.977 655.028V762.785C136.977 763.05 136.763 763.272 136.491 763.272C136.226 763.272 136.004 763.057 136.004 762.785V655.028C136.004 654.763 136.226 654.541 136.491 654.541Z" fill="white" fill-opacity="0.03"/>
<path d="M43.1021 600.663C43.1881 600.663 43.2669 600.685 43.3458 600.728L136.714 654.606C136.943 654.742 137.029 655.036 136.893 655.272C136.757 655.501 136.463 655.58 136.227 655.451L42.8583 601.573C42.6289 601.437 42.5501 601.143 42.6791 600.907C42.7723 600.749 42.9372 600.663 43.1021 600.663Z" fill="white" fill-opacity="0.03"/>
<path d="M-42 650.816L43.3533 601.573C43.5827 601.437 43.6616 601.143 43.5325 600.907C43.4393 600.749 43.2816 600.663 43.1096 600.663C43.0235 600.663 42.9447 600.685 42.8658 600.728L-42 649.692V650.816Z" fill="white" fill-opacity="0.03"/>
<path d="M136.469 654.541C136.734 654.541 136.956 654.756 136.956 655.028V762.785C136.956 763.05 136.741 763.272 136.469 763.272C136.204 763.272 135.982 763.057 135.982 762.785V655.028C135.99 654.763 136.204 654.541 136.469 654.541Z" fill="white" fill-opacity="0.03"/>
<path d="M1294.51 552.182C1294.34 552.182 1294.18 552.268 1294.08 552.425C1293.95 552.654 1294.02 552.955 1294.26 553.091L1391.04 608.926C1391.28 609.062 1391.57 608.983 1391.71 608.746C1391.84 608.517 1391.77 608.216 1391.53 608.08L1294.75 552.246C1294.68 552.203 1294.59 552.182 1294.51 552.182Z" fill="white" fill-opacity="0.03"/>
<path d="M1391.29 608.016C1391.02 608.016 1390.8 608.231 1390.8 608.503V720.171C1390.8 720.436 1391.01 720.658 1391.29 720.658C1391.55 720.658 1391.77 720.443 1391.77 720.171V608.503C1391.77 608.231 1391.56 608.016 1391.29 608.016Z" fill="white" fill-opacity="0.03"/>
<path d="M1391.27 608.016C1391.01 608.016 1390.78 608.231 1390.78 608.503V720.171C1390.78 720.436 1391 720.658 1391.27 720.658C1391.54 720.658 1391.76 720.443 1391.76 720.171V608.503C1391.75 608.231 1391.54 608.016 1391.27 608.016Z" fill="white" fill-opacity="0.03"/>
<path d="M1488.05 552.183C1487.97 552.183 1487.89 552.204 1487.81 552.247L1391.03 608.081C1390.8 608.217 1390.72 608.511 1390.85 608.748C1390.98 608.977 1391.28 609.056 1391.51 608.927L1488.29 553.092C1488.52 552.956 1488.61 552.663 1488.47 552.426C1488.38 552.269 1488.22 552.183 1488.05 552.183Z" fill="white" fill-opacity="0.03"/>
<path d="M1486.22 549.503C1487.97 548.493 1490.2 549.095 1491.21 550.836C1492.22 552.583 1491.62 554.811 1489.88 555.821C1488.13 556.832 1485.9 556.23 1484.89 554.489C1483.88 552.748 1484.47 550.513 1486.22 549.503Z" fill="white" fill-opacity="0.03"/>
<path d="M1488.05 552.182C1487.89 552.182 1487.72 552.268 1487.63 552.425C1487.49 552.654 1487.57 552.955 1487.81 553.091L1584.59 608.926C1584.82 609.062 1585.12 608.983 1585.26 608.746C1585.39 608.517 1585.31 608.216 1585.08 608.08L1488.3 552.246C1488.22 552.203 1488.13 552.182 1488.05 552.182Z" fill="white" fill-opacity="0.03"/>
<path d="M1584.83 608.016C1584.56 608.016 1584.34 608.231 1584.34 608.503V720.171C1584.34 720.436 1584.55 720.658 1584.83 720.658C1585.09 720.658 1585.31 720.443 1585.31 720.171V608.503C1585.31 608.231 1585.1 608.016 1584.83 608.016Z" fill="white" fill-opacity="0.03"/>
<path d="M1584.81 608.016C1584.55 608.016 1584.33 608.231 1584.33 608.503V720.171C1584.33 720.436 1584.54 720.658 1584.81 720.658C1585.08 720.658 1585.3 720.443 1585.3 720.171V608.503C1585.29 608.231 1585.08 608.016 1584.81 608.016Z" fill="white" fill-opacity="0.03"/>
<path d="M1681.59 552.182C1681.51 552.182 1681.43 552.203 1681.35 552.246L1584.57 608.08C1584.34 608.216 1584.25 608.51 1584.39 608.747C1584.52 608.976 1584.82 609.055 1585.05 608.926L1681.84 553.091C1682.06 552.955 1682.14 552.662 1682.01 552.425C1681.92 552.268 1681.76 552.182 1681.59 552.182Z" fill="white" fill-opacity="0.03"/>
<path d="M1681.59 552.182C1681.43 552.182 1681.26 552.268 1681.17 552.425C1681.03 552.654 1681.11 552.955 1681.35 553.091L1778.13 608.926C1778.36 609.062 1778.66 608.983 1778.79 608.746C1778.93 608.517 1778.85 608.216 1778.62 608.08L1681.83 552.246C1681.76 552.203 1681.67 552.182 1681.59 552.182Z" fill="white" fill-opacity="0.03"/>
<path d="M1778.37 608.017C1778.11 608.017 1777.89 608.232 1777.89 608.504V720.172C1777.89 720.437 1778.1 720.659 1778.37 720.659C1778.64 720.659 1778.86 720.444 1778.86 720.172V608.504C1778.85 608.232 1778.64 608.017 1778.37 608.017Z" fill="white" fill-opacity="0.03"/>
<path d="M1391.27 384.673C1391.11 384.673 1390.94 384.759 1390.85 384.916C1390.71 385.146 1390.79 385.447 1391.03 385.583L1487.81 441.417C1488.04 441.546 1488.34 441.474 1488.47 441.238C1488.61 441.008 1488.53 440.708 1488.3 440.571L1391.51 384.737C1391.44 384.694 1391.35 384.673 1391.27 384.673Z" fill="white" fill-opacity="0.03"/>
<path d="M1488.05 440.514C1487.79 440.514 1487.57 440.729 1487.57 441.001V552.669C1487.57 552.934 1487.78 553.156 1488.05 553.156C1488.32 553.156 1488.54 552.941 1488.54 552.669V441.001C1488.53 440.729 1488.32 440.514 1488.05 440.514Z" fill="white" fill-opacity="0.03"/>
<path d="M1488.03 552.182C1487.94 552.182 1487.86 552.203 1487.79 552.246L1391.03 608.08C1390.8 608.216 1390.72 608.51 1390.85 608.747C1390.98 608.976 1391.28 609.055 1391.51 608.926L1488.27 553.091C1488.5 552.955 1488.59 552.662 1488.45 552.425C1488.36 552.268 1488.19 552.182 1488.03 552.182Z" fill="white" fill-opacity="0.03"/>
<path d="M1294.49 552.182C1294.32 552.182 1294.16 552.268 1294.07 552.425C1293.93 552.654 1294.01 552.955 1294.25 553.091L1391.03 608.926C1391.26 609.062 1391.56 608.983 1391.69 608.746C1391.83 608.517 1391.75 608.216 1391.51 608.08L1294.73 552.246C1294.65 552.203 1294.57 552.182 1294.49 552.182Z" fill="white" fill-opacity="0.03"/>
<path d="M1488.03 440.514C1487.77 440.514 1487.54 440.729 1487.54 441.001V552.669C1487.54 552.934 1487.76 553.156 1488.03 553.156C1488.3 553.156 1488.52 552.941 1488.52 552.669V440.994C1488.52 440.729 1488.3 440.514 1488.03 440.514Z" fill="white" fill-opacity="0.03"/>
<path d="M1584.81 384.673C1584.72 384.673 1584.65 384.694 1584.57 384.737L1487.79 440.571C1487.56 440.707 1487.48 441.001 1487.61 441.238C1487.74 441.467 1488.04 441.546 1488.27 441.417L1585.05 385.583C1585.28 385.447 1585.36 385.153 1585.23 384.916C1585.14 384.759 1584.97 384.673 1584.81 384.673Z" fill="white" fill-opacity="0.03"/>
<path d="M1584.81 384.673C1584.64 384.673 1584.48 384.759 1584.39 384.916C1584.25 385.146 1584.33 385.447 1584.57 385.583L1681.35 441.417C1681.58 441.546 1681.88 441.474 1682.01 441.238C1682.15 441.008 1682.07 440.708 1681.83 440.571L1585.05 384.737C1584.97 384.694 1584.89 384.673 1584.81 384.673Z" fill="white" fill-opacity="0.03"/>
<path d="M1681.59 440.514C1681.33 440.514 1681.1 440.729 1681.1 441.001V552.669C1681.1 552.934 1681.32 553.156 1681.59 553.156C1681.86 553.156 1682.08 552.941 1682.08 552.669V441.001C1682.07 440.729 1681.86 440.514 1681.59 440.514Z" fill="white" fill-opacity="0.03"/>
<path d="M1681.57 552.182C1681.48 552.182 1681.4 552.203 1681.33 552.246L1584.57 608.08C1584.34 608.216 1584.25 608.51 1584.39 608.747C1584.52 608.976 1584.82 609.055 1585.05 608.926L1681.81 553.091C1682.04 552.955 1682.12 552.662 1681.99 552.425C1681.9 552.268 1681.73 552.182 1681.57 552.182Z" fill="white" fill-opacity="0.03"/>
<path d="M1488.03 552.182C1487.87 552.182 1487.7 552.268 1487.61 552.425C1487.47 552.654 1487.55 552.955 1487.79 553.091L1584.57 608.926C1584.8 609.062 1585.1 608.983 1585.23 608.746C1585.37 608.517 1585.29 608.216 1585.05 608.08L1488.27 552.246C1488.2 552.203 1488.11 552.182 1488.03 552.182Z" fill="white" fill-opacity="0.03"/>
<path d="M1391.29 273.005C1391.02 273.005 1390.8 273.22 1390.8 273.492V385.16C1390.8 385.425 1391.01 385.647 1391.29 385.647C1391.55 385.647 1391.77 385.432 1391.77 385.16V273.492C1391.77 273.22 1391.56 273.005 1391.29 273.005Z" fill="white" fill-opacity="0.03"/>
<path d="M1391.27 273.005C1391.01 273.005 1390.78 273.22 1390.78 273.492V385.16C1390.78 385.425 1391 385.647 1391.27 385.647C1391.54 385.647 1391.76 385.432 1391.76 385.16V273.492C1391.75 273.22 1391.54 273.005 1391.27 273.005Z" fill="white" fill-opacity="0.03"/>
<path d="M1488.05 217.17C1487.97 217.17 1487.89 217.191 1487.81 217.234L1391.03 273.068C1390.8 273.205 1390.72 273.498 1390.85 273.735C1390.98 273.964 1391.28 274.043 1391.51 273.914L1488.29 218.08C1488.52 217.944 1488.61 217.65 1488.47 217.413C1488.38 217.256 1488.22 217.17 1488.05 217.17Z" fill="white" fill-opacity="0.03"/>
<path d="M1488.05 217.17C1487.89 217.17 1487.72 217.256 1487.63 217.413C1487.49 217.643 1487.57 217.944 1487.81 218.08L1584.59 273.914C1584.82 274.05 1585.12 273.971 1585.26 273.735C1585.39 273.505 1585.31 273.205 1585.08 273.069L1488.3 217.234C1488.22 217.191 1488.13 217.17 1488.05 217.17Z" fill="white" fill-opacity="0.03"/>
<path d="M1584.83 273.005C1584.56 273.005 1584.34 273.22 1584.34 273.492V385.16C1584.34 385.425 1584.55 385.647 1584.83 385.647C1585.09 385.647 1585.31 385.432 1585.31 385.16V273.492C1585.31 273.22 1585.1 273.005 1584.83 273.005Z" fill="white" fill-opacity="0.03"/>
<path d="M1584.81 384.673C1584.72 384.673 1584.65 384.694 1584.57 384.737L1487.81 440.571C1487.58 440.708 1487.5 441.001 1487.63 441.238C1487.76 441.467 1488.06 441.546 1488.29 441.417L1585.05 385.583C1585.28 385.447 1585.36 385.153 1585.23 384.916C1585.14 384.759 1584.97 384.673 1584.81 384.673Z" fill="white" fill-opacity="0.03"/>
<path d="M1391.27 384.673C1391.11 384.673 1390.94 384.759 1390.85 384.916C1390.71 385.146 1390.79 385.447 1391.03 385.583L1487.81 441.417C1488.04 441.546 1488.34 441.474 1488.47 441.238C1488.61 441.008 1488.53 440.708 1488.3 440.571L1391.51 384.737C1391.44 384.694 1391.35 384.673 1391.27 384.673Z" fill="white" fill-opacity="0.03"/>
<path d="M1584.81 273.005C1584.55 273.005 1584.33 273.22 1584.33 273.492V385.16C1584.33 385.425 1584.54 385.647 1584.81 385.647C1585.08 385.647 1585.3 385.432 1585.3 385.16V273.492C1585.29 273.22 1585.08 273.005 1584.81 273.005Z" fill="white" fill-opacity="0.03"/>
<path d="M1681.59 217.17C1681.51 217.17 1681.43 217.191 1681.35 217.234L1584.57 273.068C1584.34 273.205 1584.25 273.498 1584.39 273.735C1584.52 273.964 1584.82 274.043 1585.05 273.914L1681.84 218.08C1682.06 217.944 1682.14 217.65 1682.01 217.413C1681.92 217.256 1681.76 217.17 1681.59 217.17Z" fill="white" fill-opacity="0.03"/>
<path d="M1681.59 217.17C1681.43 217.17 1681.26 217.256 1681.17 217.413C1681.03 217.643 1681.11 217.944 1681.35 218.08L1778.13 273.914C1778.36 274.05 1778.66 273.971 1778.79 273.735C1778.93 273.505 1778.85 273.205 1778.62 273.069L1681.83 217.234C1681.76 217.191 1681.67 217.17 1681.59 217.17Z" fill="white" fill-opacity="0.03"/>
<path d="M1778.37 273.005C1778.11 273.005 1777.89 273.22 1777.89 273.492V385.16C1777.89 385.425 1778.1 385.647 1778.37 385.647C1778.64 385.647 1778.86 385.432 1778.86 385.16V273.492C1778.85 273.22 1778.64 273.005 1778.37 273.005Z" fill="white" fill-opacity="0.03"/>
<path d="M1778.35 384.673C1778.27 384.673 1778.19 384.694 1778.11 384.737L1681.35 440.571C1681.12 440.708 1681.03 441.001 1681.17 441.238C1681.31 441.467 1681.6 441.546 1681.84 441.417L1778.59 385.583C1778.82 385.447 1778.9 385.153 1778.77 384.916C1778.68 384.759 1778.52 384.673 1778.35 384.673Z" fill="white" fill-opacity="0.03"/>
<path d="M1584.81 384.673C1584.65 384.673 1584.48 384.759 1584.39 384.916C1584.25 385.146 1584.33 385.447 1584.57 385.583L1681.35 441.417C1681.58 441.546 1681.88 441.474 1682.01 441.238C1682.15 441.008 1682.07 440.708 1681.83 440.571L1585.05 384.737C1584.97 384.694 1584.89 384.673 1584.81 384.673Z" fill="white" fill-opacity="0.03"/>
<path d="M1488.53 117V217.658C1488.53 217.923 1488.32 218.145 1488.04 218.145C1487.78 218.145 1487.56 217.93 1487.56 217.658V117H1488.53Z" fill="white" fill-opacity="0.03"/>
<path d="M1488.03 217.17C1487.94 217.17 1487.86 217.191 1487.79 217.234L1391.03 273.068C1390.8 273.205 1390.72 273.498 1390.85 273.735C1390.98 273.964 1391.28 274.043 1391.51 273.914L1488.27 218.08C1488.5 217.944 1488.59 217.65 1488.45 217.413C1488.36 217.256 1488.19 217.17 1488.03 217.17Z" fill="white" fill-opacity="0.03"/>
<path d="M1488.52 117V217.658C1488.52 217.923 1488.3 218.145 1488.03 218.145C1487.77 218.145 1487.54 217.93 1487.54 217.658V117H1488.52Z" fill="white" fill-opacity="0.03"/>
<path d="M1682.07 117V217.658C1682.07 217.923 1681.86 218.145 1681.59 218.145C1681.32 218.145 1681.1 217.93 1681.1 217.658V117H1682.07Z" fill="white" fill-opacity="0.03"/>
<path d="M1681.57 217.17C1681.48 217.17 1681.4 217.191 1681.33 217.234L1584.57 273.068C1584.34 273.205 1584.25 273.498 1584.39 273.735C1584.52 273.964 1584.82 274.043 1585.05 273.914L1681.81 218.08C1682.04 217.944 1682.12 217.65 1681.99 217.413C1681.9 217.256 1681.73 217.17 1681.57 217.17Z" fill="white" fill-opacity="0.03"/>
<path d="M1488.03 217.17C1487.87 217.17 1487.7 217.256 1487.61 217.413C1487.47 217.643 1487.55 217.944 1487.79 218.08L1584.57 273.914C1584.8 274.05 1585.1 273.971 1585.23 273.735C1585.37 273.505 1585.29 273.205 1585.05 273.069L1488.27 217.234C1488.2 217.191 1488.11 217.17 1488.03 217.17Z" fill="white" fill-opacity="0.03"/>
<path d="M1951.4 243.316H1953.34L1876.68 287.545C1876.45 287.674 1876.14 287.603 1876.01 287.366C1875.87 287.137 1875.95 286.836 1876.19 286.7L1951.4 243.316Z" fill="white" fill-opacity="0.03"/>
<path d="M1961.53 444.553L1876.17 395.302C1875.94 395.166 1875.85 394.873 1875.99 394.636C1876.08 394.479 1876.24 394.393 1876.41 394.393C1876.5 394.393 1876.57 394.414 1876.65 394.457L1961.53 443.435V444.553Z" fill="white" fill-opacity="0.03"/>
<path d="M1876.41 286.636C1876.14 286.636 1875.92 286.851 1875.92 287.123V394.88C1875.92 395.145 1876.14 395.367 1876.41 395.367C1876.67 395.367 1876.9 395.152 1876.9 394.88V287.123C1876.9 286.858 1876.67 286.636 1876.41 286.636Z" fill="white" fill-opacity="0.03"/>
<path d="M1951.38 243.316H1953.32L1876.67 287.545C1876.44 287.674 1876.14 287.603 1876 287.366C1875.87 287.137 1875.94 286.836 1876.18 286.7L1951.38 243.316Z" fill="white" fill-opacity="0.03"/>
<path d="M1876.43 286.636C1876.17 286.636 1875.94 286.851 1875.94 287.123V394.88C1875.94 395.145 1876.16 395.367 1876.43 395.367C1876.7 395.367 1876.92 395.152 1876.92 394.88V287.123C1876.91 286.858 1876.7 286.636 1876.43 286.636Z" fill="white" fill-opacity="0.03"/>
<path d="M1876.43 394.393C1876.35 394.393 1876.27 394.414 1876.19 394.457L1782.8 448.335C1782.57 448.472 1782.48 448.765 1782.62 449.002C1782.75 449.231 1783.05 449.31 1783.29 449.181L1876.67 395.302C1876.9 395.166 1876.98 394.873 1876.85 394.636C1876.76 394.486 1876.6 394.393 1876.43 394.393Z" fill="white" fill-opacity="0.03"/>
<path d="M1961.53 561.852L1876.67 610.816C1876.44 610.952 1876.14 610.873 1876 610.637C1875.86 610.408 1875.94 610.107 1876.18 609.971L1961.53 560.734V561.852Z" fill="white" fill-opacity="0.03"/>
<path d="M1783.04 556.027C1782.88 556.027 1782.71 556.113 1782.62 556.271C1782.48 556.5 1782.56 556.801 1782.8 556.937L1876.19 610.816C1876.42 610.952 1876.72 610.873 1876.85 610.636C1876.99 610.407 1876.91 610.106 1876.67 609.97L1783.28 556.092C1783.21 556.049 1783.12 556.027 1783.04 556.027Z" fill="white" fill-opacity="0.03"/>
<path d="M1783.04 448.271C1782.78 448.271 1782.56 448.485 1782.56 448.758V556.514C1782.56 556.779 1782.77 557.002 1783.04 557.002C1783.31 557.002 1783.53 556.787 1783.53 556.514V448.758C1783.53 448.493 1783.31 448.271 1783.04 448.271Z" fill="white" fill-opacity="0.03"/>
<path d="M1876.43 394.393C1876.35 394.393 1876.27 394.414 1876.19 394.457L1782.82 448.335C1782.59 448.472 1782.5 448.765 1782.64 449.002C1782.78 449.231 1783.07 449.31 1783.31 449.181L1876.67 395.302C1876.9 395.166 1876.98 394.873 1876.85 394.636C1876.76 394.486 1876.6 394.393 1876.43 394.393Z" fill="white" fill-opacity="0.03"/>
<path d="M1961.53 444.546L1876.18 395.302C1875.95 395.166 1875.87 394.873 1876 394.636C1876.09 394.479 1876.25 394.393 1876.42 394.393C1876.51 394.393 1876.59 394.414 1876.67 394.457L1961.53 443.421V444.546Z" fill="white" fill-opacity="0.03"/>
<path d="M1783.06 448.271C1782.8 448.271 1782.58 448.485 1782.58 448.758V556.514C1782.58 556.779 1782.79 557.002 1783.06 557.002C1783.33 557.002 1783.55 556.787 1783.55 556.514V448.758C1783.54 448.493 1783.33 448.271 1783.06 448.271Z" fill="white" fill-opacity="0.03"/>
<path d="M1961.53 767.823L1876.17 718.573C1875.94 718.437 1875.85 718.143 1875.99 717.907C1876.08 717.749 1876.24 717.663 1876.41 717.663C1876.5 717.663 1876.57 717.685 1876.65 717.728L1961.53 766.699V767.823Z" fill="white" fill-opacity="0.03"/>
<path d="M1876.41 609.905C1876.14 609.905 1875.92 610.12 1875.92 610.392V718.149C1875.92 718.414 1876.14 718.636 1876.41 718.636C1876.67 718.636 1876.9 718.421 1876.9 718.149V610.392C1876.9 610.127 1876.67 609.905 1876.41 609.905Z" fill="white" fill-opacity="0.03"/>
<path d="M1961.53 561.844L1876.67 610.816C1876.44 610.952 1876.14 610.873 1876 610.637C1875.86 610.407 1875.94 610.106 1876.18 609.97L1961.53 560.72V561.844Z" fill="white" fill-opacity="0.03"/>
<path d="M1876.43 609.905C1876.17 609.905 1875.94 610.12 1875.94 610.392V718.149C1875.94 718.414 1876.16 718.636 1876.43 718.636C1876.7 718.636 1876.92 718.421 1876.92 718.149V610.392C1876.91 610.127 1876.7 609.905 1876.43 609.905Z" fill="white" fill-opacity="0.03"/>
<path d="M1876.43 717.663C1876.35 717.663 1876.27 717.685 1876.19 717.728L1782.8 771.606C1782.57 771.742 1782.48 772.036 1782.62 772.272C1782.75 772.501 1783.05 772.58 1783.29 772.451L1876.67 718.573C1876.9 718.437 1876.98 718.143 1876.85 717.907C1876.76 717.749 1876.6 717.663 1876.43 717.663Z" fill="white" fill-opacity="0.03"/>
<path d="M1783.04 556.027C1782.88 556.027 1782.71 556.113 1782.62 556.271C1782.48 556.5 1782.56 556.801 1782.8 556.937L1876.19 610.816C1876.42 610.952 1876.72 610.873 1876.85 610.636C1876.99 610.407 1876.91 610.106 1876.67 609.97L1783.28 556.092C1783.21 556.049 1783.12 556.027 1783.04 556.027Z" fill="white" fill-opacity="0.03"/>
<path d="M1876.43 717.663C1876.35 717.663 1876.27 717.685 1876.19 717.728L1782.82 771.606C1782.59 771.742 1782.5 772.036 1782.64 772.272C1782.78 772.501 1783.07 772.58 1783.31 772.451L1876.67 718.573C1876.9 718.437 1876.98 718.143 1876.85 717.907C1876.76 717.749 1876.6 717.663 1876.43 717.663Z" fill="white" fill-opacity="0.03"/>
<path d="M1961.53 767.816L1876.18 718.573C1875.95 718.437 1875.87 718.143 1876 717.907C1876.09 717.749 1876.25 717.663 1876.42 717.663C1876.51 717.663 1876.59 717.685 1876.67 717.728L1961.53 766.692V767.816Z" fill="white" fill-opacity="0.03"/>
</svg>
