<svg width="139" height="147" viewBox="0 0 139 147" fill="none" xmlns="http://www.w3.org/2000/svg">
<path opacity="0.7" d="M17.9336 74.5514C17.9336 74.5514 19.7091 94.3445 36.9986 106.694C54.2869 119.047 77.2481 118.796 95.8643 119.084C114.481 119.373 128.121 108.119 129.355 92.1194C130.589 76.1198 116.152 72.1962 107.427 54.5127C98.7018 36.8292 99.0453 30.849 82.1407 20.5758C65.2361 10.3025 40.1796 18.4587 27.931 38.2101C15.6823 57.9616 17.9336 74.5514 17.9336 74.5514Z" fill="#FBF3EC"/>
<g clip-path="url(#clip0)">
<path d="M52.5765 118.569H44.2987V90.5802C44.2987 82.7294 50.6834 76.3652 58.5595 76.3652H86.4398C94.3159 76.3652 100.701 82.7294 100.701 90.5802V118.569H69.3522" fill="#80B4FB"/>
<path d="M72.4996 88.2569L62.4263 76.3652H82.573L72.4996 88.2569Z" fill="#FAF7F5"/>
<path d="M60.9978 120.419C60.2113 120.419 59.4953 119.904 59.2425 119.163C58.9973 118.445 59.2297 117.62 59.8215 117.14C60.4321 116.644 61.3079 116.588 61.9779 117C62.6266 117.399 62.968 118.185 62.8178 118.93C62.646 119.783 61.8727 120.419 60.9978 120.419Z" fill="black"/>
<path d="M86.4398 74.5156H58.5595C49.6729 74.5156 42.4433 81.7221 42.4433 90.5802V118.569C42.4433 119.591 43.274 120.419 44.2987 120.419H52.5765C53.6013 120.419 54.432 119.591 54.432 118.569C54.432 117.548 53.6013 116.72 52.5765 116.72H46.1542V90.5802C46.1542 83.7617 51.7191 78.2147 58.5595 78.2147H61.5644L71.0819 89.4501C71.4344 89.8662 71.953 90.1063 72.4996 90.1063C73.0461 90.1063 73.5649 89.8662 73.9174 89.4501L83.4348 78.2147H86.4398C93.2801 78.2147 98.8451 83.7617 98.8451 90.5802V116.72H69.3524C68.3276 116.72 67.4969 117.548 67.4969 118.569C67.4969 119.591 68.3276 120.419 69.3524 120.419H100.701C101.725 120.419 102.556 119.591 102.556 118.569V90.5802C102.556 81.7221 95.3262 74.5156 86.4398 74.5156ZM72.4996 85.39L66.4213 78.2147H78.578L72.4996 85.39Z" fill="black"/>
<path d="M72.4995 69.141C60.4907 69.141 50.7209 59.4026 50.7209 47.4323C50.7209 35.4621 60.4907 25.7236 72.4995 25.7236C84.5083 25.7236 94.2781 35.4621 94.2781 47.4323C94.2781 59.4026 84.5083 69.141 72.4995 69.141ZM72.4995 29.4227C62.5369 29.4227 54.4319 37.5017 54.4319 47.4323C54.4319 57.3629 62.5369 65.442 72.4995 65.442C82.4621 65.442 90.5671 57.3629 90.5671 47.4323C90.5671 37.5017 82.4621 29.4227 72.4995 29.4227Z" fill="black"/>
</g>
<defs>
<clipPath id="clip0">
<rect width="95" height="94.6952" fill="white" transform="translate(24.9998 25.7236)"/>
</clipPath>
</defs>
</svg>
