<svg width="139" height="147" viewBox="0 0 139 147" fill="none" xmlns="http://www.w3.org/2000/svg">
<path opacity="0.7" d="M17.9333 74.5514C17.9333 74.5514 19.7089 94.3445 36.9983 106.694C54.2867 119.047 77.2479 118.796 95.8641 119.084C114.48 119.373 128.12 108.119 129.355 92.1194C130.589 76.1198 116.151 72.1962 107.427 54.5127C98.7016 36.8292 99.0451 30.849 82.1404 20.5758C65.2358 10.3025 40.1793 18.4587 27.9307 38.2101C15.6821 57.9616 17.9333 74.5514 17.9333 74.5514Z" fill="#FBF3EC"/>
<g clip-path="url(#clip0)">
<path d="M111.992 79.0884L108.142 77.8552C107.22 77.5602 106.505 76.8326 106.214 75.9098C101.784 61.8205 85.3309 55.3501 68.7702 55.3501C49.3952 55.3501 33.6886 64.2039 33.6886 83.7561C33.6886 95.0247 39.2155 102.917 47.7546 107.476C47.9646 107.588 48.1143 107.787 48.1592 108.021L50.0723 117.958C50.2495 118.894 51.0676 119.572 52.0202 119.572H58.4803C59.433 119.572 60.2511 118.894 60.4283 117.958L61.474 112.433C61.5511 112.026 61.931 111.751 62.343 111.799C64.4266 112.041 66.5746 112.162 68.77 112.162C71.7044 112.162 74.6351 111.946 77.4966 111.513C77.917 111.45 78.3134 111.726 78.3925 112.144L79.493 117.958C79.6702 118.894 80.4883 119.572 81.4409 119.572H87.901C88.8537 119.572 89.6718 118.894 89.849 117.958L91.836 107.437C91.8808 107.2 92.0336 106.997 92.2482 106.886C97.3192 104.249 101.515 100.622 104.19 95.9974C104.547 95.3811 105.111 94.9116 105.789 94.6944L111.992 92.7074C113.565 92.2036 114.632 90.7415 114.632 89.0902V82.7056C114.632 81.0541 113.565 79.592 111.992 79.0884Z" fill="#DEF6FC" fill-opacity="0.9"/>
<path d="M114.148 80.8566C113.98 80.5568 113.775 80.2796 113.533 80.0352C113.528 80.0301 113.523 80.0242 113.518 80.0191C113.1 79.6012 112.582 79.2775 111.992 79.0886L109.138 78.1743V81.5321C109.138 85.7035 106.48 89.4114 102.529 90.7512C100.733 91.3266 99.1794 92.4649 98.0413 93.9693C96.6478 95.8114 94.9918 97.4667 93.1254 98.936C90.9252 100.668 89.441 103.147 89.0169 105.914C88.7146 107.888 88.4801 110.541 88.3308 112.033C88.2159 113.181 87.2511 114.055 86.0976 114.055H82.9001C81.9475 114.055 81.1294 113.377 80.9522 112.441L79.8517 106.08C79.7726 105.662 79.3764 105.385 78.956 105.449C76.0947 105.881 71.7046 106.098 68.7702 106.098C66.5748 106.098 62.6027 105.977 60.5191 105.735C60.1072 105.687 59.7273 105.962 59.65 106.369L58.6043 112.259C58.4271 113.195 57.609 113.872 56.6563 113.872H53.4794C52.5268 113.872 51.7087 113.195 51.5315 112.259L49.9832 103.051C49.9383 102.818 49.7886 102.618 49.5788 102.506C41.8192 98.3641 34.724 90.3734 33.8259 80.6934C33.8259 80.6936 33.8259 80.6938 33.8259 80.694C33.8046 80.9315 33.7859 81.1709 33.7692 81.4118C33.7688 81.4166 33.7686 81.4214 33.7682 81.4261C33.7666 81.45 33.7651 81.4739 33.7637 81.4975C33.7493 81.7142 33.7369 81.9321 33.7266 82.1513C33.7223 82.2424 33.7194 82.3344 33.7161 82.4258C33.7097 82.593 33.7031 82.7601 33.6988 82.929C33.6926 83.2028 33.6884 83.4782 33.6884 83.7563C33.6884 85.1648 33.7747 86.5207 33.9425 87.8238C34.1481 89.4204 34.4771 90.937 34.9183 92.3757C34.9423 92.4542 34.9675 92.5323 34.9923 92.6105C35.0536 92.804 35.1173 92.9968 35.1832 93.1886C35.2095 93.2652 35.2355 93.3419 35.2623 93.4181C35.4437 93.9303 35.6402 94.4319 35.8509 94.923C35.8733 94.9752 35.8955 95.0273 35.9183 95.0793C36.0222 95.3168 36.1291 95.5524 36.2398 95.785C36.2581 95.8236 36.2772 95.8616 36.2956 95.8999C36.3988 96.114 36.5054 96.3264 36.6145 96.5375C36.6332 96.5737 36.6516 96.6102 36.6705 96.6464C36.7895 96.873 36.9123 97.0968 37.0379 97.3184C37.0652 97.3665 37.0928 97.4144 37.1205 97.4623C37.5271 98.1686 37.9667 98.8492 38.4378 99.5044C38.4828 99.567 38.5287 99.6291 38.5744 99.6911C38.6887 99.847 38.805 100.001 38.9228 100.154C38.9693 100.215 39.0154 100.275 39.0624 100.335C39.2219 100.538 39.3835 100.739 39.5492 100.936C39.5507 100.938 39.5524 100.94 39.5538 100.942C39.7198 101.14 39.8898 101.334 40.0618 101.527C40.114 101.585 40.167 101.643 40.2197 101.7C40.3482 101.842 40.4784 101.981 40.6102 102.119C40.6635 102.175 40.7164 102.231 40.77 102.286C40.9504 102.472 41.1329 102.656 41.3193 102.837C41.3196 102.837 41.3202 102.838 41.3206 102.838C41.5282 103.039 41.7395 103.237 41.9545 103.432C42.3843 103.821 42.8282 104.197 43.2857 104.56C43.7433 104.924 44.2145 105.274 44.6987 105.611C44.9408 105.779 45.1861 105.944 45.4347 106.106C45.6585 106.252 45.8856 106.395 46.1144 106.535C46.1801 106.576 46.2466 106.615 46.3128 106.655C46.4858 106.759 46.6596 106.862 46.8344 106.963C46.9036 107.003 46.9727 107.044 47.0424 107.083C47.2778 107.216 47.5146 107.348 47.7548 107.476C47.8073 107.505 47.8559 107.538 47.9002 107.576C47.94 107.61 47.9749 107.649 48.0069 107.69C48.0164 107.703 48.0247 107.715 48.0333 107.728C48.0553 107.76 48.0746 107.793 48.0917 107.828C48.0985 107.842 48.1056 107.856 48.1117 107.87C48.1319 107.919 48.149 107.969 48.1592 108.022L50.0723 117.959C50.0945 118.075 50.1266 118.189 50.1678 118.297C50.1883 118.351 50.2113 118.403 50.2362 118.455C50.2612 118.507 50.2884 118.557 50.3174 118.606C50.3464 118.654 50.3776 118.702 50.4107 118.748C50.4439 118.794 50.479 118.838 50.5157 118.881C50.5573 118.93 50.602 118.975 50.648 119.02C50.6625 119.034 50.678 119.047 50.693 119.06C50.7263 119.09 50.7602 119.119 50.7955 119.147C50.8131 119.161 50.8311 119.174 50.8493 119.188C50.8854 119.214 50.9225 119.239 50.9603 119.263C50.9774 119.274 50.9941 119.285 51.0116 119.296C51.0665 119.328 51.1226 119.359 51.1806 119.386C51.1816 119.386 51.1823 119.387 51.1832 119.387C51.2412 119.414 51.3011 119.438 51.3619 119.459C51.3811 119.466 51.4008 119.471 51.4202 119.478C51.4636 119.491 51.5074 119.504 51.5519 119.515C51.5743 119.52 51.5969 119.525 51.6196 119.53C51.6646 119.539 51.7101 119.547 51.7562 119.553C51.777 119.555 51.7975 119.559 51.8185 119.561C51.8847 119.568 51.9516 119.572 52.0193 119.572C52.0197 119.572 52.02 119.572 52.0202 119.572H58.4803C58.7781 119.572 59.0627 119.506 59.3186 119.386C59.4211 119.338 59.5187 119.282 59.6111 119.218C59.7033 119.154 59.7901 119.082 59.8701 119.003C59.9904 118.885 60.0958 118.752 60.1832 118.605C60.2996 118.41 60.384 118.192 60.4283 117.958L61.474 112.434V112.434C61.4826 112.388 61.4964 112.344 61.5124 112.302C61.5172 112.289 61.5227 112.277 61.5282 112.265C61.5416 112.235 61.5564 112.206 61.5733 112.178C61.5799 112.166 61.5864 112.155 61.5935 112.144C61.6179 112.108 61.6442 112.073 61.6739 112.042C61.7549 111.956 61.8561 111.892 61.9668 111.85C61.9774 111.845 61.9881 111.842 61.9989 111.838C62.0255 111.829 62.0522 111.821 62.0797 111.815C62.1006 111.81 62.1221 111.807 62.1436 111.804C62.1643 111.801 62.1847 111.798 62.2058 111.797C62.2508 111.794 62.2965 111.794 62.343 111.8C62.6901 111.84 63.0399 111.876 63.3907 111.909C63.4785 111.918 63.5664 111.926 63.6544 111.934C64.005 111.966 64.3568 111.995 64.7108 112.021C64.7124 112.021 64.7143 112.021 64.7159 112.021C65.0699 112.046 65.4259 112.067 65.783 112.085C65.8729 112.09 65.9629 112.094 66.053 112.099C66.4116 112.115 66.7712 112.13 67.1327 112.14C67.6754 112.155 68.2213 112.163 68.7702 112.163C69.5039 112.163 70.2371 112.149 70.9693 112.122C71.3442 112.109 71.7187 112.091 72.0927 112.07C72.1307 112.068 72.1687 112.065 72.2067 112.063C72.5466 112.043 72.886 112.021 73.2249 111.995C73.2328 111.995 73.2407 111.994 73.2486 111.993C73.9918 111.937 74.7326 111.866 75.4699 111.782C75.4721 111.782 75.4745 111.781 75.4767 111.781C75.814 111.742 76.1503 111.701 76.4861 111.657C76.6484 111.635 76.81 111.611 76.9717 111.588C77.1498 111.563 77.3283 111.539 77.5058 111.512C77.8656 111.458 78.2053 111.66 78.3422 111.983C78.3441 111.987 78.3468 111.991 78.3485 111.995C78.3676 112.042 78.3825 112.092 78.3924 112.144L78.9426 115.052L79.4928 117.959C79.67 118.895 80.4881 119.572 81.4408 119.572H87.9009C87.9012 119.572 87.9016 119.572 87.9018 119.572C87.9695 119.572 88.0364 119.568 88.1026 119.561C88.1236 119.559 88.1441 119.556 88.1649 119.553C88.2108 119.547 88.2565 119.539 88.3015 119.53C88.3241 119.526 88.3466 119.52 88.369 119.515C88.4136 119.504 88.4573 119.492 88.5009 119.478C88.5203 119.472 88.54 119.466 88.559 119.459C88.6202 119.438 88.6802 119.414 88.7386 119.387C88.739 119.387 88.7392 119.387 88.7395 119.387C88.7979 119.359 88.8543 119.329 88.9095 119.296C88.927 119.286 88.9437 119.274 88.9608 119.263C88.9988 119.239 89.0358 119.214 89.072 119.188C89.09 119.174 89.1078 119.161 89.1254 119.147C89.1607 119.119 89.1948 119.09 89.2281 119.06C89.2429 119.047 89.2584 119.034 89.2729 119.02C89.3189 118.976 89.3636 118.93 89.4052 118.881C89.4216 118.862 89.4363 118.842 89.4519 118.822C89.5066 118.753 89.5582 118.682 89.6037 118.606C89.6619 118.508 89.7122 118.405 89.7533 118.297C89.7945 118.189 89.8268 118.076 89.8488 117.959L90.2843 115.653L90.7368 113.257L91.0207 111.755L91.836 107.438L91.9091 107.051C92.0429 106.984 92.0969 106.958 92.2307 106.891C92.2359 106.893 92.239 106.892 92.2416 106.891C92.244 106.889 92.2458 106.888 92.2482 106.886C92.4031 106.806 92.5546 106.721 92.7079 106.639C92.8682 106.553 93.0303 106.469 93.1889 106.38C93.3262 106.304 93.4603 106.224 93.5963 106.146C93.7674 106.047 93.94 105.951 94.1087 105.851C94.2477 105.768 94.383 105.681 94.5203 105.597C94.6823 105.497 94.8459 105.4 95.0056 105.298C95.1488 105.207 95.2881 105.112 95.4295 105.018C95.5795 104.92 95.7315 104.823 95.8795 104.722C96.0192 104.627 96.1549 104.527 96.2928 104.43C96.4382 104.328 96.5856 104.227 96.7286 104.123C96.8621 104.025 96.9915 103.924 97.123 103.825C97.2664 103.716 97.4118 103.61 97.5529 103.5C97.6805 103.4 97.8041 103.296 97.9297 103.195C98.0701 103.081 98.2126 102.969 98.3507 102.854C98.4777 102.747 98.6002 102.637 98.725 102.529C98.8572 102.414 98.9916 102.301 99.1214 102.184C99.2426 102.075 99.359 101.963 99.4779 101.852C99.6068 101.732 99.7379 101.614 99.8642 101.491C99.9795 101.38 100.09 101.265 100.203 101.151C100.329 101.026 100.456 100.903 100.578 100.775C100.689 100.66 100.796 100.54 100.905 100.422C101.024 100.294 101.145 100.167 101.261 100.036C101.367 99.9168 101.469 99.7938 101.572 99.6728C101.686 99.5397 101.803 99.4086 101.914 99.2735C102.015 99.1506 102.111 99.024 102.21 98.8991C102.318 98.762 102.429 98.6267 102.535 98.4873C102.632 98.3593 102.723 98.2275 102.818 98.0977C102.92 97.958 103.024 97.8199 103.122 97.678C103.215 97.5453 103.302 97.4089 103.391 97.2743C103.487 97.1313 103.584 96.9901 103.677 96.8451C103.791 96.665 103.896 96.4782 104.01 96.2983C104.078 96.1915 104.142 96.0822 104.205 95.9728C104.554 95.3723 105.105 94.9148 105.766 94.7029L105.789 94.6957H105.789L108.954 93.6821L111.992 92.7089C113.565 92.2051 114.632 90.743 114.632 89.0917V82.7058C114.632 82.1416 114.505 81.6007 114.278 81.1114C114.238 81.0248 114.194 80.9398 114.148 80.8566Z" fill="#FFBD86"/>
<path d="M83.8187 58.7986C84.0152 57.866 84.6603 57.0905 85.5269 56.6939C88.8565 55.1699 97.34 51.5022 99.5207 52.6447C102.252 54.0753 100.821 69.5188 96.6596 71.876C92.6398 74.1526 80.9761 72.2889 83.8187 58.7986Z" fill="#FFBD86"/>
<path d="M64.3508 64.7939C73.9074 64.7939 81.6545 57.0468 81.6545 47.4902C81.6545 37.9337 73.9074 30.1865 64.3508 30.1865C54.7942 30.1865 47.0471 37.9337 47.0471 47.4902C47.0471 57.0468 54.7942 64.7939 64.3508 64.7939Z" fill="#FCF7F2"/>
<path d="M98.3628 54.4341C96.4637 54.4341 91.8653 55.999 86.3619 58.5183C86.0613 58.6558 85.8445 58.9154 85.7819 59.2123C84.98 63.0186 85.4088 66.082 87.0226 68.0711C87.2114 68.3037 87.4183 68.5225 87.6412 68.7272C87.9008 68.9657 88.3192 68.8321 88.4055 68.4904C90.3183 60.9155 99.6004 54.4341 98.3628 54.4341Z" fill="#FFAA63"/>
<path d="M76.7985 35.4717L52.3328 59.9376C59.1059 66.4814 69.9008 66.4114 76.5866 59.7257C83.2724 53.0399 83.3423 42.2448 76.7985 35.4717Z" fill="#FDEAD7"/>
<path d="M63.9531 56.0757C60.9628 56.0275 58.937 54.4116 58.937 53.23C58.937 52.6512 59.4433 51.8553 60.0463 51.8553C60.8421 51.8553 61.4932 53.5434 63.9531 53.7364V48.069C61.7827 47.2974 59.371 46.4292 59.371 43.3422C59.371 40.3036 61.6621 39.0977 63.9531 38.8565V38.1572C63.9531 37.8678 64.2425 37.6025 64.6526 37.6025C65.0143 37.6025 65.3762 37.8678 65.3762 38.1572V38.8084C67.016 38.8567 69.3313 39.363 69.3313 40.5448C69.3313 41.0031 68.9937 41.9194 68.2702 41.9194C67.6915 41.9194 67.0643 41.1477 65.3762 41.0271V45.9226C67.4743 46.6943 69.7654 47.7555 69.7654 51.0354C69.7654 54.0017 67.9808 55.6415 65.3762 56.0034V56.8233C65.3762 57.1127 65.0145 57.378 64.6526 57.378C64.2427 57.378 63.9531 57.1127 63.9531 56.8233V56.0757ZM64.098 45.4644V41.0754C62.7475 41.2441 61.7829 41.847 61.7829 43.1012C61.7827 44.4757 62.8196 44.9821 64.098 45.4644ZM65.2313 48.5996V53.6881C66.5335 53.4469 67.3535 52.6752 67.3535 51.3005C67.3537 49.7812 66.4131 49.106 65.2313 48.5996Z" fill="#292929"/>
<path d="M100.936 78.93C100.936 78.1743 100.324 77.562 99.5684 77.562C98.8129 77.562 98.2005 78.1745 98.2005 78.93C98.2005 79.8878 97.4213 80.6669 96.4635 80.6669C95.5059 80.6669 94.7265 79.8878 94.7265 78.93C94.7265 78.1743 94.114 77.562 93.3586 77.562C92.6031 77.562 91.9906 78.1745 91.9906 78.93C91.9906 81.3964 93.9973 83.4029 96.4635 83.4029C98.9297 83.4029 100.936 81.3962 100.936 78.93Z" fill="black"/>
<path d="M112.409 77.7856L108.559 76.5522C108.066 76.3941 107.677 76.0005 107.519 75.4991C106.708 72.919 105.483 70.4969 103.88 68.2996C103.149 67.2981 102.336 66.3418 101.448 65.4314C101.448 65.4315 101.448 65.4315 101.448 65.4315C102.016 62.9396 102.325 60.1194 102.285 57.6828C102.227 54.1973 101.531 52.1529 100.155 51.4325C99.4146 51.044 97.16 49.8639 84.9571 55.4499C84.6681 55.5821 84.3983 55.745 84.1484 55.9315C83.3257 55.7104 82.4848 55.5059 81.6388 55.3223C81.5369 55.3001 81.4319 55.2805 81.3293 55.2588C82.3181 53.0986 82.8955 50.7525 83.004 48.3305C83.0378 47.5756 82.4534 46.9363 81.6985 46.9027C80.9456 46.8653 80.3043 47.4531 80.2707 48.2081C80.0924 52.1904 78.4405 55.9374 75.6194 58.7586C73.9338 60.4442 71.9601 61.6686 69.8567 62.4397C66.2089 61.9278 62.4933 61.9278 58.8455 62.4397C56.7419 61.6686 54.7684 60.4442 53.0828 58.7586C50.073 55.7488 48.4153 51.747 48.4153 47.4904C48.4153 43.2336 50.073 39.232 53.0828 36.2221C56.0927 33.2121 60.0947 31.5545 64.3511 31.5545C68.6075 31.5545 72.6095 33.2121 75.6194 36.2221C76.8289 37.4317 77.8284 38.8119 78.5901 40.3242C78.9299 40.9991 79.7526 41.2708 80.4273 40.9308C81.1022 40.5911 81.3737 39.7684 81.0339 39.0937C80.1411 37.3204 78.9703 35.7035 77.5542 34.2873C74.0276 30.7606 69.3386 28.8184 64.3513 28.8184C59.364 28.8184 54.675 30.7606 51.1483 34.2873C47.6217 37.8141 45.6794 42.5029 45.6794 47.4902C45.6794 52.4775 47.6217 57.1665 51.1483 60.6932C52.1656 61.7105 53.2723 62.5853 54.4429 63.3182C54.4433 63.3182 54.4436 63.318 54.444 63.318C53.5934 63.5391 52.7493 63.7873 51.9145 64.0663C51.1979 64.3059 50.8112 65.0809 51.0508 65.7976C51.2902 66.5142 52.0656 66.9008 52.7819 66.6614C60.2425 64.1673 68.4601 64.1673 75.9206 66.6614C76.0646 66.7095 76.2107 66.7323 76.3545 66.7323C76.9267 66.7323 77.4602 66.3703 77.6517 65.7976C77.8913 65.0811 77.5047 64.3059 76.7881 64.0663C75.9533 63.7873 75.1091 63.5389 74.2586 63.318C74.2589 63.318 74.2593 63.3182 74.2597 63.3182C75.4304 62.5853 76.537 61.7105 77.5542 60.6932C78.4542 59.7932 79.2486 58.8104 79.9384 57.766C80.3155 57.8392 80.6898 57.9159 81.0587 57.996C81.55 58.1027 82.0391 58.2172 82.5238 58.3375C82.5085 58.397 82.4929 58.4563 82.4803 58.5167C81.8131 61.6827 81.8564 64.4829 82.6089 66.839C83.2853 68.9567 84.506 70.6724 86.2368 71.9387C88.2767 73.4309 90.7394 74.0755 92.9702 74.0755C94.6492 74.0755 96.1971 73.7102 97.3339 73.0663C98.6198 72.338 99.6971 70.8033 100.55 68.4992C100.944 68.9593 101.318 69.4306 101.67 69.9131C103.098 71.8691 104.188 74.0248 104.91 76.3201C105.333 77.6683 106.386 78.7291 107.724 79.1581L111.575 80.3915C112.585 80.7152 113.264 81.6451 113.264 82.7059V89.0904C113.264 90.1512 112.585 91.0811 111.575 91.4047L105.371 93.3918C104.379 93.7099 103.539 94.392 103.006 95.3125C100.569 99.5245 96.7372 103.01 91.6166 105.672C91.0251 105.98 90.6153 106.531 90.4919 107.183L88.5051 117.704C88.4502 117.994 88.1963 118.204 87.9012 118.204H81.4411C81.1461 118.204 80.8922 117.994 80.8373 117.704L79.7368 111.89C79.5202 110.746 78.4473 109.986 77.2924 110.161C74.5097 110.581 71.6423 110.795 68.7704 110.795C66.6337 110.795 64.5244 110.675 62.5007 110.44C61.3817 110.312 60.3392 111.074 60.1301 112.179L59.0843 117.704C59.0295 117.994 58.7755 118.204 58.4805 118.204H52.0204C51.7254 118.204 51.4715 117.994 51.4158 117.699L49.5028 107.763C49.3796 107.123 48.9775 106.578 48.399 106.269C39.6704 101.609 35.0567 93.8245 35.0567 83.7562C35.0567 78.6692 36.1696 74.171 38.3645 70.386C40.4127 66.8538 43.4042 63.9334 47.2558 61.7055C47.9097 61.3271 48.1332 60.4903 47.755 59.8362C47.3768 59.1822 46.5399 58.9591 45.8858 59.337C38.4174 63.6571 33.9129 70.3225 32.6727 78.7878V78.7876C32.5411 78.7757 32.4093 78.7643 32.278 78.7507C32.3019 77.8373 32.1366 76.9157 31.7768 76.0212C30.9831 74.0483 29.3528 72.6244 27.6232 72.3936C26.2602 72.2111 24.9631 72.7898 24.0629 73.9791C22.7578 75.7038 22.9705 77.0686 23.3787 77.9099C24.0677 79.3296 25.8388 80.3338 28.778 80.9652C28.6972 81.0862 28.6083 81.2078 28.511 81.3298C26.7744 83.5078 24.7284 83.9894 23.4 84.0347C22.6223 84.0612 21.9995 84.6856 21.9995 85.4638V85.4704C21.9995 86.238 22.6052 86.8641 23.3721 86.8992C23.4703 86.9038 23.5729 86.9061 23.6798 86.9061C25.3607 86.9061 28.0587 86.2861 30.6506 83.036C31.0599 82.523 31.3933 81.9818 31.6496 81.4226C31.9077 81.4518 32.1557 81.4767 32.3933 81.4987C32.3933 81.4982 32.3933 81.4978 32.3935 81.4973C32.3469 82.2386 32.321 82.9908 32.321 83.7562C32.321 89.4528 33.679 94.5319 36.3571 98.8531C38.8264 102.837 42.3619 106.099 46.8688 108.552L48.7286 118.212C49.0276 119.793 50.4121 120.94 52.0206 120.94H58.4807C60.0892 120.94 61.4736 119.793 61.7727 118.212L62.7182 113.217C64.6819 113.425 66.7151 113.531 68.7704 113.531C71.5904 113.531 74.4071 113.334 77.1522 112.946L78.1489 118.213C78.4482 119.793 79.8326 120.94 81.4409 120.94H87.901C89.5095 120.94 90.894 119.793 91.1932 118.212L93.1278 107.969C98.593 105.079 102.712 101.283 105.374 96.6827C105.566 96.3511 105.861 96.1079 106.206 95.9975L112.409 94.0105C114.557 93.3222 116 91.3451 116 89.09V82.7055C116 80.4506 114.557 78.4735 112.409 77.7856ZM99.3435 61.5271C98.817 66.0299 97.4046 69.8817 95.9854 70.6854C94.3724 71.5992 90.6482 71.7756 87.852 69.7302C85.0526 67.6824 84.1208 63.9999 85.1572 59.0807C85.1572 59.0805 85.1572 59.0805 85.1572 59.0805C85.2613 58.5864 85.6124 58.159 86.0961 57.9376C92.9449 54.8026 96.8935 53.7772 98.3604 53.7772C98.5818 53.7772 98.7467 53.8005 98.8564 53.8435C99.2971 54.3129 99.875 56.9827 99.3435 61.5271ZM25.8405 76.7154C25.6989 76.4235 26.0331 75.9103 26.2449 75.6302C26.5807 75.1866 26.8901 75.0959 27.1238 75.0959C27.1732 75.0959 27.2193 75.1 27.2615 75.1056C27.8905 75.1895 28.7717 75.8817 29.2386 77.0422C29.3486 77.3154 29.4914 77.7679 29.5248 78.3323C27.6311 77.9398 26.1597 77.3741 25.8405 76.7154Z" fill="black"/>
</g>
<defs>
<clipPath id="clip0">
<rect width="94" height="94" fill="white" transform="translate(21.9995 27.8794)"/>
</clipPath>
</defs>
</svg>
