<svg width="139" height="147" viewBox="0 0 139 147" fill="none" xmlns="http://www.w3.org/2000/svg">
<path opacity="0.7" d="M17.9336 74.5514C17.9336 74.5514 19.7091 94.3445 36.9986 106.694C54.2869 119.047 77.2481 118.796 95.8643 119.084C114.481 119.373 128.121 108.119 129.355 92.1194C130.589 76.1198 116.152 72.1962 107.427 54.5127C98.7018 36.8292 99.0453 30.849 82.1407 20.5758C65.2361 10.3025 40.1796 18.4587 27.931 38.2101C15.6823 57.9616 17.9336 74.5514 17.9336 74.5514Z" fill="#FBF3EC"/>
<g clip-path="url(#clip0)">
<path d="M56.5935 38.2608V28.6357C56.5069 28.6485 56.421 28.664 56.3352 28.6796C56.3175 28.6831 56.2997 28.6867 56.282 28.6895C56.2004 28.7058 56.1188 28.7227 56.0379 28.7418C56.0187 28.7468 55.9989 28.751 55.979 28.756C55.8974 28.7758 55.8158 28.797 55.7349 28.8196C55.7264 28.8218 55.7172 28.8253 55.7087 28.8274C55.4547 28.9003 55.2063 28.988 54.9637 29.0891C54.9367 29.1004 54.9097 29.111 54.8828 29.1223C54.8203 29.1499 54.7579 29.1782 54.6962 29.2072C54.66 29.2242 54.6231 29.2419 54.5869 29.2595C54.5294 29.2871 54.4734 29.3161 54.4166 29.3458C54.3755 29.367 54.335 29.3897 54.2946 29.4123C54.2421 29.4406 54.1903 29.4696 54.1385 29.4993C54.0895 29.5283 54.0413 29.5587 53.9937 29.5884C53.9363 29.6245 53.8788 29.6606 53.822 29.698C53.7511 29.7447 53.6808 29.7921 53.612 29.8416C53.5758 29.8678 53.541 29.8947 53.5056 29.9215C53.4524 29.9611 53.3998 30.0015 53.3473 30.0425C53.3119 30.0708 53.2771 30.0998 53.2423 30.1288C53.1905 30.1719 53.1395 30.215 53.0891 30.2596C53.0564 30.2886 53.0238 30.3169 52.9919 30.3466C52.9372 30.3961 52.8847 30.447 52.8322 30.498C52.8053 30.5241 52.7783 30.5496 52.7528 30.5757C52.6754 30.6535 52.5995 30.7328 52.5264 30.8148C52.5257 30.8155 52.525 30.8162 52.5243 30.8169L49.7096 33.9522L42.6724 41.7886C42.6689 41.7921 42.666 41.7964 42.6625 41.8006C42.5929 41.8784 42.5248 41.9576 42.4595 42.0383C42.4383 42.0644 42.4184 42.0906 42.3978 42.1168C42.3503 42.1776 42.3027 42.2377 42.2573 42.3C42.2368 42.3282 42.2169 42.3572 42.1963 42.3862C42.1523 42.4478 42.109 42.5093 42.0679 42.5715C42.0494 42.5998 42.0317 42.6281 42.0133 42.6564C41.9714 42.7222 41.9302 42.788 41.8898 42.8551C41.8749 42.8806 41.86 42.9068 41.8458 42.9322C41.8039 43.0044 41.7642 43.0765 41.7252 43.1494C41.7138 43.1713 41.7025 43.1939 41.6911 43.2158C41.65 43.2951 41.6109 43.375 41.5733 43.4556C41.5655 43.4726 41.5577 43.4896 41.5499 43.5072C41.5095 43.5956 41.4712 43.6848 41.435 43.7746C41.4307 43.7852 41.4265 43.7951 41.4222 43.8057C41.3825 43.9061 41.3442 44.008 41.3087 44.1105H50.7249C53.9661 44.1105 56.5935 41.4916 56.5935 38.2608Z" fill="#6E9FC5"/>
<path d="M95.3629 73.7555C92.209 72.1613 88.6422 71.2617 84.8632 71.2617C72.0228 71.2617 61.614 81.6379 61.614 94.4371C61.614 100.658 64.0732 106.307 68.0757 110.47C72.308 114.871 78.2646 117.613 84.8632 117.613C97.7044 117.613 108.113 107.236 108.113 94.4371C108.113 85.404 102.928 77.5789 95.3629 73.7555ZM84.8632 109.976C76.2545 109.976 69.2755 103.019 69.2755 94.4371C69.2755 85.856 76.2545 78.8987 84.8632 78.8987C93.4727 78.8987 100.452 85.856 100.452 94.4371C100.452 103.019 93.4727 109.976 84.8632 109.976Z" fill="#F8F8F8"/>
<path d="M100.452 94.4369C100.452 103.019 93.4727 109.975 84.8633 109.975C76.2545 109.975 69.2755 103.019 69.2755 94.4369C69.2755 85.8557 76.2545 78.8984 84.8633 78.8984C93.4727 78.8984 100.452 85.8557 100.452 94.4369Z" fill="#63D9B8"/>
<path d="M97.179 72.6825V33.3073C97.179 29.6925 94.2295 26.7518 90.603 26.7518C54.8908 27.0552 54.8106 25.5572 51.1714 29.6098C40.5164 41.4818 40.6462 41.1508 39.9303 42.6856C38.519 45.7147 39.3428 42.7754 39.1257 105.725C39.1257 109.339 42.0752 112.28 45.7016 112.28H67.3367C71.86 116.695 78.0478 119.422 84.8636 119.422C98.6853 119.422 109.93 108.214 109.93 94.437C109.93 85.1189 104.785 76.9776 97.179 72.6825ZM54.778 31.2393V38.261C54.778 40.4888 52.9602 42.3008 50.7258 42.3008H44.6494C53.0921 33.0768 53.5923 32.0449 54.778 31.2393ZM45.7016 108.66C44.0782 108.66 42.7571 107.343 42.7571 105.725C42.7634 43.2238 42.7422 46.3166 42.7727 45.9206H50.7251C54.9625 45.9206 58.4094 42.4847 58.4094 38.261V30.3722H90.603C92.2264 30.3722 93.5476 31.6884 93.5476 33.3073V70.9907C90.7173 69.9447 87.7706 69.4517 84.8636 69.4517C64.539 69.4517 52.8658 92.3159 64.251 108.66H45.7016ZM84.8636 115.802C73.0556 115.802 63.43 106.228 63.43 94.437C63.43 81.9136 74.2689 71.9137 87.0596 73.1832C97.8509 74.283 106.298 83.3953 106.298 94.437C106.298 106.218 96.683 115.802 84.8636 115.802Z" fill="black"/>
<path d="M85.8346 77.0915C84.8384 77.0378 83.977 77.8009 83.9217 78.7996C83.8671 79.7975 84.6341 80.6512 85.6352 80.7063C92.9391 81.1066 98.6601 87.1381 98.6601 94.437C98.6601 102.02 92.4716 108.19 84.8639 108.19C77.2563 108.19 71.0671 102.02 71.0671 94.437C71.0671 90.6794 72.5599 87.17 75.2689 84.5552C75.9898 83.86 76.0083 82.7142 75.3108 81.9957C74.6126 81.2778 73.4632 81.2587 72.743 81.9539C69.3202 85.2568 67.4357 89.6899 67.4357 94.437C67.4357 104.016 75.254 111.809 84.8632 111.809C94.4739 111.809 102.292 104.016 102.292 94.437C102.292 85.2165 95.0628 77.5972 85.8346 77.0915Z" fill="black"/>
<path d="M76.7096 98.0538L81.9616 102.492C83.7241 103.981 86.4572 103.066 86.9382 100.802C87.4867 98.22 89.1101 93.2247 93.8236 88.781C94.5522 88.0942 94.5842 86.9485 93.8952 86.2221C93.2063 85.4957 92.0568 85.4639 91.3281 86.1507C86.4118 90.7853 84.408 95.9695 83.6006 99.1317L79.0582 95.292C78.2926 94.6455 77.1474 94.7396 76.4989 95.5027C75.8504 96.2652 75.9447 97.4074 76.7096 98.0538Z" fill="black"/>
<path d="M54.6457 54.2633H81.6584C82.6609 54.2633 83.4741 53.4528 83.4741 52.4534C83.4741 51.4541 82.6609 50.6436 81.6584 50.6436H54.6457C53.6431 50.6436 52.83 51.4541 52.83 52.4534C52.83 53.4528 53.6431 54.2633 54.6457 54.2633Z" fill="black"/>
<path d="M54.6457 65.1202H81.6584C82.6609 65.1202 83.4741 64.3104 83.4741 63.3104C83.4741 62.311 82.6609 61.5005 81.6584 61.5005H54.6457C53.6431 61.5005 52.83 62.311 52.83 63.3104C52.83 64.3104 53.6431 65.1202 54.6457 65.1202Z" fill="black"/>
<path d="M63.4297 74.1685C63.4297 73.1684 62.6166 72.3579 61.614 72.3579H54.6457C53.6431 72.3579 52.83 73.1684 52.83 74.1685C52.83 75.1678 53.6431 75.9784 54.6457 75.9784H61.614C62.6166 75.9784 63.4297 75.1678 63.4297 74.1685Z" fill="black"/>
<path d="M79.3971 81.6663H79.4013C80.4046 81.6663 81.2149 80.8558 81.2149 79.8565C81.2149 78.8564 80.3996 78.0459 79.3971 78.0459C78.3945 78.0459 77.5814 78.8564 77.5814 79.8565C77.5814 80.8558 78.3945 81.6663 79.3971 81.6663Z" fill="black"/>
</g>
<defs>
<clipPath id="clip0">
<rect width="93" height="92.7016" fill="white" transform="translate(27.9998 26.7207)"/>
</clipPath>
</defs>
</svg>
