<svg width="29" height="29" viewBox="0 0 29 29" fill="none" xmlns="http://www.w3.org/2000/svg">
<path d="M11.6226 9.89882L17.4054 0H25.8029L20.02 9.89882H11.6226Z" fill="#F1543F"/>
<path d="M3.19678 0L8.97965 9.89882H17.3771L11.5942 0H3.19678Z" fill="#FF7058"/>
<path d="M14.5001 29.0001C20.3926 29.0001 25.1695 24.2232 25.1695 18.3306C25.1695 12.438 20.3926 7.66113 14.5001 7.66113C8.60746 7.66113 3.83057 12.438 3.83057 18.3306C3.83057 24.2232 8.60746 29.0001 14.5001 29.0001Z" fill="#F8B64C"/>
<path d="M14.5001 26.7621C19.1567 26.7621 22.9317 22.9871 22.9317 18.3304C22.9317 13.6737 19.1567 9.89868 14.5001 9.89868C9.84336 9.89868 6.06836 13.6737 6.06836 18.3304C6.06836 22.9871 9.84336 26.7621 14.5001 26.7621Z" fill="#FFD15C"/>
<path d="M14.5 24.7128C18.0248 24.7128 20.8822 21.8554 20.8822 18.3305C20.8822 14.8057 18.0248 11.9482 14.5 11.9482C10.9751 11.9482 8.11768 14.8057 8.11768 18.3305C8.11768 21.8554 10.9751 24.7128 14.5 24.7128Z" fill="#F8B64C"/>
<path d="M14.4999 13.8379L15.9613 16.795L19.2209 17.2688L16.8633 19.5694L17.417 22.8233L14.4999 21.2877L11.5827 22.8233L12.1365 19.5694L9.77881 17.2688L13.0385 16.795L14.4999 13.8379Z" fill="#FFD15C"/>
</svg>
