<svg width="78" height="78" viewBox="0 0 78 78" fill="none" xmlns="http://www.w3.org/2000/svg">
<path d="M40.1082 6.12698C39.7416 6.10592 39.3724 6.09399 39.0004 6.09399C28.5114 6.09399 20.0084 14.597 20.0084 25.086V35.7026H22.224V25.086C22.224 14.969 30.1348 6.70072 40.1082 6.12698Z" fill="#899EA8"/>
<path d="M41.2162 12.9426C40.8428 12.9426 40.4733 12.9605 40.1083 12.9936C46.2865 13.555 51.1426 18.7627 51.1426 25.0861V35.7027H53.3582V25.0861C53.3582 18.3894 47.9116 12.9426 41.2162 12.9426Z" fill="#899EA8"/>
<path d="M64 36H14V72H64V36Z" fill="#63D9B8"/>
<path d="M19 36H14V72H19V36Z" fill="#57C2A4"/>
<path d="M45 50.4643C45 47.4464 42.3137 45 39 45C35.6863 45 33 47.4464 33 50.4643C33 52.5429 34.2746 54.3502 36.1505 55.274L35.185 62H42.8151L41.8496 55.274C43.7254 54.3504 45 52.5429 45 50.4643Z" fill="white"/>
<path d="M64.0037 34.6845H58.7813V30.8478C58.7813 30.2901 58.3353 29.838 57.7851 29.838C57.2349 29.838 56.7888 30.2901 56.7888 30.8478V34.6845H52.007V25.2172C52.007 17.959 46.2886 11.9367 39.128 11.8668C31.8972 11.7962 25.9925 17.7375 25.9925 25.0504V34.6845H21.2106V25.2491C21.2106 15.2996 29.0795 7.0774 38.8958 7.01989C48.7522 6.96212 56.7888 15.073 56.7888 25.0505V26.1356C56.7888 26.6933 57.2349 27.1454 57.7851 27.1454C58.3353 27.1454 58.7813 26.6933 58.7813 26.1356V25.2432C58.7813 14.1606 49.9902 5.03062 39.0559 5.00008C28.1226 4.96966 19.2184 13.9759 19.2184 25.0505V34.6846H13.9963C13.446 34.6846 13 35.1367 13 35.6944V62.0821C13 62.6398 13.446 63.0919 13.9963 63.0919C14.5465 63.0919 14.9925 62.6398 14.9925 62.0821V36.7039H63.0075V70.9806H14.9925V66.7941C14.9925 66.2364 14.5465 65.7843 13.9963 65.7843C13.446 65.7843 13 66.2364 13 66.7941V71.9902C13 72.5479 13.446 73 13.9963 73H64.0037C64.554 73 65 72.5479 65 71.9902V35.6941C64.9999 35.1366 64.554 34.6845 64.0037 34.6845ZM27.985 25.0505C27.985 18.8941 32.9265 13.8856 39.0005 13.8856C45.0737 13.8856 50.0146 18.8941 50.0146 25.0505V34.6846H27.985V25.0505V25.0505Z" fill="#2A1E17"/>
<path d="M46 50.4681C46 46.9016 42.8597 44 39 44C35.1403 44 32 46.9016 32 50.4681C32 52.6083 33.1395 54.5885 35.0188 55.7888L34.1601 61.8582C34.1192 62.1467 34.2149 62.4374 34.4226 62.656C34.6302 62.8746 34.9299 63 35.2447 63H42.7554C43.0704 63 43.3698 62.8746 43.5775 62.656C43.7851 62.4374 43.8808 62.1467 43.8401 61.8582L42.9813 55.7888C44.8604 54.5886 46 52.6084 46 50.4681ZM41.2845 54.3827C40.886 54.582 40.6616 54.9874 40.7203 55.4029L41.5091 60.9787H36.4906L37.2795 55.4029C37.3383 54.9876 37.1137 54.582 36.7152 54.3827C35.1561 53.6038 34.1874 52.1038 34.1874 50.4681C34.1874 48.0162 36.3463 46.0213 38.9999 46.0213C41.6534 46.0213 43.8123 48.0162 43.8123 50.4681C43.8125 52.1038 42.8438 53.6038 41.2845 54.3827Z" fill="black"/>
</svg>
