<svg width="35" height="35" viewBox="0 0 35 35" fill="none" xmlns="http://www.w3.org/2000/svg">
<g clip-path="url(#clip0)">
<path d="M27.661 21.6814C26.9444 20.9354 26.0802 20.5365 25.1642 20.5365C24.2556 20.5365 23.3839 20.928 22.6378 21.6741L20.3035 24.001C20.1115 23.8975 19.9194 23.8015 19.7347 23.7055C19.4688 23.5725 19.2176 23.4469 19.0034 23.314C16.8169 21.9252 14.8298 20.1154 12.9239 17.7737C12.0005 16.6066 11.38 15.6241 10.9294 14.6269C11.5352 14.0728 12.0966 13.4967 12.6432 12.9426C12.8501 12.7358 13.0569 12.5216 13.2637 12.3147C14.815 10.7635 14.815 8.75421 13.2637 7.20294L11.2471 5.18629C11.0181 4.95729 10.7817 4.72091 10.5601 4.48453C10.1169 4.02653 9.65149 3.55377 9.17133 3.11055C8.45479 2.40139 7.5979 2.02466 6.69669 2.02466C5.79548 2.02466 4.92381 2.40139 4.18511 3.11055C4.17773 3.11793 4.17773 3.11793 4.17034 3.12532L1.65876 5.65906C0.713229 6.60459 0.173979 7.75697 0.055787 9.09401C-0.121501 11.251 0.51378 13.2603 1.00132 14.5752C2.19801 17.8033 3.98567 20.795 6.65237 24.001C9.88787 27.8644 13.7808 30.9152 18.2278 33.0648C19.9268 33.87 22.1946 34.8229 24.7283 34.9854C24.8835 34.9928 25.046 35.0002 25.1937 35.0002C26.9001 35.0002 28.3332 34.3871 29.456 33.1682C29.4634 33.1534 29.4782 33.1461 29.4856 33.1313C29.8697 32.6659 30.3129 32.2448 30.7783 31.7942C31.0959 31.4914 31.4209 31.1737 31.7386 30.8413C32.4699 30.0805 32.854 29.194 32.854 28.2854C32.854 27.3694 32.4625 26.4904 31.7164 25.7517L27.661 21.6814ZM30.3055 29.4599C30.2981 29.4599 30.2981 29.4673 30.3055 29.4599C30.0174 29.7702 29.7219 30.0509 29.4043 30.3612C28.9241 30.8192 28.4366 31.2993 27.9786 31.8386C27.2325 32.6364 26.3535 33.0131 25.2011 33.0131C25.0903 33.0131 24.9721 33.0131 24.8613 33.0057C22.6674 32.8654 20.6286 32.0085 19.0994 31.2771C14.9184 29.2531 11.2471 26.3796 8.19625 22.7378C5.67729 19.7017 3.99305 16.8947 2.87762 13.8808C2.19063 12.0414 1.93947 10.6083 2.05027 9.25652C2.12414 8.39225 2.45656 7.67571 3.06968 7.06259L5.58864 4.54362C5.9506 4.20382 6.33473 4.01915 6.71146 4.01915C7.17685 4.01915 7.55358 4.29985 7.78996 4.53624C7.79735 4.54362 7.80474 4.55101 7.81213 4.5584C8.26273 4.97946 8.69118 5.41529 9.14178 5.88067C9.37078 6.11705 9.60716 6.35344 9.84355 6.59721L11.8602 8.61386C12.6432 9.39688 12.6432 10.1208 11.8602 10.9038C11.646 11.118 11.4391 11.3323 11.2249 11.5391C10.6044 12.1744 10.0134 12.7653 9.37078 13.3415C9.35601 13.3563 9.34123 13.3637 9.33385 13.3785C8.69856 14.0137 8.81676 14.6343 8.94972 15.0553C8.95711 15.0775 8.9645 15.0996 8.97188 15.1218C9.49636 16.3924 10.2351 17.5891 11.3579 19.0147L11.3653 19.0221C13.4041 21.5337 15.5537 23.4913 17.9249 24.9908C18.2278 25.1829 18.538 25.338 18.8335 25.4857C19.0994 25.6187 19.3506 25.7443 19.5648 25.8773C19.5944 25.892 19.6239 25.9142 19.6535 25.929C19.9046 26.0545 20.141 26.1136 20.3848 26.1136C20.9979 26.1136 21.382 25.7295 21.5076 25.6039L24.034 23.0776C24.2851 22.8264 24.684 22.5236 25.1494 22.5236C25.6074 22.5236 25.9841 22.8117 26.2131 23.0628C26.2205 23.0702 26.2205 23.0702 26.2279 23.0776L30.2981 27.1478C31.059 27.9013 31.059 28.6769 30.3055 29.4599Z" fill="#F9392D"/>
<path d="M18.9149 8.32595C20.8502 8.65097 22.6083 9.56696 24.0119 10.9705C25.4154 12.374 26.324 14.1321 26.6564 16.0675C26.7377 16.5551 27.1587 16.8949 27.6389 16.8949C27.698 16.8949 27.7497 16.8875 27.8088 16.8801C28.3554 16.7914 28.7174 16.2743 28.6287 15.7277C28.2298 13.386 27.1218 11.2512 25.4302 9.55957C23.7386 7.86795 21.6037 6.7599 19.262 6.36101C18.7154 6.27236 18.2057 6.63433 18.1097 7.17358C18.0136 7.71283 18.3682 8.2373 18.9149 8.32595Z" fill="#292929"/>
<path d="M34.9593 15.4395C34.3019 11.5835 32.4847 8.07465 29.6924 5.28237C26.9001 2.49009 23.3913 0.67289 19.5353 0.0154477C18.996 -0.0805832 18.4863 0.288766 18.3903 0.828017C18.3017 1.37465 18.6636 1.88436 19.2103 1.98039C22.6526 2.56396 25.7921 4.19648 28.2889 6.6859C30.7857 9.1827 32.4108 12.3222 32.9944 15.7645C33.0756 16.2521 33.4967 16.5919 33.9768 16.5919C34.0359 16.5919 34.0877 16.5845 34.1467 16.5771C34.686 16.4958 35.0553 15.9787 34.9593 15.4395Z" fill="#292929"/>
</g>
<defs>
<clipPath id="clip0">
<rect width="35" height="35" fill="white"/>
</clipPath>
</defs>
</svg>
