<svg width="40" height="40" viewBox="0 0 40 40" fill="none" xmlns="http://www.w3.org/2000/svg">
<g clip-path="url(#clip0)">
<path d="M34.4959 10.4811C33.0699 5.87392 29.3656 2.13915 24.8287 0.734073C19.9973 -0.762099 14.9605 0.0500886 11.0099 2.96235C9.11694 4.35775 7.54616 6.19829 6.46749 8.28478C5.35265 10.4413 4.76343 12.8691 4.76343 15.3059C4.76343 18.6299 5.81491 21.7888 7.80429 24.4411L20.0016 39.9995L32.1838 24.4609L32.1991 24.4411C35.1761 20.4717 36.0133 15.3834 34.4959 10.4811ZM30.3308 23.0249L20.0016 36.2012L9.67241 23.0249C7.99468 20.7835 7.1078 18.1145 7.1078 15.3059C7.1078 11.2017 9.08655 7.29274 12.401 4.84946C15.7458 2.38376 20.0228 1.70009 24.1352 2.97353C27.944 4.15306 31.0558 7.2954 32.2566 11.1742C33.5478 15.3463 32.8458 19.665 30.3308 23.0249Z" fill="#F9392D"/>
<path d="M20.0015 7.10107C15.4772 7.10107 11.7964 10.7819 11.7964 15.3062C11.7964 19.8305 15.4772 23.5114 20.0015 23.5114C24.5258 23.5114 28.2067 19.8305 28.2067 15.3062C28.2067 10.7819 24.5258 7.10107 20.0015 7.10107ZM20.0015 21.1671C16.7699 21.1671 14.1407 18.538 14.1407 15.3062C14.1407 12.0746 16.7698 9.44537 20.0015 9.44537C23.2333 9.44537 25.8624 12.0745 25.8624 15.3062C25.8624 18.5379 23.2332 21.1671 20.0015 21.1671Z" fill="#292929"/>
</g>
<defs>
<clipPath id="clip0">
<rect width="40" height="40" fill="white"/>
</clipPath>
</defs>
</svg>
