<svg width="209" height="110" viewBox="0 0 209 110" fill="none" xmlns="http://www.w3.org/2000/svg">
<path d="M11.0832 109.418C11.0832 109.418 -6.36572 86.0223 4.10663 63.7571C14.579 41.4919 34.463 46.7755 62.3694 24.1387C96.2514 -3.3454 120.049 -4.86421 150.286 7.15704C167.377 13.9432 170.17 41.8797 197.39 59.233C221.92 74.8897 201.931 101.501 189.009 105.654C176.101 109.806 167.377 109.806 167.377 109.806L11.0832 109.418Z" fill="#E7F3FE"/>
<path d="M114.94 59.1196C110.593 68.6849 105.125 94.7956 103.631 96.2336C102.137 97.6716 93.5474 103.214 92.0535 105.896C90.5596 108.578 91.2319 107.689 91.8892 107.867C92.5465 108.045 129.939 108.223 129.939 108.223C129.939 108.223 125.637 80.4961 125.144 80.3184C124.651 80.1245 114.94 59.1196 114.94 59.1196Z" fill="url(#paint0_linear)"/>
<path d="M108.755 108.093C115.627 108.142 122.873 108.19 126.862 108.206L121.394 72.8859C118.481 66.7783 114.94 59.1196 114.94 59.1196C114.387 60.3314 113.82 61.7856 113.252 63.4499C112.684 89.9806 116.225 97.4131 113.566 102.147C111.489 105.831 109.607 107.479 108.755 108.093Z" fill="url(#paint1_linear)"/>
<path d="M186.379 110H6.84052C6.07862 110 5.45117 109.321 5.45117 108.497C5.45117 107.673 6.07862 106.995 6.84052 106.995H186.364C187.126 106.995 187.754 107.673 187.754 108.497C187.769 109.321 187.141 110 186.379 110Z" fill="#2E5B9A"/>
<path d="M137.872 47.5837C144.087 53.7883 157.905 59.6696 157.905 59.6696C157.905 59.6696 160.012 80.6583 158.578 92.5342C157.143 104.41 157.935 106.834 157.935 106.834H129.431C129.431 106.834 125.607 101.098 118.6 83.2435C114.148 71.8848 114.94 59.1364 114.94 59.1364L132.3 50.7022L137.872 47.5837Z" fill="url(#paint2_linear)"/>
<path d="M129.431 106.817H157.935C157.935 106.817 157.143 104.41 158.577 92.5179C159.757 82.7264 158.547 66.7789 158.069 61.4469L155.47 60.2512C148.956 62.2871 145.207 72.7734 144.116 83.0334C143.384 89.9004 132.867 96.6543 125.98 100.371C128.236 105.04 129.431 106.817 129.431 106.817Z" fill="url(#paint3_linear)"/>
<path d="M122.44 26.0457C119.004 34.3183 123.127 41.9932 123.007 41.67C122.888 41.3469 128.206 27.6937 128.206 27.6937L122.44 26.0457Z" fill="#2E5B9A"/>
<path d="M135.467 32.1687L139.829 49.3927C139.948 49.8774 139.844 50.3945 139.56 50.7822C138.544 52.1395 137.08 54.9509 134.152 55.8396C133.584 56.0173 132.882 56.0658 132.314 56.0658C131.717 56.0658 131.194 55.6134 131.089 54.9832L128.146 38.6317L135.467 32.1687Z" fill="#F09959"/>
<path d="M134.63 33.6069L133.031 34.3179L128.131 38.6481L130.761 53.1253C135.227 50.12 135.87 48.0841 134.63 33.6069Z" fill="#E38540"/>
<path d="M135.302 39.7794C134.331 45.4507 130.417 49.2801 126.548 48.3429C122.678 47.4058 120.826 43.738 121.289 36.3863C121.648 30.618 124.277 24.3489 128.146 25.286C132.015 26.2232 136.258 34.1081 135.302 39.7794Z" fill="#F09959"/>
<path d="M157.905 59.6531C163.672 61.0588 164.747 73.7264 166.615 87.0887C166.824 88.6237 167.944 101.647 167.944 101.647C167.944 101.647 168.049 104.038 165.853 105.218C163.97 106.235 163.209 107.011 152.288 107.124C141.801 107.237 128.281 106.769 128.281 106.769C128.281 106.769 128.161 102.552 129.237 100.483C130.85 97.3811 147.433 92.9216 148.987 92.6954C149.211 89.3508 147.463 77.2649 149.868 69.073C151.526 63.434 153.304 60.4771 155.53 59.7177C156.247 59.4592 157.039 59.4592 157.905 59.6531Z" fill="url(#paint4_linear)"/>
<path d="M134.197 107.043C139.366 107.124 146.462 107.204 152.273 107.14C163.194 107.027 163.956 106.251 165.838 105.233C168.049 104.037 168.154 102.018 168.154 102.018C168.154 102.018 167.033 88.1707 166.824 86.6357C165.614 77.6844 164.299 67.4567 161.252 62.5125C164.12 71.6092 164.583 79.2679 164.628 82.5479C164.658 84.2121 164.508 86.4742 164.06 88.0738C163.567 89.8349 162.297 90.9337 160.31 90.3358C156.337 89.1402 151.377 91.6446 151.377 91.6446C151.377 91.6446 155.127 90.2066 158.652 91.5315C162.178 92.8402 169.468 101.549 161.52 104.765C159.115 105.734 144.55 106.542 134.197 107.043Z" fill="url(#paint5_linear)"/>
<path d="M130.103 100.888C130.103 100.888 131.567 98.1895 134.585 98.1895C137.603 98.1895 137.378 103.521 136.945 105.266C136.497 107.011 134.734 107.092 134.734 107.092L128.266 106.769L130.103 100.888Z" fill="#96CFE0"/>
<path d="M123.545 108.32H82.7616C82.149 108.32 81.6411 107.771 81.6411 107.108V106.753C81.6411 106.09 82.149 105.541 82.7616 105.541H123.545C124.158 105.541 124.666 106.09 124.666 106.753V107.108C124.666 107.771 124.158 108.32 123.545 108.32Z" fill="#75A1DE"/>
<path d="M129.297 101.211C122.977 98.7384 121.319 99.6756 119.885 99.2231C116.359 98.1083 115.478 99.0616 113.192 105.832C112.744 107.173 114.074 107.27 115.403 107.27C116.733 107.27 118.346 104.491 118.854 104.167C119.362 103.844 120.766 103.683 120.766 103.683C120.766 103.683 120.318 103.683 119.661 105.121C119.004 106.559 118.197 107.108 119.213 107.108C120.229 107.108 120.393 105.282 122.305 105.67C124.217 106.074 123.485 107.108 128.266 107.027C133.046 106.946 136.647 107.027 136.572 103.925C136.497 100.984 136.796 99.514 134.212 98.9969C132.24 98.593 129.297 101.211 129.297 101.211Z" fill="#F09959"/>
<path d="M129.386 101.21C133.614 100.693 132.374 106.397 131.926 106.866C131.478 107.334 134.286 107.027 134.286 107.027C134.286 107.027 135.601 104.749 134.495 102.115C133.39 99.4977 131.194 99.3684 131.194 99.3684L129.312 100.483L129.386 101.21Z" fill="#A86B48"/>
<path d="M133.793 100.709C133.734 101.42 132.628 101.889 131.313 101.776C129.999 101.662 128.983 100.984 129.028 100.289C129.088 99.5781 130.193 99.1095 131.508 99.2226C132.822 99.3357 133.853 100.014 133.793 100.709Z" fill="#2E5B9A"/>
<path d="M133.465 100.37C133.42 101.001 132.419 101.421 131.254 101.324C130.074 101.211 129.162 100.613 129.222 99.9826C129.267 99.3524 130.268 98.9323 131.433 99.0293C132.598 99.1424 133.51 99.7402 133.465 100.37Z" fill="#3E6BAB"/>
<path d="M132.732 100.079C132.703 100.532 131.986 100.839 131.134 100.758C130.282 100.677 129.64 100.257 129.67 99.8046C129.7 99.3522 130.417 99.0452 131.268 99.1259C132.105 99.1906 132.762 99.6268 132.732 100.079Z" fill="#F0CEB4"/>
<path d="M81.2675 99.5783H40.1699C38.0037 99.5783 36.1513 97.8818 35.7628 95.5551L30.3997 63.563C29.8917 60.5416 32.0131 57.7625 34.8067 57.7625H75.9044C78.0706 57.7625 79.923 59.459 80.3114 61.7857L85.6746 93.7777C86.1825 96.7992 84.0612 99.5783 81.2675 99.5783Z" fill="#75A1DE"/>
<path d="M83.1797 93.8909L77.7119 62.5614C77.3086 60.2831 75.4263 58.6189 73.2153 58.6189H31.4603C30.5789 59.7176 30.1457 61.2203 30.4146 62.8037L35.957 95.4744C36.3604 97.8495 38.2726 99.5784 40.5134 99.5784H78.683C81.5364 99.5784 83.7026 96.8478 83.1797 93.8909Z" fill="#A8CEFF"/>
<path d="M73.2754 103.86H65.4772C64.0879 103.86 62.9525 102.519 62.9525 100.871V85.4408C62.9525 82.8071 61.1598 80.6743 58.9488 80.6743H54.8704C52.6594 80.6743 50.8667 82.8071 50.8667 85.4408V102.713C50.8667 105.67 52.8835 108.061 55.3783 108.045L76.6666 107.884C76.6666 105.654 75.1428 103.86 73.2754 103.86Z" fill="#75A1DE"/>
<path d="M51.1802 85.7802V102.794C51.1802 105.557 53.1671 107.819 55.6769 108.029L76.4572 107.884C76.4572 107.512 74.8139 106.85 72.7971 106.85H64.3565C62.8477 106.85 61.6376 105.525 61.6376 103.909V85.7802C61.6376 83.195 59.6955 81.0945 57.3052 81.0945H55.5275C53.1223 81.0945 51.1802 83.195 51.1802 85.7802Z" fill="#A8CEFF"/>
<path d="M94.6681 101.905C97.8053 100.015 101.645 100.645 103.034 102.535C104.423 104.426 104.662 105.686 101.525 105.686C98.3879 105.686 92.0985 105.945 91.0528 105.815C90.0071 105.67 94.6681 101.905 94.6681 101.905Z" fill="#F09959"/>
<path d="M99.3135 100.758C102.69 99.8855 104.99 102.002 107.799 104.022C110.234 105.783 110.727 107.496 108.038 106.042C104.079 103.909 101.763 103.65 101.763 103.65L99.3135 100.758Z" fill="#F09959"/>
<path d="M96.2363 101.889C94.5333 101.889 93.0394 101.308 91.8442 101.404C90.6491 101.518 86.8396 105.735 87.4372 106.058C87.482 106.074 87.5268 106.106 87.5716 106.122C88.4829 106.478 89.4988 106.09 90.0067 105.201C90.5445 104.264 91.4259 103.182 92.4418 103.57C94.1449 104.216 95.9375 104.151 95.9375 104.151L96.2363 101.889Z" fill="#F09959"/>
<path d="M95.2508 106.43C93.5029 105.67 96.2965 99.385 97.2227 99.385C98.149 99.385 101.645 102.406 101.645 102.406C101.645 102.406 100.823 102.907 98.0444 101.906C97.3423 101.647 96.7596 105.929 95.9529 106.43C95.1313 106.931 95.2508 106.43 95.2508 106.43Z" fill="#F7A96F"/>
<path d="M121.275 39.6986C121.11 46.6302 123.291 47.7936 124.815 48.7307C126.339 49.6679 132.912 48.1167 133.883 46.404C136.348 42.0253 134.272 37.9374 134.825 38.0021C135.377 38.0667 135.885 39.7633 137.319 41.9768C137.454 42.1869 138.395 43.5441 138.44 43.0917C139.112 36.8872 142.1 34.9644 141.383 28.6953C140.86 24.0742 138.141 24.4459 138.141 24.4459C138.141 24.4459 136.393 20.5842 130.94 21.0204C127.295 21.3113 124.038 22.8463 120.274 23.8965C116.509 24.9467 124.726 34.1727 129.611 30.7958C134.496 27.4189 132.076 34.8513 132.853 35.433C133.629 36.0147 133.226 35.5138 133.57 39.3108C133.928 43.1079 129.461 45.5961 128.177 45.9193C124.083 46.9534 123.411 46.2263 122.515 44.5621C121.753 43.1079 121.275 39.6986 121.275 39.6986Z" fill="#2E5B9A"/>
<path d="M138.2 37.5496C137.737 39.2946 136.587 40.4257 135.646 40.0702C134.704 39.7147 134.675 38.2929 134.779 36.2732C134.884 34.4474 136.393 33.3971 137.334 33.7526C138.29 34.1081 138.663 35.8046 138.2 37.5496Z" fill="#F09959"/>
<path d="M48.8644 32.8634H13.9665C13.593 32.8634 13.2793 32.524 13.2793 32.1201V15.8656C13.2793 15.4616 13.593 15.1223 13.9665 15.1223H48.8644C49.2379 15.1223 49.5516 15.4616 49.5516 15.8656V32.1039C49.5516 32.524 49.2379 32.8634 48.8644 32.8634Z" fill="#B7E1FF"/>
<path d="M47.9983 32.023H14.8184C14.5047 32.023 14.2656 31.7484 14.2656 31.4252V20.3896C14.2656 20.0503 14.5196 19.7917 14.8184 19.7917H47.9983C48.312 19.7917 48.551 20.0664 48.551 20.3896V31.4252C48.551 31.7645 48.312 32.023 47.9983 32.023Z" fill="white"/>
<path d="M15.8792 17.8207H15.0725C14.9082 17.8207 14.7588 17.6753 14.7588 17.4814V16.7705C14.7588 16.5927 14.8932 16.4312 15.0725 16.4312H15.8792C16.0436 16.4312 16.1929 16.5766 16.1929 16.7705V17.4814C16.178 17.6753 16.0436 17.8207 15.8792 17.8207Z" fill="white"/>
<path d="M18.4632 17.8205H17.6565C17.4922 17.8205 17.3428 17.675 17.3428 17.4812V16.7702C17.3428 16.5925 17.4772 16.4309 17.6565 16.4309H18.4632C18.6275 16.4309 18.7769 16.5763 18.7769 16.7702V17.4812C18.762 17.675 18.6275 17.8205 18.4632 17.8205Z" fill="white"/>
<path d="M21.0477 17.8205H20.241C20.0766 17.8205 19.9272 17.675 19.9272 17.4812V16.7702C19.9272 16.5925 20.0617 16.4309 20.241 16.4309H21.0477C21.212 16.4309 21.3614 16.5763 21.3614 16.7702V17.4812C21.3465 17.675 21.212 17.8205 21.0477 17.8205Z" fill="white"/>
<path d="M47.1608 22.4741H29.0246C28.7258 22.4741 28.4868 22.2156 28.4868 21.8925C28.4868 21.5693 28.7258 21.3108 29.0246 21.3108H47.1608C47.4596 21.3108 47.6986 21.5693 47.6986 21.8925C47.6986 22.1995 47.4596 22.4741 47.1608 22.4741Z" fill="#B7E1FF"/>
<path d="M33.507 31.5227H15.3708C15.072 31.5227 14.833 31.2642 14.833 30.941C14.833 30.6179 15.072 30.3594 15.3708 30.3594H33.507C33.8057 30.3594 34.0448 30.6179 34.0448 30.941C34.0597 31.2642 33.8057 31.5227 33.507 31.5227Z" fill="#B7E1FF"/>
<path d="M36.8531 31.5227H34.9708C34.8662 31.5227 34.7915 31.4258 34.7915 31.3288V30.5533C34.7915 30.4402 34.8811 30.3594 34.9708 30.3594H36.8531C36.9577 30.3594 37.0324 30.4563 37.0324 30.5533V31.3288C37.0473 31.4419 36.9577 31.5227 36.8531 31.5227Z" fill="#B7E1FF"/>
<path d="M39.692 31.5227H37.8097C37.7051 31.5227 37.6304 31.4258 37.6304 31.3288V30.5533C37.6304 30.4402 37.72 30.3594 37.8097 30.3594H39.692C39.7966 30.3594 39.8712 30.4563 39.8712 30.5533V31.3288C39.8712 31.4419 39.7816 31.5227 39.692 31.5227Z" fill="#B7E1FF"/>
<path d="M47.3255 25.0274H17.2978C17.0886 25.0274 16.9243 24.8496 16.9243 24.6234C16.9243 24.3972 17.0886 24.2195 17.2978 24.2195H47.3255C47.5347 24.2195 47.699 24.3972 47.699 24.6234C47.699 24.8496 47.5347 25.0274 47.3255 25.0274Z" fill="#B7E1FF"/>
<path d="M47.3255 26.7398H17.2978C17.0886 26.7398 16.9243 26.562 16.9243 26.3358C16.9243 26.1096 17.0886 25.9319 17.2978 25.9319H47.3255C47.5347 25.9319 47.699 26.1096 47.699 26.3358C47.699 26.562 47.5347 26.7398 47.3255 26.7398Z" fill="#B7E1FF"/>
<path d="M57.0514 45.3206H22.1535C21.78 45.3206 21.4663 44.9813 21.4663 44.5774V28.3228C21.4663 27.9189 21.78 27.5796 22.1535 27.5796H57.0514C57.4249 27.5796 57.7386 27.9189 57.7386 28.3228V44.5612C57.7386 44.9813 57.4398 45.3206 57.0514 45.3206Z" fill="#9EC8FF"/>
<path d="M56.1999 44.4806H23.02C22.7063 44.4806 22.4673 44.2059 22.4673 43.8827V32.8471C22.4673 32.5078 22.7213 32.2493 23.02 32.2493H56.1999C56.5136 32.2493 56.7527 32.5239 56.7527 32.8471V43.8827C56.7527 44.2059 56.4987 44.4806 56.1999 44.4806Z" fill="white"/>
<path d="M24.0657 30.2624H23.259C23.0947 30.2624 22.9453 30.1169 22.9453 29.923V29.2121C22.9453 29.0344 23.0798 28.8728 23.259 28.8728H24.0657C24.2301 28.8728 24.3795 29.0182 24.3795 29.2121V29.923C24.3795 30.1169 24.245 30.2624 24.0657 30.2624Z" fill="white"/>
<path d="M26.6502 30.2609H25.8435C25.6792 30.2609 25.5298 30.1155 25.5298 29.9216V29.2106C25.5298 29.0329 25.6642 28.8713 25.8435 28.8713H26.6502C26.8146 28.8713 26.9639 29.0168 26.9639 29.2106V29.9216C26.9639 30.1155 26.8295 30.2609 26.6502 30.2609Z" fill="white"/>
<path d="M29.2342 30.2609H28.4275C28.2632 30.2609 28.1138 30.1155 28.1138 29.9216V29.2106C28.1138 29.0329 28.2482 28.8713 28.4275 28.8713H29.2342C29.3985 28.8713 29.5479 29.0168 29.5479 29.2106V29.9216C29.5479 30.1155 29.4135 30.2609 29.2342 30.2609Z" fill="white"/>
<path d="M55.3629 34.9153H37.2268C36.928 34.9153 36.689 34.6568 36.689 34.3336C36.689 34.0105 36.928 33.752 37.2268 33.752H55.3629C55.6617 33.752 55.9007 34.0105 55.9007 34.3336C55.9007 34.6568 55.6617 34.9153 55.3629 34.9153Z" fill="#9EC8FF"/>
<path d="M41.7086 43.9798H23.5725C23.2737 43.9798 23.0347 43.7212 23.0347 43.3981C23.0347 43.0749 23.2737 42.8164 23.5725 42.8164H41.7086C42.0074 42.8164 42.2464 43.0749 42.2464 43.3981C42.2614 43.7212 42.0074 43.9798 41.7086 43.9798Z" fill="#9EC8FF"/>
<path d="M45.0548 43.9798H43.1724C43.0679 43.9798 42.9932 43.8828 42.9932 43.7859V43.0103C42.9932 42.8972 43.0828 42.8164 43.1724 42.8164H45.0548C45.1594 42.8164 45.234 42.9134 45.234 43.0103V43.7859C45.234 43.8828 45.1594 43.9798 45.0548 43.9798Z" fill="#9EC8FF"/>
<path d="M47.8785 43.9798H45.9962C45.8916 43.9798 45.8169 43.8828 45.8169 43.7859V43.0103C45.8169 42.8972 45.9065 42.8164 45.9962 42.8164H47.8785C47.9831 42.8164 48.0578 42.9134 48.0578 43.0103V43.7859C48.0727 43.8828 47.9831 43.9798 47.8785 43.9798Z" fill="#9EC8FF"/>
<path d="M55.5275 37.4841H25.4848C25.2757 37.4841 25.1113 37.3064 25.1113 37.0802C25.1113 36.854 25.2757 36.6763 25.4848 36.6763H55.5275C55.7366 36.6763 55.9009 36.854 55.9009 37.0802C55.9009 37.3064 55.7366 37.4841 55.5275 37.4841Z" fill="#9EC8FF"/>
<path d="M55.5275 39.1966H25.4848C25.2757 39.1966 25.1113 39.0188 25.1113 38.7926C25.1113 38.5664 25.2757 38.3887 25.4848 38.3887H55.5275C55.7366 38.3887 55.9009 38.5664 55.9009 38.7926C55.9009 39.0188 55.7366 39.1966 55.5275 39.1966Z" fill="#9EC8FF"/>
<path d="M70.6456 40.9747C70.6456 43.7861 68.5391 46.0643 65.9397 46.0643C63.3403 46.0643 61.2339 43.7861 61.2339 40.9747C61.2339 38.1632 63.3403 35.885 65.9397 35.885C68.5391 35.885 70.6456 38.1632 70.6456 40.9747Z" fill="#9CD499"/>
<path d="M65.4769 42.849C65.4769 42.849 65.462 42.849 65.4769 42.849C65.3723 42.849 65.2677 42.8006 65.208 42.7198L63.9232 41.1525C63.7888 40.9909 63.8037 40.7486 63.9531 40.6031C64.1025 40.4577 64.3266 40.4739 64.461 40.6354L65.4918 41.8957L67.9568 39.2944C68.0913 39.1489 68.3303 39.1489 68.4647 39.2944C68.5992 39.4398 68.5992 39.6983 68.4647 39.8437L65.7308 42.7359C65.6562 42.8167 65.5665 42.849 65.4769 42.849Z" fill="white"/>
<path d="M100.823 17.3202H70.885C70.1231 17.3202 69.4956 16.6416 69.4956 15.8176V4.24875C69.4956 3.42471 70.1231 2.74609 70.885 2.74609H100.823C101.585 2.74609 102.212 3.42471 102.212 4.24875V15.8176C102.227 16.6416 101.6 17.3202 100.823 17.3202Z" fill="#9EC8FF"/>
<path d="M73.4395 15.1066V23.1531L82.0145 13.8787C82.0145 13.8787 73.6187 15.1066 73.4395 15.1066Z" fill="#9EC8FF"/>
<path d="M99.3439 15.8656H72.3638C71.7065 15.8656 71.1836 15.2839 71.1836 14.5891V5.44393C71.1836 4.733 71.7214 4.16748 72.3638 4.16748H99.3439C100.001 4.16748 100.524 4.74915 100.524 5.44393V14.5891C100.524 15.2839 100.001 15.8656 99.3439 15.8656Z" fill="white"/>
<path d="M87.1686 7.0601H73.9176C73.6039 7.0601 73.335 6.76926 73.335 6.42995C73.335 6.09064 73.6039 5.7998 73.9176 5.7998H87.1686C87.4823 5.7998 87.7513 6.09064 87.7513 6.42995C87.7363 6.78542 87.4823 7.0601 87.1686 7.0601Z" fill="#9EC8FF"/>
<path d="M98.2384 9.46777H73.6485C73.4692 9.46777 73.3198 9.30619 73.3198 9.1123C73.3198 8.91841 73.4692 8.75684 73.6485 8.75684H98.2384C98.4176 8.75684 98.567 8.91841 98.567 9.1123C98.5521 9.30619 98.4176 9.46777 98.2384 9.46777Z" fill="#9EC8FF"/>
<path d="M98.2384 10.8411H73.6485C73.4692 10.8411 73.3198 10.6795 73.3198 10.4856C73.3198 10.2917 73.4692 10.1301 73.6485 10.1301H98.2384C98.4176 10.1301 98.567 10.2917 98.567 10.4856C98.5521 10.6795 98.4176 10.8411 98.2384 10.8411Z" fill="#9EC8FF"/>
<path d="M93.1595 15.3654H92.3528C92.1884 15.3654 92.0391 15.22 92.0391 15.0261V14.3151C92.0391 14.1374 92.1735 13.9758 92.3528 13.9758H93.1595C93.3238 13.9758 93.4732 14.1212 93.4732 14.3151V15.0261C93.4583 15.22 93.3238 15.3654 93.1595 15.3654Z" fill="#9EC8FF"/>
<path d="M95.744 15.3651H94.9372C94.7729 15.3651 94.6235 15.2197 94.6235 15.0258V14.3149C94.6235 14.1372 94.758 13.9756 94.9372 13.9756H95.744C95.9083 13.9756 96.0577 14.121 96.0577 14.3149V15.0258C96.0427 15.2197 95.9083 15.3651 95.744 15.3651Z" fill="#9EC8FF"/>
<path d="M98.328 15.3651H97.5213C97.3569 15.3651 97.2075 15.2197 97.2075 15.0258V14.3149C97.2075 14.1372 97.342 13.9756 97.5213 13.9756H98.328C98.4923 13.9756 98.6417 14.121 98.6417 14.3149V15.0258C98.6268 15.2197 98.4923 15.3651 98.328 15.3651Z" fill="#9EC8FF"/>
<defs>
<linearGradient id="paint0_linear" x1="119.612" y1="101.51" x2="110.81" y2="71.459" gradientUnits="userSpaceOnUse">
<stop stop-color="#1C8EF4"/>
<stop offset="1" stop-color="#00CFDD"/>
</linearGradient>
<linearGradient id="paint1_linear" x1="122.04" y1="101.496" x2="107.358" y2="78.0868" gradientUnits="userSpaceOnUse">
<stop stop-color="#1C8EF4"/>
<stop offset="1" stop-color="#00CFDD"/>
</linearGradient>
<linearGradient id="paint2_linear" x1="147.31" y1="98.7343" x2="136.17" y2="62.8179" gradientUnits="userSpaceOnUse">
<stop stop-color="#1C8EF4"/>
<stop offset="1" stop-color="#00CFDD"/>
</linearGradient>
<linearGradient id="paint3_linear" x1="150.265" y1="100.452" x2="141.158" y2="72.4724" gradientUnits="userSpaceOnUse">
<stop stop-color="#1C8EF4"/>
<stop offset="1" stop-color="#00CFDD"/>
</linearGradient>
<linearGradient id="paint4_linear" x1="157.382" y1="100.631" x2="149.221" y2="71.2497" gradientUnits="userSpaceOnUse">
<stop stop-color="#1C8EF4"/>
<stop offset="1" stop-color="#00CFDD"/>
</linearGradient>
<linearGradient id="paint5_linear" x1="159.112" y1="101.06" x2="150.85" y2="73.902" gradientUnits="userSpaceOnUse">
<stop stop-color="#1C8EF4"/>
<stop offset="1" stop-color="#00CFDD"/>
</linearGradient>
</defs>
</svg>
