<svg width="185" height="111" viewBox="0 0 185 111" fill="none" xmlns="http://www.w3.org/2000/svg">
<path d="M24.5556 108.784C24.5556 108.784 -19.6534 81.1596 10.5658 51.5354C40.785 21.9112 81.2052 -8.36928 108.31 3.35219C135.416 15.0737 132.977 29.8781 162.736 51.3217C192.51 72.7653 185.623 89.7828 180.284 98.406C174.946 107.029 174.072 109.242 174.072 109.242L24.5556 108.784Z" fill="#E7F3FE"/>
<path d="M58.3334 30.351C64.8835 24.5513 69.6848 28.0159 73.2743 31.8772C76.1275 34.9602 76.5263 35.647 78.8886 38.8369C79.2414 39.31 79.5022 39.8442 79.5175 40.4242C79.5789 43.9498 81.4043 58.8763 79.3795 64.035C77.0325 70.0331 48.0098 72.7803 48.0098 72.7803L58.3334 30.351Z" fill="#303C60"/>
<path d="M76.9098 67.4541C76.7564 67.4541 76.6184 67.332 76.6184 67.1641C76.603 66.9962 76.7411 66.8589 76.8945 66.8589C77.7535 66.8131 78.4591 66.4315 79.042 65.6837C82.2941 61.4865 80.4686 47.491 78.8733 39.8751C78.8426 39.7072 78.95 39.5545 79.1034 39.524C79.2568 39.4935 79.4255 39.6003 79.4562 39.753C79.809 41.4165 80.9748 47.3231 81.3276 53.4585C81.6958 59.7771 81.0822 64.0048 79.5175 66.0347C78.8273 66.9352 77.9529 67.4083 76.9098 67.4541C76.9098 67.4541 76.9251 67.4541 76.9098 67.4541Z" fill="#303C60"/>
<path d="M60.7882 28.6267C48.2096 35.5405 55.8795 58.9529 39.9262 67.3014C35.5083 69.6061 21.9173 81.3428 30.8297 96.8188C36.6435 106.938 54.054 104.755 59.7757 95.7962C65.4821 86.8372 60.7882 28.6267 60.7882 28.6267Z" fill="#303C60"/>
<path d="M27.3014 81.8463C27.2861 81.8463 27.2707 81.8463 27.2554 81.8463C27.0866 81.8311 26.9793 81.6785 26.9946 81.5106C27.01 81.4343 27.2861 79.4654 28.5286 76.8403C29.6791 74.4288 31.934 71.0101 36.0604 68.4002C43.4388 63.73 48.3475 59.3191 54.1459 37.6008C54.1919 37.4482 54.3453 37.3414 54.5141 37.3872C54.6675 37.4329 54.7749 37.5856 54.7288 37.7535C51.9217 48.2539 49.1452 55.3357 45.9852 60.0823C43.0553 64.4778 40.0334 66.5993 36.3825 68.9039C28.7127 73.7573 27.5929 81.5106 27.5929 81.5869C27.5775 81.7395 27.4548 81.8463 27.3014 81.8463Z" fill="#303C60"/>
<path d="M27.5775 75.7872C27.5162 75.7872 27.4701 75.772 27.4241 75.7414C27.2861 75.6499 27.24 75.4667 27.3321 75.3294C29.1575 72.46 31.4738 70.0944 34.2349 68.3239C44.6046 61.6543 46.3226 57.8235 54.8822 35.8457C54.9436 35.6931 55.1123 35.6168 55.2657 35.6778C55.4191 35.7389 55.4958 35.9067 55.4344 36.0594C51.1547 47.0483 48.5929 53.4737 45.8011 58.0371C42.7945 62.9363 39.4044 65.6988 34.5571 68.8123C31.8726 70.537 29.6023 72.8416 27.8383 75.6346C27.7769 75.7262 27.6695 75.7872 27.5775 75.7872Z" fill="#303C60"/>
<path d="M60.3433 43.2329C56.0175 52.1766 56.6771 60.3115 56.6771 60.3115C56.6771 60.3115 57.1834 63.4555 59.1775 64.127C61.1717 64.7833 64.0095 62.7992 63.8408 60.1436C63.672 57.4879 64.5004 51.032 65.5128 48.7121C66.5099 46.377 60.3433 43.2329 60.3433 43.2329Z" fill="#F09959"/>
<path d="M37.4565 105.427C37.7327 107.869 37.1191 107.67 39.2973 108.067C41.4755 108.479 45.3719 106.983 45.3719 106.983L41.0154 98.9097L37.4565 105.427Z" fill="#6791C9"/>
<path d="M57.2136 55.5034C55.9865 59.4716 46.7826 56.4192 43.5613 57.3349C40.34 58.2506 37.5788 71.6815 37.1186 83.7387C36.6584 95.796 37.272 105.411 38.4992 106.937C39.7264 108.464 59.9748 109.074 61.8156 108.464C63.6563 107.853 46.4758 100.222 46.4758 100.222C46.4758 100.222 45.4021 86.1807 46.7826 79.0074C48.1632 71.8341 60.5884 62.3715 60.5884 62.3715L57.2136 55.5034Z" fill="#F09959"/>
<path d="M61.5093 56.7244C64.7306 61.6083 73.1674 60.9978 76.082 64.966C78.9965 68.9342 85.1324 90.7594 85.1324 90.7594L91.5751 68.629C91.5751 68.629 96.8059 67.759 95.1032 71.3762C92.0813 77.8169 90.9615 98.5889 87.6941 101.55C84.0586 104.831 80.4385 102.16 78.3829 96.4217C76.4041 90.8662 71.4801 78.87 67.9519 74.2913C64.4238 69.7126 60.5889 62.3867 60.5889 62.3867L61.5093 56.7244Z" fill="#F09959"/>
<path d="M47.5348 57.3353C53.9775 64.8138 66.5561 64.5086 69.3172 63.5928C72.0783 62.6771 72.0783 62.6771 72.0783 62.6771C72.0783 62.6771 74.2259 61.914 76.0667 64.0507C77.9074 66.1874 82.356 79.6183 83.1229 82.6707C83.8899 85.7232 85.1171 90.7598 85.1171 90.7598C85.1171 90.7598 81.8191 94.6974 81.8191 98.6657C81.8191 102.634 83.215 102.664 83.215 102.664C83.215 102.664 79.1193 101.749 78.1989 99.3067C77.2785 96.8647 68.9951 74.7343 68.9951 74.7343L46.1389 75.1922L46.4457 100.222C46.4457 100.222 44.4515 98.3909 41.6904 100.222C38.9292 102.054 38.0089 106.327 38.4691 106.938C38.9292 107.548 37.5487 107.548 37.5487 107.09C37.5487 106.633 34.9409 95.4911 36.7817 77.1763C38.6225 58.8615 42.1506 56.8774 44.1448 56.7248C46.1543 56.5721 47.5348 57.3353 47.5348 57.3353Z" fill="url(#paint0_linear)"/>
<path d="M82.2944 102.344C82.3405 102.359 82.3558 102.359 82.3558 102.359C82.3558 102.359 82.3405 102.359 82.2944 102.344Z" fill="#6791C9"/>
<path d="M83.1843 91.309C81.8497 91.7211 79.6101 96.3914 79.6101 96.3914C79.6101 96.3914 74.502 85.2957 72.968 69.9265L71.1426 80.3507C73.6583 87.0814 77.6159 97.6429 78.2449 99.2912C79.0886 101.52 82.4786 102.451 82.9542 102.557C82.8314 102.512 82.54 102.344 82.3099 101.672C82.1718 101.55 81.4048 101.199 81.2668 101.062C80.0396 99.9475 80.5458 97.2919 81.3742 94.3462C82.1565 91.4159 84.5188 90.9122 83.1843 91.309Z" fill="url(#paint1_linear)"/>
<path d="M47.2585 75.1614L44.7275 63.623C41.9663 67.4844 41.6595 80.7169 42.7793 89.7827C43.6997 97.2154 45.0803 99.1385 46.0313 99.9169C46.3075 100.085 46.4609 100.222 46.4609 100.222L46.1541 75.1919L47.2585 75.1614Z" fill="url(#paint2_linear)"/>
<path d="M39.9106 63.5315C44.6199 76.1534 42.2576 78.7023 48.4549 93.5067C51.9063 101.779 58.5791 108.006 58.5791 108.006C58.5791 108.006 63.948 109.38 70.6974 108.922C77.4469 108.464 82.3863 108.006 82.3863 108.006C82.3863 108.006 75.2994 103.732 74.9926 100.833C74.6858 97.9328 73.3512 86.425 75.1 78.2902C76.4652 71.9258 70.8508 65.5767 70.8508 65.5767L61.4936 65.1188L39.9106 63.5315Z" fill="url(#paint3_linear)"/>
<path opacity="0.5" d="M48.2096 82.8688C47.3966 79.9231 51.6917 83.7845 58.748 84.5019C65.8042 85.2192 73.6888 84.0898 69.7926 85.3107C65.9116 86.5317 55.2659 84.7003 57.214 88.5616C59.4996 93.1098 62.1994 97.5206 66.111 100.161C68.6728 101.886 74.8086 103.519 68.8722 102.603C62.9357 101.687 56.6004 94.7734 53.8393 90.2863C51.0628 85.8144 48.3783 83.5251 48.2096 82.8688Z" fill="url(#paint4_linear)"/>
<path d="M63.8252 58.9835C63.8865 55.931 64.6382 50.7418 65.5125 48.7119C66.2335 47.0484 63.2729 44.9574 61.5242 43.9043L60.0516 43.8433C59.8215 44.3317 59.622 44.8048 59.4226 45.2932C57.8733 55.4274 62.5059 59.6093 64.7302 60.4487C65.6812 60.815 66.755 60.8455 67.6754 60.7692C66.3102 60.2808 64.9756 59.7313 63.8252 58.9835Z" fill="#E38540"/>
<path d="M61.0184 63.4858C60.4815 63.4858 59.9293 63.4248 59.3924 63.2874C58.1192 62.9822 55.0512 61.7917 54.3456 57.564C54.3303 57.4725 54.3916 57.3809 54.4837 57.3656C54.5757 57.3504 54.6677 57.4114 54.6831 57.503C55.358 61.5475 58.2572 62.6617 59.4691 62.9669C61.3558 63.4248 63.3654 62.9974 64.1324 61.9749C64.7459 61.1507 64.3778 59.4108 64.3778 59.3955C64.3624 59.3039 64.4085 59.2124 64.5005 59.1971C64.5925 59.1818 64.6846 59.2276 64.6999 59.3192C64.7153 59.3955 65.1141 61.227 64.3931 62.1733C63.7642 63.0127 62.4757 63.4858 61.0184 63.4858Z" fill="#F5CE5C"/>
<path d="M75.4527 47.2163C74.4096 52.6802 72.0013 57.091 67.9363 56.2669C63.8712 55.4427 59.5915 49.6583 60.7113 44.2096C61.8311 38.761 66.0495 35.0064 70.1145 35.8459C74.1949 36.67 76.8486 39.9362 75.4527 47.2163Z" fill="#F09959"/>
<path d="M89.9332 74.2153C89.9332 74.2153 82.4168 94.3158 82.0639 96.4068C81.7111 98.4977 82.4167 99.8103 82.6315 99.8103C82.8309 99.8103 89.2276 88.9282 89.2276 88.9282L89.9332 74.2153Z" fill="#F09959"/>
<path d="M90.2398 73.3302C90.8534 71.3003 89.9023 68.7209 89.9023 68.7209L92.6328 69.0567L90.2398 73.3302Z" fill="#F09959"/>
<path d="M93.2315 69.8654H85.623C85.1628 69.8654 84.8253 69.4228 84.9634 68.9801L89.7647 52.9547C89.8567 52.6647 90.1175 52.4663 90.4243 52.4663H98.0328C98.493 52.4663 98.8305 52.9089 98.6924 53.3515L93.8911 69.377C93.8144 69.667 93.5383 69.8654 93.2315 69.8654Z" fill="#4381DB"/>
<path d="M94.1978 69.8654H86.5893C86.1291 69.8654 85.7916 69.4228 85.9297 68.9801L90.731 52.9547C90.8231 52.6647 91.0838 52.4663 91.3906 52.4663H98.9991C99.4593 52.4663 99.7968 52.9089 99.6587 53.3515L94.8574 69.377C94.7653 69.667 94.5046 69.8654 94.1978 69.8654Z" fill="#2E5B9A"/>
<path d="M88.6909 58.2504C87.8779 61.1655 87.341 63.5464 87.4637 63.5922C87.5865 63.638 88.3688 61.3029 89.1818 58.3878C89.9948 55.4727 90.5317 53.0917 90.409 53.046C90.2709 53.0154 89.4886 55.3353 88.6909 58.2504Z" fill="#9CBEED"/>
<path d="M93.8604 74.6273C94.0905 71.9869 96.3914 69.4991 97.2658 68.7207C97.5266 68.4766 97.68 68.1408 97.68 67.7745C97.6646 66.4619 97.6033 63.3484 97.3272 62.9821C96.9743 62.5242 96.1 56.5719 95.7011 56.8009C95.287 57.0298 95.8239 62.2343 95.8239 62.2343C95.8239 62.2343 94.8421 61.7764 94.3206 61.5475C93.799 61.3185 91.6515 63.6842 91.6515 63.6842C91.6515 63.6842 90.639 66.2177 93.4002 65.1341C96.6675 63.8521 94.2132 67.4387 92.0349 69.7433C90.2402 71.6511 91.7742 72.0632 91.7742 72.0632L93.2315 72.0021L93.8604 74.6273Z" fill="#F09959"/>
<path d="M93.032 76.7031C92.7866 76.7031 92.5104 76.6726 92.2496 76.581C91.544 76.3673 90.3015 75.65 89.9794 73.3759C89.9641 73.2843 90.0254 73.1928 90.1174 73.1928C90.2095 73.1775 90.3015 73.2385 90.3015 73.3301C90.5776 75.2837 91.5287 75.9858 92.2804 76.2452C92.8939 76.4589 93.4001 76.3521 93.5229 76.291C93.5382 76.23 93.5689 76.1842 93.6302 76.1536C93.7223 76.1231 93.8143 76.1537 93.845 76.2452C93.8757 76.3368 93.8603 76.4284 93.7836 76.5047C93.6762 76.6268 93.3848 76.7031 93.032 76.7031Z" fill="#F5CE5C"/>
<path d="M92.7404 76.046C92.5103 76.046 92.2802 76.0307 92.0501 76.0002C90.7309 75.8171 89.8565 75.1458 89.6264 74.1846C89.6111 74.0931 89.6571 74.0015 89.7492 73.9863C89.8412 73.971 89.9332 74.0168 89.9486 74.1084C90.1633 75.0238 91.007 75.4204 91.6666 75.5883C92.6024 75.8171 93.492 75.6798 93.5994 75.5577C93.6454 75.4815 93.7528 75.4509 93.8295 75.4967C93.9062 75.5425 93.9369 75.6493 93.8909 75.7256C93.7989 75.9544 93.2926 76.046 92.7404 76.046Z" fill="#F5CE5C"/>
<path d="M70.7898 50.055C70.7131 50.055 70.621 50.055 70.5443 50.0397C69.2558 49.8413 68.4735 48.193 68.7649 46.2699C68.903 45.3847 69.2558 44.5758 69.762 43.9958C70.2989 43.3853 70.9585 43.0953 71.5874 43.2022C72.876 43.4006 73.6583 45.0489 73.3669 46.972C73.0907 48.7577 71.9863 50.055 70.7898 50.055ZM71.342 43.7821C70.9585 43.7821 70.5597 43.9958 70.2069 44.3926C69.7773 44.881 69.4706 45.5831 69.3479 46.3615C69.1178 47.903 69.7006 49.3071 70.621 49.4597C71.5414 49.5971 72.5385 48.4219 72.7686 46.8804C72.9987 45.3389 72.4158 43.9348 71.4954 43.7821C71.4494 43.7821 71.4034 43.7821 71.342 43.7821Z" fill="white"/>
<path d="M75.0385 50.0699C74.9925 50.0699 74.9618 50.0699 74.9158 50.0546C74.0721 49.9325 73.6119 48.4979 73.8727 46.819C74.1335 45.1249 75.0078 43.9039 75.8361 44.0413C76.2657 44.1023 76.6185 44.4992 76.8025 45.1554C76.9713 45.7507 77.002 46.4985 76.8792 47.2769C76.6492 48.8794 75.8515 50.0699 75.0385 50.0699ZM75.7288 44.4686C75.2379 44.4686 74.5476 45.4149 74.3329 46.8801C74.1028 48.3911 74.5016 49.5357 74.9925 49.612C75.4987 49.6884 76.2196 48.7116 76.4497 47.2006C76.5571 46.4833 76.5418 45.7965 76.3884 45.2623C76.2503 44.7892 76.0356 44.4992 75.7901 44.4686C75.7595 44.4686 75.7441 44.4686 75.7288 44.4686Z" fill="white"/>
<path d="M69.3786 45.0032C69.3479 45.0032 69.3172 45.0032 69.3019 44.988L59.285 42.1339C59.1316 42.0881 59.0396 41.9202 59.0856 41.7676C59.1316 41.615 59.3004 41.5234 59.4538 41.5692L69.4706 44.4233C69.624 44.4691 69.716 44.6369 69.67 44.7895C69.624 44.9116 69.5013 45.0032 69.3786 45.0032Z" fill="white"/>
<path d="M76.5418 38.8066C61.0333 47.903 60.1743 41.798 60.1743 41.798L61.0947 33.1138L70.2985 33.6174L76.5418 38.8066Z" fill="#303C60"/>
<path d="M61.3711 43.8127C61.7392 45.3542 61.233 46.7736 60.2666 47.0025C59.3002 47.2315 58.2264 46.1631 57.8582 44.6216C57.4901 43.0801 57.9963 41.6607 58.9627 41.4318C59.9291 41.2028 61.0029 42.2712 61.3711 43.8127Z" fill="#F09959"/>
<path d="M60.3121 45.8271C60.3121 46.1627 60.036 46.4373 59.6985 46.4373C59.3611 46.4373 59.085 46.1627 59.085 45.8271C59.085 45.4914 59.3611 45.2168 59.6985 45.2168C60.036 45.2168 60.3121 45.4914 60.3121 45.8271Z" fill="#F5CE5C"/>
<path d="M179.978 110.768H24.8011C24.0188 110.768 23.3745 110.127 23.3745 109.349C23.3745 108.571 24.0188 107.93 24.8011 107.93H179.978C180.76 107.93 181.404 108.571 181.404 109.349C181.404 110.127 180.775 110.768 179.978 110.768Z" fill="#2E5B9A"/>
<path d="M61.5857 107.67C61.5857 107.67 55.7412 107.747 55.6645 108.265C55.5878 108.784 55.8793 108.998 57.9655 109.364C60.0363 109.73 83.368 109.883 83.5828 109.73C83.7976 109.578 90.6237 107.96 90.6237 107.96L74.2563 107.67H61.5857V107.67Z" fill="#DBE5EB"/>
<path d="M64.7764 103.794C64.7764 103.794 68.9641 101.962 70.1913 102.771C71.4185 103.58 74.9619 107.319 74.9619 107.319L64.7764 103.794Z" fill="#F09959"/>
<path d="M74.7322 107.655C74.6555 107.762 74.5328 107.792 74.4714 107.746L65.8351 101.352C65.3749 101.001 65.1448 100.482 65.3749 100.207C65.605 99.9322 66.1573 100.024 66.6021 100.405L74.7628 107.38C74.8242 107.441 74.8089 107.563 74.7322 107.655Z" fill="#ECF1F9"/>
<path d="M52.0903 103.015C52.0903 103.015 59.0392 105.763 59.8675 105.763C60.6805 105.763 65.2517 102.71 66.7857 103.122C68.3197 103.534 75.8208 107.289 75.6214 107.594C75.422 107.899 73.2744 108.617 66.9238 108.403C60.5885 108.205 50.2495 107.289 50.2495 107.289L52.0903 103.015Z" fill="#F09959"/>
<path d="M139.128 108.067H110.78C110.366 108.067 110.013 107.731 110.013 107.304V102.847C110.013 102.435 110.351 102.084 110.78 102.084H139.128C140.186 102.084 141.045 102.939 141.045 103.992V106.144C141.045 107.212 140.186 108.067 139.128 108.067Z" fill="#F37168"/>
<path d="M136.934 103.107H110.013C109.829 103.412 109.706 103.778 109.706 104.175V105.991C109.706 106.373 109.813 106.739 110.013 107.06H136.934C137.885 107.06 138.667 106.281 138.667 105.335V104.847C138.667 103.885 137.885 103.107 136.934 103.107Z" fill="#F2E5DE"/>
<path d="M138.177 102.1H116.625C116.348 102.1 116.103 101.871 116.103 101.581V99.0013C116.103 98.7266 116.333 98.4824 116.625 98.4824H138.177C138.883 98.4824 139.465 99.0624 139.465 99.7645V100.802C139.465 101.52 138.883 102.1 138.177 102.1Z" fill="#7BCEE8"/>
<path d="M136.382 99.0928H116.118C115.98 99.2759 115.888 99.5047 115.888 99.7336V100.832C115.888 101.061 115.965 101.29 116.118 101.473H136.382C137.103 101.473 137.686 101 137.686 100.42V100.13C137.686 99.5657 137.103 99.0928 136.382 99.0928Z" fill="#F2E5DE"/>
<path d="M141.859 25.4824H118.88C118.143 25.4824 117.76 24.8872 118.036 24.1546L121.518 14.6462C121.779 13.9136 122.607 13.3184 123.344 13.3184H146.338C147.074 13.3184 147.458 13.9136 147.181 14.6462L143.699 24.1546C143.423 24.8872 142.595 25.4824 141.859 25.4824Z" fill="#9EC8FF"/>
<path d="M141.091 24.4899H120.382C119.754 24.4899 119.416 23.971 119.646 23.3452L122.53 15.4699C122.76 14.8441 123.466 14.3252 124.11 14.3252H144.819C145.448 14.3252 145.785 14.8441 145.555 15.4699L142.671 23.3452C142.426 23.971 141.72 24.4899 141.091 24.4899Z" fill="white"/>
<path d="M127.991 24.9331C126.089 29.9391 123.144 31.4959 123.144 31.4959C123.144 31.4959 125.23 28.6266 124.923 27.2225C124.616 25.8183 123.496 25.2384 123.496 25.2384L127.991 24.9331Z" fill="#9EC8FF"/>
<path d="M142.748 17.1175H129.402C129.188 17.1175 129.065 16.9344 129.142 16.7208V16.7055C129.218 16.4919 129.464 16.3088 129.678 16.3088H143.024C143.239 16.3088 143.362 16.4919 143.269 16.7055V16.7208C143.208 16.9496 142.963 17.1175 142.748 17.1175Z" fill="#9EC8FF"/>
<path d="M142.135 18.8128H128.789C128.574 18.8128 128.452 18.6297 128.544 18.4161V18.4008C128.62 18.1872 128.866 18.0042 129.081 18.0042H142.426C142.641 18.0042 142.764 18.1872 142.687 18.4008V18.4161C142.595 18.6449 142.349 18.8128 142.135 18.8128Z" fill="#9EC8FF"/>
<path d="M141.429 20.7354H128.083C127.868 20.7354 127.746 20.5523 127.822 20.3387V20.3234C127.899 20.1098 128.144 19.9268 128.359 19.9268H141.705C141.919 19.9268 142.042 20.1098 141.95 20.3234V20.3387C141.889 20.5523 141.643 20.7354 141.429 20.7354Z" fill="#9EC8FF"/>
<path d="M127.316 18.4913C126.795 19.9413 125.399 21.1012 124.218 21.1012C123.037 21.1012 122.5 19.926 123.021 18.4913C123.543 17.0414 124.939 15.8815 126.12 15.8815C127.316 15.8662 127.853 17.0414 127.316 18.4913Z" fill="#9EC8FF"/>
<path d="M128.805 50.2072H127.669C127.424 50.2072 127.301 50.0088 127.393 49.78L127.731 48.8493C127.823 48.6052 128.084 48.4221 128.329 48.4221H129.464C129.71 48.4221 129.832 48.6205 129.74 48.8493L129.403 49.78C129.311 50.0088 129.035 50.2072 128.805 50.2072Z" fill="#9EC8FF"/>
<path d="M132.455 50.2072H131.32C131.074 50.2072 130.952 50.0088 131.044 49.78L131.381 48.8493C131.473 48.6052 131.734 48.4221 131.979 48.4221H133.115C133.36 48.4221 133.483 48.6205 133.391 48.8493L133.053 49.78C132.961 50.0088 132.7 50.2072 132.455 50.2072Z" fill="#9EC8FF"/>
<path d="M136.106 50.2072H134.971C134.726 50.2072 134.603 50.0088 134.695 49.78L135.033 48.8493C135.125 48.6052 135.385 48.4221 135.631 48.4221H136.766C137.011 48.4221 137.134 48.6205 137.042 48.8493L136.705 49.78C136.613 50.0088 136.352 50.2072 136.106 50.2072Z" fill="#9EC8FF"/>
<path d="M114.308 43.0191H91.3143C90.578 43.0191 90.1945 42.4238 90.4706 41.6912L93.9527 32.1828C94.2135 31.4502 95.0418 30.855 95.7781 30.855H118.772C119.509 30.855 119.892 31.4502 119.616 32.1828L116.134 41.6912C115.858 42.4238 115.045 43.0191 114.308 43.0191Z" fill="#9EC8FF"/>
<path d="M113.526 42.0265H92.8176C92.1886 42.0265 91.8511 41.5076 92.0812 40.8818L94.9651 33.0065C95.1952 32.3807 95.9008 31.8618 96.5451 31.8618H117.254C117.883 31.8618 118.22 32.3807 117.99 33.0065L115.106 40.8818C114.876 41.5076 114.17 42.0265 113.526 42.0265Z" fill="white"/>
<path d="M92.4798 42.4695C90.7157 47.4755 92.5258 49.0323 92.5258 49.0323C92.5258 49.0323 92.5412 46.163 93.8604 44.7588C95.1796 43.3547 96.7289 42.7747 96.7289 42.7747L92.4798 42.4695Z" fill="#9EC8FF"/>
<path d="M107.912 35.3262H96.6524C96.453 35.3262 96.3456 35.1584 96.4223 34.96L96.453 34.8837C96.5297 34.6854 96.7445 34.5176 96.9592 34.5176H108.219C108.418 34.5176 108.525 34.6854 108.449 34.8837L108.418 34.96C108.341 35.1584 108.111 35.3262 107.912 35.3262Z" fill="#9EC8FF"/>
<path d="M107.298 37.0203H96.0235C95.8241 37.0203 95.7167 36.8525 95.7934 36.6541L95.8241 36.5778C95.9008 36.3795 96.1156 36.2117 96.3303 36.2117H107.59C107.789 36.2117 107.896 36.3795 107.82 36.5778L107.789 36.6541C107.712 36.8525 107.498 37.0203 107.298 37.0203Z" fill="#9EC8FF"/>
<path d="M106.592 38.928H95.3331C95.1337 38.928 95.0263 38.7602 95.103 38.5618L95.1337 38.4856C95.2104 38.2872 95.4251 38.1194 95.6399 38.1194H106.899C107.099 38.1194 107.206 38.2872 107.129 38.4856L107.099 38.5618C107.022 38.7754 106.792 38.928 106.592 38.928Z" fill="#9EC8FF"/>
<path d="M135.247 53.7783H113.051C112.652 53.7783 112.452 53.6105 112.59 53.4122L112.652 53.3359C112.79 53.1375 113.235 52.9697 113.634 52.9697H135.83C136.229 52.9697 136.428 53.1375 136.29 53.3359L136.229 53.4122C136.091 53.6105 135.646 53.7783 135.247 53.7783Z" fill="#9EC8FF"/>
<path d="M134.035 56.5713H111.839C111.44 56.5713 111.241 56.4035 111.379 56.2051L111.44 56.1289C111.578 55.9305 112.023 55.7627 112.422 55.7627H134.618C135.017 55.7627 135.216 55.9305 135.078 56.1289L135.017 56.2051C134.879 56.4187 134.434 56.5713 134.035 56.5713Z" fill="#9EC8FF"/>
<path d="M111.824 39.5989H110.198C109.461 39.5989 109.078 39.0037 109.354 38.2711L110.566 34.9592C110.827 34.2266 111.655 33.6313 112.391 33.6313H114.017C114.753 33.6313 115.137 34.2266 114.861 34.9592L113.649 38.2711C113.373 39.0037 112.56 39.5989 111.824 39.5989Z" fill="#9EC8FF"/>
<defs>
<linearGradient id="paint0_linear" x1="72.0715" y1="100.485" x2="64.4392" y2="68.6135" gradientUnits="userSpaceOnUse">
<stop stop-color="#1C8EF4"/>
<stop offset="1" stop-color="#00CFDD"/>
</linearGradient>
<linearGradient id="paint1_linear" x1="80.2718" y1="98.0968" x2="70.6555" y2="82.2479" gradientUnits="userSpaceOnUse">
<stop stop-color="#1C8EF4"/>
<stop offset="1" stop-color="#00CFDD"/>
</linearGradient>
<linearGradient id="paint2_linear" x1="45.9041" y1="95.2191" x2="35.1683" y2="88.7697" gradientUnits="userSpaceOnUse">
<stop stop-color="#1C8EF4"/>
<stop offset="1" stop-color="#00CFDD"/>
</linearGradient>
<linearGradient id="paint3_linear" x1="71.0762" y1="102.798" x2="64.0214" y2="74.321" gradientUnits="userSpaceOnUse">
<stop stop-color="#1C8EF4"/>
<stop offset="1" stop-color="#00CFDD"/>
</linearGradient>
<linearGradient id="paint4_linear" x1="65.1834" y1="99.9832" x2="62.3682" y2="86.5587" gradientUnits="userSpaceOnUse">
<stop stop-color="#1C8EF4"/>
<stop offset="1" stop-color="#00CFDD"/>
</linearGradient>
</defs>
</svg>
