<svg width="186" height="111" viewBox="0 0 186 111" fill="none" xmlns="http://www.w3.org/2000/svg">
<path d="M164.686 107.923C164.686 107.923 204.161 34.7749 174.612 17.7183C151.033 4.0994 130.353 27.9288 105.117 11.3422C72.5685 -10.0631 47.8895 4.26101 30.2515 30.9111C17.0123 50.906 9.99992 63.8344 3.35888 79.4072C-6.98115 103.663 14.9414 109.187 14.9414 109.187L164.686 107.923Z" fill="#E7F3FE"/>
<path d="M55.6021 108.393L73.5971 108.423C73.8542 108.423 74.0684 108.158 74.0827 107.82C74.097 107.497 73.9113 107.203 73.6543 107.174L55.7306 105.514C54.2739 105.382 52.9457 105.955 52.9171 106.807C52.8743 107.688 54.1453 108.393 55.6021 108.393Z" fill="#75A1DE"/>
<path d="M78.91 105.778C78.2959 105.617 77.1534 102.12 77.1534 102.12C77.1534 102.12 90.1498 97.6099 95.6626 94.6716L103.346 103.81C93.4775 106.351 79.367 105.896 78.91 105.778Z" fill="#F09959"/>
<path d="M80.9095 100.739C77.7103 101.591 72.626 99.4613 71.6691 99.6816C70.7122 99.8873 66.7419 102.018 65.785 103.09C64.8281 104.148 61.4576 107.453 62.0718 107.659C62.6716 107.865 66.9133 104.677 67.4274 104.574C67.9416 104.471 68.1986 105.206 72.4403 106.058C76.682 106.91 81.7949 104.706 81.7949 104.706L80.9095 100.739Z" fill="#F09959"/>
<path d="M75.8105 104.045C75.8105 104.045 70.8833 102.767 70.2835 102.987C69.6837 103.193 65.9989 104.045 63.4568 107.027C65.8704 106.278 69.3409 106.072 70.2835 106.072C71.2404 106.057 75.8105 104.045 75.8105 104.045Z" fill="#E38540"/>
<path d="M74.6395 101.914C72.5401 104.676 67.1987 105.528 66.3846 106.483C65.5706 107.438 68.327 107.042 69.7837 106.909C73.4827 106.586 76.0677 108.129 79.0669 107.174C82.0661 106.219 82.7373 103.927 82.7373 103.927L74.6395 101.914Z" fill="#F09959"/>
<path d="M114.071 52.816C123.569 57.62 127.911 61.1313 130.853 74.2066C133.795 87.2965 133.952 99.7401 132.409 108.996C121.869 109.304 91.6776 110.479 91.6776 110.479C91.6776 110.479 92.2489 91.4836 95.3337 76.4397C98.2758 62.0862 102.475 56.4888 106.031 53.9472C109.616 51.3909 114.071 52.816 114.071 52.816Z" fill="url(#paint0_linear)"/>
<path d="M111.786 97.3453C115.185 93.8341 114.271 70.0635 119.855 59.3682L130.252 79.319L133.394 95.9202C133.423 100.71 133.066 105.132 132.423 109.01C132.38 109.231 132.195 109.378 131.981 109.363C123.397 108.584 122.926 104.75 95.5191 100.504C94.8621 100.372 109.472 99.7253 111.786 97.3453Z" fill="url(#paint1_linear)"/>
<path d="M114.985 52.8158C116.185 55.6953 113.743 59.4857 109.887 62.468C106.031 65.4504 103.688 63.8197 103.888 61.469C104.088 59.1184 104.303 56.6503 105.202 55.1518C106.102 53.6679 113.271 52.3898 113.271 52.3898C113.271 52.3898 114.771 52.3163 114.985 52.8158Z" fill="white"/>
<path d="M110.401 38.3447L114.086 52.8157C114.443 53.7853 114.343 54.8725 113.815 55.754C112.315 58.2515 109.087 63.0262 106.788 62.3944C103.689 61.5424 105.76 55.5924 105.76 55.5924L101.618 40.5925L110.401 38.3447Z" fill="#F09959"/>
<path d="M104.76 39.241L108.43 37.7131L109.53 40.6661C109.03 53.2419 107.473 58.3692 105.074 59.7942C104.945 57.855 105.731 55.5778 105.731 55.5778L102.732 44.4124L104.76 39.241Z" fill="#E38540"/>
<path d="M94.5482 44.912C95.2623 49.9071 97.1761 54.1822 100.647 53.6533C104.117 53.1245 110.073 48.9521 109.344 43.9571C108.616 38.962 100.846 32.9826 97.376 33.5115C93.9198 34.0404 93.8341 39.9169 94.5482 44.912Z" fill="#F09959"/>
<path d="M120.927 63.6729C120.655 62.5416 125.068 61.8658 125.768 62.7767C132.709 71.8706 143.52 96.4052 141.092 100.842C138.308 105.955 108.216 99.2406 107.602 99.079C106.988 98.9174 108.687 94.128 108.687 94.128C108.687 94.128 125.54 94.4512 128.382 92.4826C119.555 75.4259 123.026 72.2673 120.927 63.6729Z" fill="#F09959"/>
<path d="M122.64 58.5747C129.938 61.939 137.836 83.7851 137.836 83.7851C137.836 83.7851 135.979 84.2699 129.924 86.3414C127.41 87.2082 124.968 88.0015 124.968 88.0015C124.968 88.0015 119.184 80.2738 117.356 74.2063C115.014 66.4052 118.141 56.4886 122.64 58.5747Z" fill="url(#paint2_linear)"/>
<path d="M137.065 81.7285C130.239 82.6394 126.168 85.0781 124.098 86.7529C123.783 86.3122 123.412 85.7539 122.998 85.1222C124.44 83.7412 127.554 81.273 132.095 80.6119C133.938 80.3475 135.337 80.1712 136.408 80.0684C136.651 80.6854 136.865 81.2437 137.065 81.7285Z" fill="white"/>
<path d="M135.494 77.9233C135.608 78.2025 135.723 78.4669 135.837 78.7167C129.839 78.4669 124.097 81.4786 122.641 83.3004C122.469 83.5207 122.326 83.7117 122.184 83.8733C122.026 83.6383 121.884 83.3885 121.726 83.1388C122.712 82.1398 124.454 80.5384 126.225 79.7451C129.839 78.1437 135.023 77.938 135.494 77.9233Z" fill="white"/>
<path d="M95.3051 100.401H102.946L104.088 85.71H94.0626L95.3051 100.401Z" fill="#D3E3FA"/>
<path d="M109.616 94.2013C107.502 94.1425 104.032 91.645 102.846 90.9545C101.661 90.264 94.934 88.7802 94.6198 89.5148C94.3056 90.264 100.261 91.8066 100.261 91.8066L95.8195 92.0123C95.8195 92.0123 94.5198 94.0397 94.4199 95.3619C94.3199 96.6988 94.834 98.6087 94.834 98.6087L96.8049 96.8017C96.8049 96.8017 98.4045 97.7125 100.418 98.9319C102.432 100.151 106.06 99.4167 107.602 99.0935C109.159 98.7703 112.772 97.6097 112.772 97.6097L109.616 94.2013Z" fill="#F09959"/>
<path d="M137.336 93.5109C137.336 93.5109 133.909 91.4688 130.453 91.9683C128.482 92.2474 128.267 92.5853 128.382 92.4972C127.953 91.6745 127.553 90.8811 127.182 90.1172C128.996 90.2053 133.595 90.7048 137.336 93.5109Z" fill="#E38540"/>
<path d="M29.0659 68.4622V104.676C29.0659 105.881 30.1656 106.851 31.5367 106.851H38.9346C40.1914 106.851 41.2197 107.762 41.2197 108.878H30.5798C28.2947 108.878 26.4381 107.233 26.4381 105.205V68.4475H29.0659V68.4622Z" fill="#6791C9"/>
<path d="M34.4787 99.4756L35.6498 99.2406C36.421 99.0936 36.9209 98.4031 36.7495 97.7126L27.552 60.9402C27.3807 60.2497 26.6094 59.8237 25.8382 59.9706L24.6671 60.2057C23.8959 60.3526 23.396 61.0431 23.5674 61.7335L32.7649 98.506C32.922 99.1965 33.7075 99.6225 34.4787 99.4756Z" fill="#95BEF5"/>
<path d="M34.1503 99.5346L34.2931 99.5052C34.893 99.3877 35.2786 98.8588 35.1358 98.3299L25.7954 60.9992C25.6669 60.4703 25.0671 60.1324 24.4672 60.2499L24.3244 60.2793C23.7246 60.3968 23.339 60.9257 23.4818 61.4546L32.8221 98.7853C32.9649 99.3142 33.5647 99.6521 34.1503 99.5346Z" fill="#75A1DE"/>
<path d="M9.65707 110.979H167.714C168.442 110.979 169.042 110.377 169.042 109.613C169.042 108.863 168.442 108.246 167.714 108.246H9.67134C8.94297 108.246 8.34315 108.863 8.34315 109.613C8.34315 110.362 8.92869 110.979 9.65707 110.979Z" fill="#2E5B9A"/>
<path d="M108.801 32.1157C115.956 36.6847 111.429 41.621 113.329 50.1126C112.158 50.524 110.886 48.1587 110.072 46.2929C109.258 44.4271 108.53 41.7239 108.259 41.812C107.987 41.9002 107.53 46.1019 107.53 46.1019L106.445 46.6602C106.445 46.6602 104.902 43.8688 104.988 43.2077C105.074 42.5613 106.345 39.3879 104.802 37.8894C103.817 36.9345 99.7323 39.006 99.7323 39.006L103.717 33.1294L108.801 32.1157Z" fill="#F09959"/>
<path opacity="0.5" d="M108.801 32.1157C115.956 36.6847 111.429 41.621 113.329 50.1126C112.158 50.524 110.886 48.1587 110.072 46.2929C109.258 44.4271 108.53 41.7239 108.259 41.812C107.987 41.9002 107.53 46.1019 107.53 46.1019L106.445 46.6602C106.445 46.6602 104.902 43.8688 104.988 43.2077C105.074 42.5613 106.345 39.3879 104.802 37.8894C103.817 36.9345 99.7323 39.006 99.7323 39.006L103.717 33.1294L108.801 32.1157Z" fill="#2E5B9A"/>
<path d="M93.1193 37.0521C93.4764 41.5329 100.232 40.1226 103.359 36.1265C106.344 32.3068 108.815 34.9365 111.786 36.2147C116.77 38.3596 111.157 25.9601 101.089 27.914C93.5478 29.3832 92.8765 34.0697 93.1193 37.0521Z" fill="#2E5B9A"/>
<path d="M108.116 41.8121C107.802 43.4869 108.416 45.0001 109.473 45.2058C110.53 45.4115 111.644 44.2215 111.944 42.5613C112.244 40.9012 111.644 39.3733 110.587 39.1676C109.53 38.962 108.416 40.1373 108.116 41.8121Z" fill="#F09959"/>
<path d="M31.8514 51.6995H66.8561C67.256 51.6995 67.5845 51.3616 67.5845 50.9503V30.1033C67.5845 29.6919 67.256 29.354 66.8561 29.354H31.8514C31.4515 29.354 31.123 29.6919 31.123 30.1033V50.9503C31.123 51.3763 31.4515 51.6995 31.8514 51.6995Z" fill="#9EC8FF"/>
<path d="M32.8649 51.0237H65.813C66.1558 51.0237 66.4414 50.7299 66.4414 50.3773V33.6144C66.4414 33.2618 66.1558 32.968 65.813 32.968H32.8649C32.5221 32.968 32.2365 33.2618 32.2365 33.6144V50.3773C32.2365 50.7299 32.5221 51.0237 32.8649 51.0237Z" fill="white"/>
<path d="M64.9992 31.8814H65.7704C65.9275 31.8814 66.0703 31.7492 66.0703 31.5729V30.9264C66.0703 30.7648 65.9418 30.6179 65.7704 30.6179H64.9992C64.8421 30.6179 64.6993 30.7501 64.6993 30.9264V31.5729C64.7135 31.7492 64.8421 31.8814 64.9992 31.8814Z" fill="white"/>
<path d="M62.5285 31.8809H63.2997C63.4568 31.8809 63.5996 31.7487 63.5996 31.5724V30.9259C63.5996 30.7643 63.4711 30.6174 63.2997 30.6174H62.5285C62.3714 30.6174 62.2286 30.7497 62.2286 30.9259V31.5724C62.2428 31.7487 62.3714 31.8809 62.5285 31.8809Z" fill="white"/>
<path d="M60.0578 31.8809H60.829C60.9861 31.8809 61.1289 31.7487 61.1289 31.5724V30.9259C61.1289 30.7643 61.0004 30.6174 60.829 30.6174H60.0578C59.9007 30.6174 59.7579 30.7497 59.7579 30.9259V31.5724C59.7721 31.7487 59.9007 31.8809 60.0578 31.8809Z" fill="white"/>
<path d="M33.3934 49.9513H65.2847V34.0259H33.3934V49.9513ZM65.1847 49.8338H33.5219V34.1434H65.1847V49.8338Z" fill="#9EC8FF"/>
<path d="M33.4647 46.675H65.2417V46.7926H33.4647V46.675Z" fill="#9EC8FF"/>
<path d="M33.4647 43.5164H65.2417V43.6339H33.4647V43.5164Z" fill="#9EC8FF"/>
<path d="M33.4647 40.343H65.2417V40.4606H33.4647V40.343Z" fill="#9EC8FF"/>
<path d="M33.4647 37.1843H65.2417V37.3019H33.4647V37.1843Z" fill="#9EC8FF"/>
<path d="M37.9357 34.0833H38.0493V49.8911H37.9357V34.0833Z" fill="#9EC8FF"/>
<path d="M42.4772 34.0833H42.5908V49.8911H42.4772V34.0833Z" fill="#9EC8FF"/>
<path d="M47.0187 34.0833H47.1323V49.8911H47.0187V34.0833Z" fill="#9EC8FF"/>
<path d="M51.5607 34.0833H51.6743V49.8911H51.5607V34.0833Z" fill="#9EC8FF"/>
<path d="M56.1027 34.0833H56.2163V49.8911H56.1027V34.0833Z" fill="#9EC8FF"/>
<path d="M60.6442 34.0833H60.7578V49.8911H60.6442V34.0833Z" fill="#9EC8FF"/>
<path d="M34.6501 36.0823H35.7212C36.1354 36.0823 36.4639 35.7445 36.4639 35.3184C36.4639 34.8924 36.1354 34.5544 35.7212 34.5544H34.6501C34.2359 34.5544 33.9074 34.8924 33.9074 35.3184C33.9074 35.7445 34.2359 36.0823 34.6501 36.0823Z" fill="#F39892"/>
<path d="M34.2645 42.4586H36.1068C36.3068 42.4586 36.4639 42.297 36.4639 42.0913V41.2979C36.4639 41.0923 36.3068 40.9307 36.1068 40.9307H34.2645C34.0645 40.9307 33.9074 41.0923 33.9074 41.2979V42.0913C33.9074 42.297 34.0645 42.4586 34.2645 42.4586Z" fill="#F39892"/>
<path d="M57.2292 39.9463H59.7428C60.0142 39.9463 60.2427 39.7112 60.2427 39.4321V38.2127C60.2427 37.9335 60.0142 37.6985 59.7428 37.6985H57.2292C56.9579 37.6985 56.7294 37.9335 56.7294 38.2127V39.4321C56.7294 39.7112 56.9579 39.9463 57.2292 39.9463Z" fill="#9EC8FF"/>
<path d="M57.5871 39.6231H59.3866C59.5866 39.6231 59.7437 39.4615 59.7437 39.2558V38.389C59.7437 38.1833 59.5866 38.0217 59.3866 38.0217H57.5871C57.3872 38.0217 57.2301 38.1833 57.2301 38.389V39.2558C57.2158 39.4615 57.3872 39.6231 57.5871 39.6231Z" fill="white"/>
<path d="M39.0349 49.4079H41.5485C41.8198 49.4079 42.0483 49.1729 42.0483 48.8937V47.6744C42.0483 47.3952 41.8198 47.1602 41.5485 47.1602H39.0349C38.7635 47.1602 38.535 47.3952 38.535 47.6744V48.8937C38.5207 49.1729 38.7492 49.4079 39.0349 49.4079Z" fill="#9EC8FF"/>
<path d="M39.3771 49.0989H41.1766C41.3766 49.0989 41.5337 48.9373 41.5337 48.7316V47.8648C41.5337 47.6592 41.3766 47.4976 41.1766 47.4976H39.3771C39.1772 47.4976 39.0201 47.6592 39.0201 47.8648V48.7316C39.0201 48.9226 39.1772 49.0989 39.3771 49.0989Z" fill="white"/>
<path d="M47.8327 38.345H49.8036C49.9321 38.345 50.0464 38.2274 50.0464 38.0952C50.0464 37.963 49.9321 37.8455 49.8036 37.8455H47.8327C47.7042 37.8455 47.5899 37.963 47.5899 38.0952C47.5899 38.2421 47.7042 38.345 47.8327 38.345Z" fill="#9EC8FF"/>
<path d="M47.8327 39.1238H49.8036C49.9321 39.1238 50.0464 39.0062 50.0464 38.874C50.0464 38.7418 49.9321 38.6243 49.8036 38.6243H47.8327C47.7042 38.6243 47.5899 38.7418 47.5899 38.874C47.5899 39.0209 47.7042 39.1238 47.8327 39.1238Z" fill="#9EC8FF"/>
<path d="M52.1745 47.762H54.1454C54.2739 47.762 54.3882 47.6444 54.3882 47.5122C54.3882 47.38 54.2739 47.2625 54.1454 47.2625H52.1745C52.046 47.2625 51.9317 47.38 51.9317 47.5122C51.9317 47.6444 52.046 47.762 52.1745 47.762Z" fill="#9EC8FF"/>
<path d="M52.1745 48.5408H54.1454C54.2739 48.5408 54.3882 48.4232 54.3882 48.291C54.3882 48.1588 54.2739 48.0413 54.1454 48.0413H52.1745C52.046 48.0413 51.9317 48.1588 51.9317 48.291C51.9317 48.4232 52.046 48.5408 52.1745 48.5408Z" fill="#9EC8FF"/>
<path d="M62.3571 41.8564H64.328C64.4566 41.8564 64.5708 41.7389 64.5708 41.6067C64.5708 41.4745 64.4566 41.3569 64.328 41.3569H62.3571C62.2286 41.3569 62.1143 41.4745 62.1143 41.6067C62.1143 41.7536 62.2286 41.8564 62.3571 41.8564Z" fill="#9EC8FF"/>
<path d="M62.3571 42.635H64.328C64.4566 42.635 64.5708 42.5175 64.5708 42.3852C64.5708 42.253 64.4566 42.1355 64.328 42.1355H62.3571C62.2286 42.1355 62.1143 42.253 62.1143 42.3852C62.1143 42.5175 62.2286 42.635 62.3571 42.635Z" fill="#9EC8FF"/>
<path d="M43.3903 38.345H45.3612C45.4898 38.345 45.604 38.2274 45.604 38.0952C45.604 37.963 45.4898 37.8455 45.3612 37.8455H43.3903C43.2618 37.8455 43.1475 37.963 43.1475 38.0952C43.1475 38.2421 43.2475 38.345 43.3903 38.345Z" fill="#9EC8FF"/>
<path d="M43.3903 39.1238H45.3612C45.4898 39.1238 45.604 39.0062 45.604 38.874C45.604 38.7418 45.4898 38.6243 45.3612 38.6243H43.3903C43.2618 38.6243 43.1475 38.7418 43.1475 38.874C43.1475 39.0209 43.2475 39.1238 43.3903 39.1238Z" fill="#9EC8FF"/>
<path d="M56.9298 46.381H59.8433C60.1004 46.381 60.3003 46.1753 60.3003 45.9108V44.5592C60.3003 44.2948 60.1004 44.0891 59.8433 44.0891H56.9298C56.6727 44.0891 56.4728 44.2948 56.4728 44.5592V45.9108C56.4728 46.1753 56.6727 46.381 56.9298 46.381Z" fill="#9CD499"/>
<path d="M58.5867 45.9989C58.6581 45.9989 58.7153 45.9695 58.7581 45.9255L59.3008 45.2937C59.3865 45.1909 59.3722 45.044 59.2865 44.9558C59.1866 44.8677 59.0437 44.8824 58.9581 44.9705L58.5725 45.426L57.587 44.427C57.5013 44.3388 57.3585 44.3388 57.2585 44.427C57.1728 44.5151 57.1728 44.662 57.2585 44.7648L58.4154 45.9401C58.4725 45.9842 58.5296 45.9989 58.5867 45.9989Z" fill="white"/>
<path d="M43.3194 36.7586H46.2329C46.49 36.7586 46.6899 36.553 46.6899 36.2885V34.9369C46.6899 34.6725 46.49 34.4668 46.2329 34.4668H43.3194C43.0623 34.4668 42.8624 34.6725 42.8624 34.9369V36.2885C42.8624 36.5383 43.0766 36.7586 43.3194 36.7586Z" fill="#9CD499"/>
<path d="M44.9901 36.3764C45.0615 36.3764 45.1186 36.347 45.1614 36.3029L45.7041 35.6712C45.7898 35.5683 45.7756 35.4214 45.6899 35.3333C45.5899 35.2451 45.4471 35.2598 45.3614 35.348L44.9758 35.8034L43.9903 34.8044C43.9046 34.7162 43.7618 34.7162 43.6618 34.8044C43.5761 34.8925 43.5761 35.0394 43.6618 35.1423L44.8187 36.3176C44.8758 36.347 44.9329 36.3764 44.9901 36.3764Z" fill="white"/>
<path d="M43.8482 45.1619C43.8482 45.7495 44.3052 46.2196 44.8765 46.2196C45.4478 46.2196 45.9048 45.7495 45.9048 45.1619C45.9048 44.5742 45.4478 44.1041 44.8765 44.1041C44.3195 44.0894 43.8482 44.5742 43.8482 45.1619Z" fill="#9EC8FF"/>
<path d="M57.2442 48.4086C57.2442 48.9963 57.7012 49.4664 58.2725 49.4664C58.8438 49.4664 59.3008 48.9963 59.3008 48.4086C59.3008 47.8209 58.8438 47.3508 58.2725 47.3508C57.7012 47.3508 57.2442 47.8209 57.2442 48.4086Z" fill="#9EC8FF"/>
<path d="M51.2454 61.3075H72.3539C72.5538 61.3075 72.7109 61.1459 72.7109 60.9402V48.8346C72.7109 48.6289 72.5538 48.4673 72.3539 48.4673H51.2454C51.0454 48.4673 50.8883 48.6289 50.8883 48.8346V60.9402C50.8883 61.1459 51.0454 61.3075 51.2454 61.3075Z" fill="#9EC8FF"/>
<path d="M51.7022 60.7495H71.8966C72.0823 60.7495 72.2251 60.6026 72.2251 60.4116V49.3931C72.2251 49.2021 72.0823 49.0552 71.8966 49.0552H51.7022C51.5165 49.0552 51.3737 49.2021 51.3737 49.3931V60.4116C51.3594 60.5879 51.5165 60.7495 51.7022 60.7495Z" fill="white"/>
<path d="M52.3167 60.0293H71.283C71.4972 60.0293 71.6543 59.853 71.6543 59.6473V50.142C71.6543 49.9216 71.4829 49.76 71.283 49.76H52.3167C52.1025 49.76 51.9454 49.9363 51.9454 50.142V59.6473C51.9454 59.853 52.1168 60.0293 52.3167 60.0293Z" fill="#9EC8FF"/>
<path d="M61.799 58.4574C59.8824 58.4574 58.3286 56.859 58.3286 54.8874C58.3286 52.9157 59.8824 51.3174 61.799 51.3174C63.7157 51.3174 65.2695 52.9157 65.2695 54.8874C65.2695 56.859 63.7157 58.4574 61.799 58.4574Z" fill="white"/>
<path d="M58.8149 54.8876C58.8149 56.5771 60.1574 57.9581 61.7998 57.9581C63.4422 57.9581 64.7847 56.5771 64.7847 54.8876C64.7847 53.1981 63.4422 51.8171 61.7998 51.8171C60.1574 51.8171 58.8149 53.1981 58.8149 54.8876Z" fill="#9EC8FF"/>
<path d="M60.3286 54.726L61.414 55.3724L62.5137 56.0188V54.726V53.4331L61.414 54.0795L60.3286 54.726Z" fill="white"/>
<path d="M74.0962 17.7036H87.7497C88.0924 17.7036 88.3638 17.4098 88.3638 17.0719C88.3638 16.7193 88.0781 16.4402 87.7497 16.4402H74.0962C73.7535 16.4402 73.4821 16.734 73.4821 17.0719C73.4821 17.4245 73.7535 17.7036 74.0962 17.7036Z" fill="#9EC8FF"/>
<path d="M38.4205 71.6502H52.0739C52.4166 71.6502 52.688 71.3564 52.688 71.0185C52.688 70.6659 52.4023 70.3867 52.0739 70.3867H38.4205C38.0777 70.3867 37.8063 70.6806 37.8063 71.0185C37.8063 71.3564 38.0777 71.6502 38.4205 71.6502Z" fill="#9EC8FF"/>
<path d="M38.4205 73.9859H52.0739C52.4166 73.9859 52.688 73.692 52.688 73.3541C52.688 73.0162 52.4023 72.7224 52.0739 72.7224H38.4205C38.0777 72.7224 37.8063 73.0162 37.8063 73.3541C37.8063 73.692 38.0777 73.9859 38.4205 73.9859Z" fill="#9EC8FF"/>
<path d="M38.4205 76.5423H52.0739C52.4166 76.5423 52.688 76.2484 52.688 75.9105C52.688 75.5579 52.4023 75.2788 52.0739 75.2788H38.4205C38.0777 75.2788 37.8063 75.5726 37.8063 75.9105C37.8063 76.2484 38.0777 76.5423 38.4205 76.5423Z" fill="#9EC8FF"/>
<path d="M65.3129 20.157H87.7497C88.0924 20.157 88.3638 19.8632 88.3638 19.5253C88.3638 19.1727 88.0781 18.8936 87.7497 18.8936H65.3129C64.9702 18.8936 64.6988 19.1874 64.6988 19.5253C64.6845 19.8632 64.9702 20.157 65.3129 20.157Z" fill="#9EC8FF"/>
<defs>
<linearGradient id="paint0_linear" x1="102.781" y1="102.543" x2="114.041" y2="67.589" gradientUnits="userSpaceOnUse">
<stop stop-color="#1C8EF4"/>
<stop offset="1" stop-color="#00CFDD"/>
</linearGradient>
<linearGradient id="paint1_linear" x1="105.589" y1="102.53" x2="114.865" y2="72.1379" gradientUnits="userSpaceOnUse">
<stop stop-color="#1C8EF4"/>
<stop offset="1" stop-color="#00CFDD"/>
</linearGradient>
<linearGradient id="paint2_linear" x1="122.223" y1="83.9404" x2="127.998" y2="66.0638" gradientUnits="userSpaceOnUse">
<stop stop-color="#1C8EF4"/>
<stop offset="1" stop-color="#00CFDD"/>
</linearGradient>
</defs>
</svg>
