<svg width="43" height="43" viewBox="0 0 43 43" fill="none" xmlns="http://www.w3.org/2000/svg">
<g clip-path="url(#clip0)">
<path d="M38.8127 19.1059C38.2664 18.5629 37.3843 18.5629 36.8381 19.1059L32.6368 23.3072L34.6114 25.2818L36.2779 23.6153C35.11 32.8228 26.6991 39.3401 17.4916 38.1723C8.2841 37.0044 1.76674 28.5935 2.93461 19.386C3.99999 10.9871 11.1467 4.69216 19.6127 4.6954V1.89453C8.78458 1.89086 0.0036773 10.6658 1.15463e-06 21.494C-0.00367499 32.3221 8.77127 41.103 19.5994 41.1067C29.6979 41.1101 38.1471 33.4426 39.1208 23.3912L41.0254 25.2958L43 23.3212L38.8127 19.1059Z" fill="#F9392D"/>
<path d="M19.6128 14.498V21.5002C19.6106 21.8725 19.7568 22.2302 20.0189 22.4945L24.2203 26.6958L26.1949 24.7212L22.4137 20.926V14.498H19.6128Z" fill="#292929"/>
</g>
<defs>
<clipPath id="clip0">
<rect width="43" height="43" fill="white"/>
</clipPath>
</defs>
</svg>
