<svg width="78" height="78" viewBox="0 0 78 78" fill="none" xmlns="http://www.w3.org/2000/svg">
<path d="M22.642 76.4766H15.8455V53.4222C15.8455 46.9555 21.0877 41.7134 27.5544 41.7134H50.4455C56.9122 41.7134 62.1544 46.9555 62.1544 53.4222V76.4766H36.4157" fill="#80B4FB"/>
<path d="M38.9999 51.5085L30.7291 41.7134H47.2706L38.9999 51.5085Z" fill="#FAF7F5"/>
<path d="M29.5563 78.0001C28.9105 78.0001 28.3226 77.5756 28.1151 76.9658C27.9137 76.3741 28.1046 75.6951 28.5904 75.2995C29.0918 74.891 29.8108 74.8446 30.361 75.184C30.8936 75.5126 31.1739 76.1604 31.0506 76.7739C30.9095 77.4768 30.2746 78.0001 29.5563 78.0001Z" fill="black"/>
<path d="M50.4455 40.1899H27.5544C20.258 40.1899 14.3221 46.1259 14.3221 53.4222V76.4766C14.3221 77.318 15.0041 78 15.8455 78H22.642C23.4834 78 24.1655 77.318 24.1655 76.4766C24.1655 75.6352 23.4834 74.9531 22.642 74.9531H17.369V53.4222C17.369 47.8059 21.938 43.2368 27.5544 43.2368H30.0216L37.8359 52.4914C38.1253 52.8342 38.5511 53.0319 38.9999 53.0319C39.4486 53.0319 39.8745 52.8342 40.164 52.4914L47.9783 43.2368H50.4455C56.0618 43.2368 60.6309 47.8059 60.6309 53.4222V74.9531H36.4159C35.5745 74.9531 34.8924 75.6352 34.8924 76.4766C34.8924 77.318 35.5745 78 36.4159 78H62.1544C62.9958 78 63.6778 77.318 63.6778 76.4766V53.4222C63.6778 46.1259 57.7417 40.1899 50.4455 40.1899ZM38.9999 49.1471L34.0093 43.2368H43.9906L38.9999 49.1471Z" fill="#292929"/>
<path d="M38.9999 35.7627C29.14 35.7627 21.1185 27.7412 21.1185 17.8813C21.1185 8.02151 29.14 0 38.9999 0C48.8597 0 56.8812 8.02151 56.8812 17.8813C56.8812 27.7412 48.8597 35.7627 38.9999 35.7627ZM38.9999 3.04688C30.8201 3.04688 24.1654 9.70155 24.1654 17.8813C24.1654 26.0611 30.8201 32.7158 38.9999 32.7158C47.1797 32.7158 53.8344 26.0611 53.8344 17.8813C53.8344 9.70155 47.1797 3.04688 38.9999 3.04688Z" fill="#292929"/>
</svg>
