<svg width="177" height="209" viewBox="0 0 177 209" fill="none" xmlns="http://www.w3.org/2000/svg">
<g filter="url(#filter0_i)">
<path d="M133.196 98.7878C129.97 96.9061 127.013 95.9653 124.325 95.8309C124.325 95.6965 124.325 95.4277 124.325 95.2933C124.325 68.4122 105.374 35.7518 81.9884 22.1769C63.1714 11.29 47.1774 16.263 41.6664 32.5261C40.1884 31.4508 38.7094 30.3756 37.2314 29.5691C21.7744 20.564 9.27441 27.6875 9.27441 45.4289C9.27441 63.1704 21.7744 84.6753 37.2314 93.6804C44.8924 98.1158 124.056 143.814 133.196 149.055C145.292 156.044 155.104 150.399 155.104 136.556C155.104 122.712 145.292 105.777 133.196 98.7878Z" fill="#D3EAFD"/>
<path d="M46.6387 109.944L55.2407 104.299V52.1493L46.6387 57.7944V109.944Z" fill="#E8F4FE"/>
<path d="M171.501 146.636L170.426 145.83C173.383 141.663 174.996 136.152 174.996 129.97C174.996 113.035 163.437 93.1428 148.787 84.6752C147.308 83.8688 145.83 83.0624 144.351 82.5248L143.948 82.3904V81.9871C141.126 53.09 121.637 22.0424 97.5785 8.06431C89.7835 3.62894 82.1225 1.34405 74.7305 1.34405C68.0095 1.34405 61.4235 3.22572 55.9135 6.85466L55.1064 5.77942C60.8864 2.01608 67.7415 0 74.7305 0C82.3915 0 90.3215 2.28489 98.1165 6.85466C122.443 20.9672 142.201 52.1492 145.158 81.3151C146.502 81.8527 147.98 82.6592 149.324 83.3312C164.378 92.0675 176.205 112.497 176.205 129.835C176.205 136.421 174.593 142.201 171.501 146.636Z" fill="#D1EBFF"/>
<path d="M166.125 129.835C166.125 115.992 156.313 99.0566 144.217 92.0675C140.991 90.1859 138.034 89.245 135.346 89.1106C135.346 88.9762 135.346 88.7074 135.346 88.573C135.346 61.692 116.395 29.0315 93.0082 15.4566C79.9712 7.92991 68.5462 9.00515 60.4822 14.3814L46.9072 22.0425C39.2462 18.1447 32.3912 18.1447 27.6872 21.3704L9.4082 32.3917C14.3812 30.2412 20.8332 30.9132 27.9562 35.0798C29.4352 35.8862 30.9132 36.9614 32.3912 38.0367C37.9022 21.7736 53.8962 16.8007 72.7132 27.6875C96.1002 41.128 115.051 73.9228 115.051 100.804C115.051 100.938 115.051 101.207 115.051 101.341C117.739 101.476 120.696 102.417 123.921 104.298C136.018 111.287 145.829 128.223 145.829 142.066C145.829 147.98 144.082 152.281 141.125 154.835L159.136 144.351C163.436 142.201 166.125 137.228 166.125 129.835Z" fill="url(#paint0_linear)"/>
<path d="M125.4 103.492C122.174 101.61 119.217 100.669 116.529 100.535C116.529 100.401 116.529 100.132 116.529 99.9974C116.529 73.1163 97.5781 40.4559 74.1921 26.881C63.0361 20.4295 52.8212 19.4887 45.1602 23.3864C52.5522 20.4295 62.0952 21.6392 72.5792 27.6874C96.1002 41.1279 115.051 73.9228 115.051 100.804C115.051 100.938 115.051 101.207 115.051 101.341C117.739 101.476 120.696 102.417 123.922 104.298C136.018 111.287 145.83 128.222 145.83 142.066C145.83 149.055 143.276 154.028 139.244 156.179C144.217 154.431 147.442 149.19 147.442 141.394C147.308 127.416 137.496 110.481 125.4 103.492Z" fill="white"/>
<path d="M27.9558 34.9453C29.4348 35.7517 30.9128 36.827 32.3918 37.9022C32.5258 37.3646 32.7948 36.9614 32.9288 36.4238C31.8538 35.6173 30.6438 34.8109 29.5688 34.1389C22.0418 29.8379 15.3218 29.3003 10.2148 31.854C15.0528 30.2411 21.2358 31.0475 27.9558 34.9453Z" fill="white"/>
<path d="M123.922 104.298C120.696 102.417 117.739 101.476 115.051 101.341C115.051 101.207 115.051 100.938 115.051 100.804C115.051 73.9227 96.1 41.2623 72.713 27.6874C53.896 16.8006 37.902 21.7735 32.392 38.0366C30.913 36.9613 29.435 35.8861 27.956 35.0797C12.5 26.0745 0 33.198 0 50.9395C0 68.6809 12.5 90.1858 27.956 99.1909C29.972 100.401 37.23 104.567 46.773 110.078V57.3909L86.423 80.3742V132.927C104.164 143.141 120.024 152.415 123.922 154.566C136.018 161.555 145.83 155.91 145.83 142.066C145.695 128.088 136.018 111.287 123.922 104.298Z" fill="white"/>
<path d="M81.9876 91.1267L57.1226 76.8797V87.0945L81.9876 101.341V91.1267ZM81.9876 82.928L57.1226 68.5466V72.8476L81.9876 87.2289V82.928ZM81.9876 156.179V104.836L57.1226 90.4546V141.797L39.5156 131.583L69.4876 193.678L99.4597 166.259L81.9876 156.179Z" fill="url(#paint1_linear)"/>
<path d="M99.5955 166.259L96.6385 168.006L78.8965 157.792L81.9885 156.179L99.5955 166.259Z" fill="url(#paint2_linear)"/>
<path d="M96.6382 168.006L66.5312 195.425L69.6232 193.812L99.5952 166.259L96.6382 168.006Z" fill="url(#paint3_linear)"/>
<path d="M78.8965 106.449V157.792L81.9885 156.179V104.836L78.8965 106.449Z" fill="url(#paint4_linear)"/>
<path d="M78.8965 103.089L81.9885 101.342V91.1268L78.8965 92.8741V103.089Z" fill="url(#paint5_linear)"/>
<path d="M78.8965 88.9761L81.9885 87.2289V82.9279L78.8965 84.5408V88.9761Z" fill="url(#paint6_linear)"/>
<path d="M39.5156 131.583L36.5586 133.33L54.1656 143.545L57.1226 141.797L39.5156 131.583Z" fill="url(#paint7_linear)"/>
<path d="M54.166 92.202L57.123 90.4547L81.988 104.836L78.897 106.449L54.166 92.202Z" fill="url(#paint8_linear)"/>
<path d="M54.166 78.7615L57.123 77.0143L81.988 91.3956L78.897 93.0085L54.166 78.7615Z" fill="url(#paint9_linear)"/>
<path d="M54.166 70.2941L57.123 68.6812L81.988 82.9282L78.897 84.6754L54.166 70.2941Z" fill="url(#paint10_linear)"/>
<path d="M78.896 204.968C78.762 204.968 78.493 204.833 78.359 204.699C78.09 204.43 78.09 204.027 78.359 203.758L80.375 202.011C80.644 201.742 81.0469 201.742 81.3159 202.011C81.5849 202.28 81.5849 202.683 81.3159 202.952L79.3 204.699C79.3 204.968 79.165 204.968 78.896 204.968ZM83.869 200.532C83.735 200.532 83.4659 200.398 83.3319 200.264C83.0629 199.995 83.0629 199.592 83.3319 199.323L85.348 197.575C85.617 197.307 86.02 197.307 86.289 197.575C86.558 197.844 86.558 198.247 86.289 198.516L84.273 200.264C84.273 200.398 84.004 200.532 83.869 200.532ZM88.8419 195.963C88.7079 195.963 88.439 195.828 88.305 195.694C88.036 195.425 88.036 195.022 88.305 194.753L90.321 193.006C90.59 192.737 90.993 192.737 91.262 193.006C91.531 193.274 91.531 193.678 91.262 193.946L89.2459 195.694C89.2459 195.963 88.9769 195.963 88.8419 195.963ZM93.815 191.393C93.681 191.393 93.412 191.258 93.278 191.124C93.009 190.855 93.009 190.452 93.278 190.183L95.294 188.436C95.563 188.167 95.966 188.167 96.235 188.436C96.504 188.705 96.504 189.108 96.235 189.377L94.219 191.124C94.084 191.393 93.95 191.393 93.815 191.393ZM98.788 186.957C98.654 186.957 98.3849 186.823 98.2509 186.689C97.9819 186.42 97.9819 186.017 98.2509 185.748L100.267 184.001C100.536 183.732 100.939 183.732 101.208 184.001C101.477 184.269 101.477 184.673 101.208 184.941L99.192 186.689C99.057 186.823 98.923 186.957 98.788 186.957ZM103.761 182.388C103.627 182.388 103.358 182.253 103.224 182.119C102.955 181.85 102.955 181.447 103.224 181.178L105.24 179.431C105.509 179.162 105.912 179.162 106.181 179.431C106.45 179.7 106.45 180.103 106.181 180.372L104.165 182.119C104.03 182.253 103.896 182.388 103.761 182.388ZM108.734 177.818C108.6 177.818 108.331 177.683 108.197 177.549C107.928 177.28 107.928 176.877 108.197 176.608L110.213 174.861C110.482 174.592 110.885 174.592 111.154 174.861C111.422 175.13 111.422 175.533 111.154 175.802L109.138 177.549C109.003 177.818 108.869 177.818 108.734 177.818ZM113.707 173.248C113.573 173.248 113.304 173.114 113.17 172.979C112.901 172.71 112.901 172.307 113.17 172.038L115.186 170.291C115.455 170.022 115.858 170.022 116.127 170.291C116.395 170.56 116.395 170.963 116.127 171.232L114.111 172.979C113.976 173.248 113.842 173.248 113.707 173.248ZM118.68 168.813C118.546 168.813 118.277 168.678 118.143 168.544C117.874 168.275 117.874 167.872 118.143 167.603L120.159 165.856C120.428 165.587 120.831 165.587 121.1 165.856C121.368 166.125 121.368 166.528 121.1 166.797L119.084 168.544C118.949 168.678 118.815 168.813 118.68 168.813ZM119.487 164.646C119.352 164.646 119.218 164.646 119.084 164.512L116.799 163.168C116.53 163.033 116.395 162.63 116.53 162.227C116.664 161.958 117.068 161.824 117.471 161.958L119.756 163.302C120.024 163.437 120.159 163.84 120.024 164.243C119.89 164.512 119.756 164.646 119.487 164.646ZM113.707 161.286C113.573 161.286 113.439 161.286 113.304 161.152L111.019 159.808C110.75 159.673 110.616 159.27 110.75 158.867C110.885 158.598 111.288 158.464 111.691 158.598L113.976 159.942C114.245 160.076 114.379 160.48 114.245 160.883C114.111 161.152 113.842 161.286 113.707 161.286ZM107.794 157.926C107.659 157.926 107.525 157.926 107.39 157.792L105.105 156.447C104.837 156.313 104.702 155.91 104.837 155.507C104.971 155.238 105.374 155.103 105.777 155.238L108.062 156.582C108.331 156.716 108.466 157.119 108.331 157.523C108.331 157.792 108.062 157.926 107.794 157.926ZM102.014 154.566C101.88 154.566 101.745 154.566 101.611 154.431L99.326 153.087C99.057 152.953 98.923 152.55 99.057 152.146C99.192 151.878 99.595 151.743 99.998 151.878L102.283 153.222C102.552 153.356 102.686 153.759 102.552 154.163C102.417 154.431 102.283 154.566 102.014 154.566ZM96.235 151.206C96.1 151.206 95.9659 151.206 95.8319 151.071L93.547 149.727C93.278 149.593 93.143 149.19 93.278 148.786C93.412 148.518 93.815 148.383 94.219 148.518L96.504 149.862C96.772 149.996 96.9069 150.399 96.7719 150.802C96.6379 151.071 96.369 151.206 96.235 151.206Z" fill="url(#paint11_linear)"/>
<path d="M64.649 208.194L63.708 207.253L108.062 166.797L85.75 153.894V136.421H87.095V153.087L110.212 166.528L64.649 208.194Z" fill="url(#paint12_linear)"/>
<path d="M78.8956 92.874L54.1656 78.4926V88.7074L78.8956 103.089V92.874ZM78.8956 84.5409L54.1656 70.2939V74.5949L78.8956 88.9762V84.5409ZM78.8956 157.792V106.449L54.1656 92.202V143.545L36.5586 133.33L66.5306 195.425L96.6376 168.006L78.8956 157.792Z" fill="url(#paint13_linear)"/>
<path d="M63.0363 209C62.9023 209 62.6332 208.866 62.4992 208.731C62.3642 208.597 62.3643 208.328 62.3643 208.059L64.1122 201.742C64.2462 201.339 64.6492 201.204 64.9182 201.339C65.3212 201.473 65.4563 201.876 65.3213 202.145L63.8432 207.387L69.4883 206.581C69.8913 206.581 70.1603 206.849 70.2943 207.118C70.2943 207.521 70.0252 207.79 69.7572 207.925L63.0363 209C63.1713 209 63.1713 209 63.0363 209Z" fill="#EB4680"/>
<path d="M88.1702 138.168C88.1702 139.378 87.3633 139.916 86.2883 139.244C85.2133 138.572 84.4062 137.228 84.4062 136.018C84.4062 134.808 85.2133 134.271 86.2883 134.943C87.3633 135.48 88.1702 136.959 88.1702 138.168Z" fill="#EB4680"/>
</g>
<defs>
<filter id="filter0_i" x="0" y="0" width="184.205" height="217" filterUnits="userSpaceOnUse" color-interpolation-filters="sRGB">
<feFlood flood-opacity="0" result="BackgroundImageFix"/>
<feBlend mode="normal" in="SourceGraphic" in2="BackgroundImageFix" result="shape"/>
<feColorMatrix in="SourceAlpha" type="matrix" values="0 0 0 0 0 0 0 0 0 0 0 0 0 0 0 0 0 0 127 0" result="hardAlpha"/>
<feOffset dx="40" dy="18"/>
<feGaussianBlur stdDeviation="4"/>
<feComposite in2="hardAlpha" operator="arithmetic" k2="-1" k3="1"/>
<feColorMatrix type="matrix" values="0 0 0 0 0 0 0 0 0 0 0 0 0 0 0 0 0 0 0.12 0"/>
<feBlend mode="normal" in2="shape" result="effect1_innerShadow"/>
</filter>
<linearGradient id="paint0_linear" x1="157.459" y1="124.833" x2="17.5032" y2="20.8319" gradientUnits="userSpaceOnUse">
<stop offset="0.1875" stop-color="#FF6A00"/>
<stop offset="0.799889" stop-color="#D22869"/>
</linearGradient>
<linearGradient id="paint1_linear" x1="46.3346" y1="90.7982" x2="143.194" y2="111.492" gradientUnits="userSpaceOnUse">
<stop stop-color="#FF6A00"/>
<stop offset="0.799889" stop-color="#EE0979"/>
</linearGradient>
<linearGradient id="paint2_linear" x1="81.2515" y1="158.282" x2="102.984" y2="175.244" gradientUnits="userSpaceOnUse">
<stop stop-color="#FF6A00"/>
<stop offset="0.799889" stop-color="#EE0979"/>
</linearGradient>
<linearGradient id="paint3_linear" x1="70.2932" y1="171.446" x2="114.783" y2="193.939" gradientUnits="userSpaceOnUse">
<stop stop-color="#FF6A00"/>
<stop offset="0.799889" stop-color="#EE0979"/>
</linearGradient>
<linearGradient id="paint4_linear" x1="79.2485" y1="114.253" x2="84.4684" y2="114.389" gradientUnits="userSpaceOnUse">
<stop stop-color="#FF6A00"/>
<stop offset="0.799889" stop-color="#EE0979"/>
</linearGradient>
<linearGradient id="paint5_linear" x1="79.2485" y1="93.254" x2="84.4034" y2="93.8481" gradientUnits="userSpaceOnUse">
<stop stop-color="#FF6A00"/>
<stop offset="0.799889" stop-color="#EE0979"/>
</linearGradient>
<linearGradient id="paint6_linear" x1="79.2485" y1="84.0035" x2="84.2135" y2="85.1352" gradientUnits="userSpaceOnUse">
<stop stop-color="#FF6A00"/>
<stop offset="0.799889" stop-color="#EE0979"/>
</linearGradient>
<linearGradient id="paint7_linear" x1="38.8976" y1="133.71" x2="60.7796" y2="150.486" gradientUnits="userSpaceOnUse">
<stop stop-color="#FF6A00"/>
<stop offset="0.799889" stop-color="#EE0979"/>
</linearGradient>
<linearGradient id="paint8_linear" x1="57.331" y1="93.2989" x2="86.677" y2="116.064" gradientUnits="userSpaceOnUse">
<stop stop-color="#FF6A00"/>
<stop offset="0.799889" stop-color="#EE0979"/>
</linearGradient>
<linearGradient id="paint9_linear" x1="57.331" y1="79.8585" x2="86.677" y2="102.624" gradientUnits="userSpaceOnUse">
<stop stop-color="#FF6A00"/>
<stop offset="0.799889" stop-color="#EE0979"/>
</linearGradient>
<linearGradient id="paint10_linear" x1="57.331" y1="71.5254" x2="86.677" y2="94.291" gradientUnits="userSpaceOnUse">
<stop stop-color="#FF6A00"/>
<stop offset="0.799889" stop-color="#EE0979"/>
</linearGradient>
<linearGradient id="paint11_linear" x1="83.065" y1="158.513" x2="148.385" y2="180.756" gradientUnits="userSpaceOnUse">
<stop stop-color="#FF6A00"/>
<stop offset="0.799889" stop-color="#EE0979"/>
</linearGradient>
<linearGradient id="paint12_linear" x1="68.998" y1="149.184" x2="141.515" y2="170.139" gradientUnits="userSpaceOnUse">
<stop stop-color="#FF6A00"/>
<stop offset="0.799889" stop-color="#EE0979"/>
</linearGradient>
<linearGradient id="paint13_linear" x1="43.3926" y1="92.5455" x2="140.45" y2="113.328" gradientUnits="userSpaceOnUse">
<stop stop-color="#FF6A00"/>
<stop offset="0.799889" stop-color="#EE0979"/>
</linearGradient>
</defs>
</svg>
