<svg width="112" height="99" viewBox="0 0 112 99" fill="none" xmlns="http://www.w3.org/2000/svg">
<path d="M93.5082 39.9176H90.1335C90.2135 38.9553 90.2567 37.9826 90.2567 36.9995C90.2567 17.8159 74.7052 2.26439 55.5216 2.26439C39.439 2.26439 25.9114 13.1954 21.9575 28.0325C10.5966 28.8267 1.62659 38.2932 1.62659 49.856C1.62659 61.9391 11.422 71.7346 23.5051 71.7346H55.5216H93.5082C102.294 71.7346 109.417 64.6122 109.417 55.8261C109.417 47.04 102.294 39.9176 93.5082 39.9176V39.9176Z" fill="#FBF3EC"/>
<path d="M27.0126 49.855C27.0126 55.8973 29.4611 61.3671 33.4214 65.3252C37.3817 69.2854 42.8514 71.734 48.8915 71.734H23.5056C17.4633 71.734 11.9935 69.2854 8.03326 65.3252C4.07518 61.3671 1.62659 55.8973 1.62659 49.855C1.62659 38.293 10.5968 28.8262 21.957 28.0324C25.9108 13.1955 39.4399 2.26254 55.5216 2.26254C60.0024 2.26254 64.2836 3.11055 68.2157 4.65691C58.0331 8.65621 50.1972 17.3293 47.3452 28.0324C35.9828 28.8262 27.0126 38.293 27.0126 49.855V49.855Z" fill="#80B4FB"/>
<path d="M71.8805 62.2851H68.0811V37.1529C68.0811 33.0744 64.7748 29.7681 60.6963 29.7681H50.347C46.2685 29.7681 42.9622 33.0744 42.9622 37.1529V62.2851H39.1628C32.5729 62.2851 29.0032 70.0006 33.2693 75.0234L49.6282 94.2838C52.7162 97.9196 58.3273 97.9196 61.4153 94.2838L77.7742 75.0234C82.04 70.0006 78.4704 62.2851 71.8805 62.2851V62.2851Z" fill="#F9F6F9"/>
<path d="M60.1363 95.486C56.9525 97.8608 52.3264 97.4618 49.6284 94.2845L33.269 75.0232C29.003 70.0003 32.5728 62.2858 39.1617 62.2858H42.9615V37.152C42.9615 33.0747 46.2667 29.7672 50.3463 29.7672H59.5789C55.4994 29.7672 52.1941 33.0747 52.1941 37.152V62.2858H48.3943C41.8033 62.2858 38.2334 70.0003 42.4995 75.0232L58.8588 94.2845C59.2471 94.7421 59.6765 95.1433 60.1363 95.486Z" fill="#DDDAEC"/>
<path d="M105.908 43.4262C102.594 40.115 98.1909 38.2915 93.5084 38.2915H91.8601C91.8759 37.8567 91.8837 37.4251 91.8837 36.9989C91.8837 16.9486 75.5717 0.636566 55.5214 0.636566C45.5091 0.636566 35.8386 4.82953 28.9897 12.1404C28.3755 12.796 28.4091 13.8253 29.0647 14.4395C29.7201 15.0538 30.7497 15.0201 31.3639 14.3645C37.692 7.60973 46.2714 3.88979 55.5216 3.88979C73.7781 3.88979 88.6307 18.7425 88.6307 36.9989C88.6307 37.9065 88.5908 38.8433 88.5128 39.783C88.4748 40.2363 88.6286 40.6848 88.9365 41.0194C89.2447 41.3543 89.6787 41.5447 90.1337 41.5447H93.5086C97.3225 41.5447 100.909 43.0301 103.607 45.7264C106.304 48.4257 107.79 52.0125 107.79 55.8264C107.79 63.7013 101.383 70.108 93.5084 70.108H81.2505C81.26 68.7536 80.9744 67.3846 80.3741 66.087C78.8247 62.7386 75.5706 60.6585 71.881 60.6585H69.7078V37.1529C69.7078 32.1839 65.6654 28.1415 60.6964 28.1415H50.3468C45.3779 28.1415 41.3354 32.1839 41.3354 37.1529V60.6585H39.1623C35.4729 60.6585 32.2184 62.7386 30.6692 66.087C30.0689 67.3844 29.7832 68.7536 29.7928 70.108H23.5056C18.0953 70.108 13.009 68.0012 9.18341 64.1756C5.35936 60.3514 3.25322 55.2657 3.25322 49.8556C3.25322 39.266 11.5188 30.3929 22.0705 29.6557C22.7637 29.6074 23.3494 29.1239 23.5288 28.4525C24.3955 25.2044 25.7521 22.1132 27.5615 19.2649C28.0432 18.5067 27.8189 17.5015 27.0607 17.0198C26.3025 16.5383 25.2973 16.7623 24.8156 17.5206C23.0324 20.3274 21.6493 23.3495 20.6963 26.5188C15.2121 27.1718 10.1518 29.7288 6.34465 33.7945C2.25318 38.1633 0 43.8673 0 49.8556C0 56.1348 2.44447 62.0374 6.88316 66.4759C11.3232 70.9159 17.2265 73.3612 23.5056 73.3612H30.4141C30.7885 74.3283 31.3257 75.2466 32.0297 76.0755L48.3888 95.3365C50.1694 97.4337 52.7692 98.6366 55.5216 98.6366C58.2739 98.6366 60.8736 97.4337 62.6542 95.3365L66.7381 90.5261C67.3195 89.8412 67.2356 88.8147 66.5507 88.2332C65.8658 87.6517 64.8393 87.7357 64.258 88.4206L60.1742 93.231C59.013 94.5989 57.3172 95.3833 55.5216 95.3833C53.7261 95.3833 52.0303 94.5989 50.8687 93.2308L34.5093 73.9696C32.9274 72.1068 32.5955 69.6708 33.6216 67.4531C34.6477 65.2355 36.7189 63.9117 39.1623 63.9117H42.962C43.8604 63.9117 44.5886 63.1834 44.5886 62.2851V37.1529C44.5886 33.9777 47.1717 31.3947 50.3468 31.3947H60.6964C63.8716 31.3947 66.4546 33.9777 66.4546 37.1529V62.2851C66.4546 63.1834 67.1827 63.9117 68.0812 63.9117H71.881C74.3244 63.9117 76.3954 65.2355 77.4217 67.4531C78.4477 69.6708 78.1159 72.107 76.534 73.9696L68.4703 83.4625C67.8886 84.1472 67.9721 85.1737 68.6568 85.7553C69.3413 86.337 70.368 86.2533 70.9495 85.5686L79.0134 76.0755C79.7174 75.2466 80.2546 74.3281 80.6289 73.3612H93.5084C103.177 73.3612 111.043 65.4951 111.043 55.8264C111.043 51.1441 109.22 46.7406 105.908 43.4262V43.4262Z" fill="#292929"/>
</svg>
