<svg width="16" height="16" viewBox="0 0 16 16" fill="none" xmlns="http://www.w3.org/2000/svg">
<path d="M7.28125 10.6875L5.625 15.6562C6.375 15.875 7.15625 16 8 16C10.375 16 12.5 14.9688 13.9688 13.3125L13.0625 10.6562H7.28125V10.6875Z" fill="url(#paint0_linear_2026:2)"/>
<path d="M16 8C16 5.0625 14.4062 2.5 12.0625 1.09375L15.4375 10.9687C15.8125 10.0625 16 9.0625 16 8Z" fill="url(#paint1_linear_2026:2)"/>
<path d="M8 0C3.59375 0 0 3.59375 0 8C0 10.8438 1.5 13.375 3.75 14.7812L8.75 0.03125C8.5 0 8.25 0 8 0Z" fill="url(#paint2_linear_2026:2)"/>
<path d="M10.1875 1.34375H10.125C9.875 2.3125 9.625 3.3125 9.3125 4.3125L7.71875 9.03125H12.6562L11.0625 4.3125C10.6875 3.25 10.4375 2.28125 10.1875 1.34375Z" fill="url(#paint3_linear_2026:2)"/>
<defs>
<linearGradient id="paint0_linear_2026:2" x1="6.5742" y1="11.6065" x2="16.0679" y2="18.2174" gradientUnits="userSpaceOnUse">
<stop stop-color="#FF6A00"/>
<stop offset="0.799889" stop-color="#EE0979"/>
</linearGradient>
<linearGradient id="paint1_linear_2026:2" x1="12.5104" y1="2.84978" x2="18.9591" y2="3.99653" gradientUnits="userSpaceOnUse">
<stop stop-color="#FF6A00"/>
<stop offset="0.799889" stop-color="#EE0979"/>
</linearGradient>
<linearGradient id="paint2_linear_2026:2" x1="0.995416" y1="2.62849" x2="14.8158" y2="6.27711" gradientUnits="userSpaceOnUse">
<stop stop-color="#FF6A00"/>
<stop offset="0.799889" stop-color="#EE0979"/>
</linearGradient>
<linearGradient id="paint3_linear_2026:2" x1="8.28045" y1="2.71079" x2="15.9901" y2="4.91913" gradientUnits="userSpaceOnUse">
<stop stop-color="#FF6A00"/>
<stop offset="0.799889" stop-color="#EE0979"/>
</linearGradient>
</defs>
</svg>
