<svg width="111" height="98" viewBox="0 0 111 98" fill="none" xmlns="http://www.w3.org/2000/svg">
<path d="M83.8428 70.3258L87.7126 74.1956C88.8564 75.3394 90.7107 75.3394 91.8543 74.1956L95.7241 70.3258H98.2582C103.928 70.3258 108.524 65.7294 108.524 60.0595V11.8824C108.524 6.21253 103.928 1.61614 98.2582 1.61614H32.1029C26.433 1.61614 21.8367 6.21253 21.8367 11.8824V57.0892C21.8367 64.1287 27.5117 69.8516 34.551 69.9109L83.8428 70.3258Z" fill="#DEF6FC"/>
<path d="M73.2202 58.8845C73.2202 55.8903 72.0536 53.0745 69.9353 50.9559C67.8184 48.8391 65.0024 47.6731 62.0067 47.6731H50.2956C48.6568 47.6731 47.3288 46.344 47.3298 44.7054V44.6365V31.4962C47.3298 25.2712 42.3218 20.1045 36.1657 19.9791C36.0872 19.9776 36.0092 19.9767 35.9312 19.9767H35.8978C35.2497 19.9771 34.7241 19.4517 34.7241 18.8036V9.33823C34.7241 6.25866 36.0819 3.49807 38.2291 1.61637H32.1029C26.433 1.61637 21.8367 6.21276 21.8367 11.8827V49.5059V57.0894C21.8367 64.1287 27.5119 69.8519 34.551 69.9111L70.7736 70.2159C70.7659 69.4402 70.6784 68.6835 70.518 67.9536C70.3329 67.1115 70.5152 66.2296 71.0277 65.5365C72.4049 63.6744 73.2202 61.3727 73.2202 58.8845Z" fill="#C8EFFE"/>
<path d="M59.7715 64.7078C62.8729 64.7078 65.388 67.2229 65.388 70.3264C65.388 71.8781 64.7587 73.2812 63.7436 74.2984C62.7263 75.3135 61.3211 75.9428 59.7715 75.9428H57.6939C60.7242 75.9428 63.1811 78.3998 63.1811 81.43C63.1811 82.9451 62.5668 84.3158 61.5733 85.3093C60.5798 86.3007 59.209 86.915 57.6939 86.915H55.7176V86.9171C56.9806 86.9473 58.1185 87.471 58.9504 88.3029C59.8269 89.177 60.3612 90.3956 60.3375 91.7355C60.2916 94.3349 58.095 96.3849 55.4952 96.3849H35.6741C29.4305 96.3849 23.2709 94.9215 17.6954 92.1111L15.5424 91.0271H4.56488C2.9362 91.0271 1.61571 89.7068 1.61571 88.0779V57.2129C1.61571 55.5842 2.93598 54.2637 4.56488 54.2637H19.2344L20.3724 51.8671C22.3487 47.7033 25.4177 44.1537 29.2518 41.5955L29.9199 41.1515V31.3755C29.9199 29.716 30.5923 28.2139 31.6807 27.1255C32.7965 26.0097 34.3469 25.3311 36.0562 25.366C39.3465 25.433 41.9416 28.205 41.9416 31.496V44.6365C41.9416 47.0309 41.4351 49.3973 40.4588 51.5827L40.4136 51.6818C40.1248 52.3305 40.5989 53.0611 41.308 53.0611H62.0065C63.6143 53.0611 65.0712 53.712 66.1251 54.7659C67.179 55.8198 67.832 57.2745 67.832 58.8845C67.832 62.1 65.2242 64.7078 62.0065 64.7078H59.7715Z" fill="#FBF3EC"/>
<path d="M59.119 90.4747H37.9159C31.5085 90.4747 25.1873 88.973 19.4657 86.0889L18.7219 85.7143C17.7581 85.2289 16.6941 84.9764 15.6152 84.9764H1.61571V88.0781C1.61571 89.7068 2.93598 91.0273 4.56488 91.0273H15.5428L17.6958 92.1113C23.2713 94.9217 29.4309 96.3851 35.6745 96.3851H55.4956C57.8879 96.3851 59.9836 94.653 60.297 92.2812C60.3856 91.6109 60.331 90.9616 60.1621 90.362C59.8248 90.4331 59.475 90.4747 59.119 90.4747V90.4747Z" fill="#FFBD86"/>
<path d="M66.0888 39.5973C68.0935 39.5973 69.7186 37.9722 69.7186 35.9675C69.7186 33.9628 68.0935 32.3377 66.0888 32.3377C64.0842 32.3377 62.4591 33.9628 62.4591 35.9675C62.4591 37.9722 64.0842 39.5973 66.0888 39.5973Z" fill="#99E6FC"/>
<path d="M85.6094 39.4203C87.6141 39.4203 89.2392 37.7952 89.2392 35.7905C89.2392 33.7858 87.6141 32.1607 85.6094 32.1607C83.6047 32.1607 81.9796 33.7858 81.9796 35.7905C81.9796 37.7952 83.6047 39.4203 85.6094 39.4203Z" fill="#99E6FC"/>
<path d="M65.1804 30.5443C62.2877 30.5443 59.9342 32.8977 59.9342 35.7905C59.9342 38.6832 62.2877 41.0366 65.1804 41.0366C68.0731 41.0366 70.4265 38.6832 70.4265 35.7905C70.4265 32.8977 68.0731 30.5443 65.1804 30.5443V30.5443ZM65.1804 37.8038C64.0702 37.8038 63.167 36.9006 63.167 35.7905C63.167 34.6803 64.07 33.7771 65.1804 33.7771C66.2907 33.7771 67.1937 34.6803 67.1937 35.7905C67.1937 36.9006 66.2905 37.8038 65.1804 37.8038Z" fill="black"/>
<path d="M80.3629 35.7905C80.3629 38.6832 82.7164 41.0366 85.6091 41.0366C88.5018 41.0366 90.8553 38.6832 90.8553 35.7905C90.8553 32.8977 88.5018 30.5443 85.6091 30.5443C82.7164 30.5443 80.3629 32.8977 80.3629 35.7905V35.7905ZM87.6225 35.7905C87.6225 36.9006 86.7195 37.8038 85.6091 37.8038C84.4988 37.8038 83.5957 36.9006 83.5957 35.7905C83.5957 34.6803 84.4988 33.7771 85.6091 33.7771C86.7195 33.7771 87.6225 34.6803 87.6225 35.7905Z" fill="black"/>
<path d="M98.2581 0H93.0388C92.1459 0 91.4224 0.723716 91.4224 1.6164C91.4224 2.50908 92.1459 3.2328 93.0388 3.2328H98.2581C103.028 3.2328 106.908 7.11301 106.908 11.8825V45.9809C106.908 46.8736 107.631 47.5973 108.524 47.5973C109.417 47.5973 110.141 46.8736 110.141 45.9809V11.8825C110.141 5.33045 104.81 0 98.2581 0Z" fill="black"/>
<path d="M108.524 51.2531C107.631 51.2531 106.908 51.9769 106.908 52.8695V60.0595C106.908 64.8289 103.028 68.7092 98.2579 68.7092H95.7238C95.2952 68.7092 94.8842 68.8794 94.5807 69.1826L90.7113 73.0525C90.1996 73.5639 89.3671 73.5644 88.8554 73.0525L84.9856 69.1826C84.6823 68.8794 84.2713 68.7092 83.8425 68.7092H72.3305C71.4376 68.7092 70.7141 69.4329 70.7141 70.3256C70.7141 71.2182 71.4376 71.9419 72.3305 71.9419H83.1731L86.5694 75.3383C87.4556 76.2243 88.6192 76.6674 89.7833 76.6674C90.9469 76.6674 92.1113 76.2243 92.9973 75.3383L96.3935 71.9419H98.2579C104.81 71.9419 110.141 66.6115 110.141 60.0595V52.8695C110.141 51.9769 109.417 51.2531 108.524 51.2531Z" fill="black"/>
<path d="M21.8366 38.5289C22.7293 38.5289 23.453 37.8052 23.453 36.9125V11.8825C23.453 7.11301 27.3332 3.2328 32.1027 3.2328H86.1501C87.043 3.2328 87.7665 2.50908 87.7665 1.6164C87.7665 0.723715 87.043 0 86.1501 0H32.1027C25.5507 0 20.2202 5.33045 20.2202 11.8825V36.9125C20.2202 37.8052 20.9439 38.5289 21.8366 38.5289V38.5289Z" fill="black"/>
<path d="M1.6164 55.8808H19.2351C19.8593 55.8808 20.428 55.5213 20.6955 54.9573L21.8328 52.5603C23.6826 48.6613 26.5583 45.3348 30.1491 42.9408L30.8169 42.4958C31.2667 42.196 31.5368 41.6912 31.5368 41.1507V31.376C31.5368 28.9531 33.5079 26.9818 35.9308 26.9818C38.3537 26.9818 40.3248 28.9529 40.3248 31.376V44.6357C40.3248 46.8169 39.8733 48.9325 38.983 50.9228L38.9384 51.0222C38.5778 51.8282 38.6491 52.7517 39.1295 53.4929C39.6099 54.2338 40.4237 54.6763 41.3067 54.6763H49.5253C50.418 54.6763 51.1417 53.9526 51.1417 53.0599C51.1417 52.1672 50.418 51.4435 49.5253 51.4435H42.2699C43.1248 49.2706 43.5576 46.9848 43.5576 44.6357V31.376C43.5576 27.1706 40.1362 23.749 35.9308 23.749C31.7254 23.749 28.304 27.1704 28.304 31.376V40.2856C24.2505 43.0016 21.0033 46.7659 18.9119 51.1745L18.2127 52.6478H1.6164C0.723715 52.6478 0 53.3715 0 54.2642C0 55.1569 0.723715 55.8808 1.6164 55.8808Z" fill="black"/>
<path d="M62.007 51.4436H56.4138C55.5209 51.4436 54.7974 52.1674 54.7974 53.06C54.7974 53.9527 55.5209 54.6764 56.4138 54.6764H62.007C64.3272 54.6764 66.2145 56.564 66.2145 58.884C66.2145 61.2041 64.327 63.0916 62.007 63.0916H57.7069C56.814 63.0916 56.0905 63.8153 56.0905 64.708C56.0905 65.6007 56.814 66.3244 57.7069 66.3244H59.7731C61.9785 66.3255 63.7723 68.1199 63.7723 70.3256C63.7723 72.5318 61.9774 74.3267 59.7712 74.3267H55.7174C54.8248 74.3267 54.101 75.0504 54.101 75.9431C54.101 76.8358 54.8248 77.5595 55.7174 77.5595H57.6942C59.8278 77.5595 61.5639 79.2953 61.5639 81.4291C61.5639 83.563 59.8278 85.2988 57.6942 85.2988H54.2273C53.3347 85.2988 52.6109 86.0225 52.6109 86.9152C52.6109 87.8079 53.3347 88.5316 54.2273 88.5316H55.6034C57.3229 88.5316 58.7216 89.9303 58.7216 91.6495C58.7216 93.3687 57.3229 94.7674 55.6034 94.7674H35.6743C29.7124 94.7674 23.7466 93.3495 18.4222 90.6672L16.2709 89.5833C16.0452 89.4697 15.7961 89.4105 15.5435 89.4105H1.6164C0.723715 89.4105 0 90.1342 0 91.0269C0 91.9195 0.723715 92.6433 1.6164 92.6433H15.1592L16.9674 93.5543C22.741 96.4627 29.2096 98 35.6741 98H55.6032C59.1052 98 61.9542 95.1511 61.9542 91.6493C61.9542 90.2314 61.4869 88.9206 60.6983 87.8626C63.1169 86.7288 64.7964 84.2718 64.7964 81.4289C64.7964 79.6476 64.1359 78.0187 63.0488 76.7709C65.3943 75.5732 67.0049 73.1346 67.0049 70.3253C67.0049 68.5148 66.3346 66.8587 65.2313 65.5884C67.7238 64.385 69.4473 61.8317 69.4473 58.8836C69.4476 54.7814 66.1098 51.4436 62.007 51.4436Z" fill="black"/>
</svg>
