<svg width="762" height="771" viewBox="0 0 762 771" fill="none" xmlns="http://www.w3.org/2000/svg">
    <path d="M268.84 405.312H132.45C109.504 405.312 88.2731 417.535 76.8 437.479L8.60482 555.534C-2.86827 575.478 -2.86827 599.925 8.60482 619.869L76.8 737.924C88.2731 757.868 109.504 770.091 132.45 770.091H268.733C291.679 770.091 312.91 757.868 324.383 737.924L392.685 619.869C404.158 599.925 404.158 575.478 392.685 555.534L324.49 437.479C313.017 417.642 291.786 405.312 268.84 405.312Z" fill="white" fill-opacity="0.03"/>
    <path d="M296.719 0H160.328C137.382 0 116.152 12.2237 104.678 32.1675L36.4832 150.222C25.0101 170.166 25.0101 194.614 36.4832 214.557L104.678 332.612C116.152 352.556 137.382 364.78 160.328 364.78H296.611C319.558 364.78 340.788 352.556 352.261 332.612L420.564 214.557C432.037 194.614 432.037 170.166 420.564 150.222L352.368 32.1675C340.895 12.3309 319.665 0 296.719 0Z" fill="white" fill-opacity="0.03"/>
    <path d="M628.84 222H492.45C469.504 222 448.273 234.224 436.8 254.168L368.605 372.222C357.132 392.166 357.132 416.614 368.605 436.557L436.8 554.612C448.273 574.556 469.504 586.78 492.45 586.78H628.733C651.679 586.78 672.91 574.556 684.383 554.612L752.685 436.557C764.158 416.614 764.158 392.166 752.685 372.222L684.49 254.168C673.017 234.331 651.786 222 628.84 222Z" fill="white" fill-opacity="0.03"/>
</svg>
