<svg width="1933" height="866" viewBox="0 0 1933 866" fill="none" xmlns="http://www.w3.org/2000/svg">
<g opacity="0.9">
<path fill-rule="evenodd" clip-rule="evenodd" d="M0 26.3084L46.3115 51.9423C91.6161 78.2507 184.239 129.518 275.855 123.447C368.478 116.702 460.094 51.9423 552.717 39.1254C644.333 26.3084 735.949 64.7592 828.572 110.63C920.189 155.827 1012.81 207.769 1104.43 207.769C1197.05 207.769 1288.67 155.827 1380.28 103.885C1472.91 51.9423 1564.52 0 1657.14 0C1748.76 0 1841.38 51.9423 1886.69 78.2507L1933 103.885V298.162H1886.69C1841.38 298.162 1748.76 298.162 1657.14 298.162C1564.52 298.162 1472.91 298.162 1380.28 298.162C1288.67 298.162 1197.05 298.162 1104.43 298.162C1012.81 298.162 920.189 298.162 828.572 298.162C735.949 298.162 644.333 298.162 552.717 298.162C460.094 298.162 368.478 298.162 275.855 298.162C184.239 298.162 91.6161 298.162 46.3115 298.162H0V26.3084Z" fill="url(#paint0_linear)"/>
<path d="M0 289.616H1933V866H0V289.616Z" fill="url(#paint1_linear)"/>
</g>
<defs>
<linearGradient id="paint0_linear" x1="1543" y1="540.749" x2="30.6669" y2="-465.953" gradientUnits="userSpaceOnUse">
<stop stop-color="#FF6A00"/>
<stop offset="0.799889" stop-color="#EE0979"/>
</linearGradient>
<linearGradient id="paint1_linear" x1="1543" y1="540.749" x2="30.6669" y2="-465.953" gradientUnits="userSpaceOnUse">
<stop stop-color="#FF6A00"/>
<stop offset="0.799889" stop-color="#EE0979"/>
</linearGradient>
</defs>
</svg>
