<svg width="176" height="52" viewBox="0 0 176 52" fill="none" xmlns="http://www.w3.org/2000/svg">
<path d="M69.9446 39L72.1051 32.544H81.9489L84.1222 39H89.1847L79.9545 12.8182H74.0994L64.8821 39H69.9446ZM73.3835 28.7344L76.9247 18.1875H77.1293L80.6705 28.7344H73.3835ZM92.4286 46.3636H97.0565V35.9062H97.2482C97.9769 37.3381 99.4982 39.3452 102.873 39.3452C107.501 39.3452 110.966 35.6761 110.966 29.2074C110.966 22.6619 107.399 19.108 102.86 19.108C99.396 19.108 97.9513 21.1918 97.2482 22.6108H96.9798V19.3636H92.4286V46.3636ZM96.967 29.1818C96.967 25.3722 98.6033 22.9048 101.582 22.9048C104.663 22.9048 106.248 25.5256 106.248 29.1818C106.248 32.8636 104.637 35.5483 101.582 35.5483C98.6289 35.5483 96.967 32.9915 96.967 29.1818ZM114.929 46.3636H119.556V35.9062H119.748C120.477 37.3381 121.998 39.3452 125.373 39.3452C130.001 39.3452 133.466 35.6761 133.466 29.2074C133.466 22.6619 129.899 19.108 125.36 19.108C121.896 19.108 120.451 21.1918 119.748 22.6108H119.48V19.3636H114.929V46.3636ZM119.467 29.1818C119.467 25.3722 121.103 22.9048 124.082 22.9048C127.163 22.9048 128.748 25.5256 128.748 29.1818C128.748 32.8636 127.137 35.5483 124.082 35.5483C121.129 35.5483 119.467 32.9915 119.467 29.1818ZM152.949 24.554C152.309 21.2301 149.65 19.108 145.048 19.108C140.318 19.108 137.096 21.4347 137.109 25.0653C137.096 27.929 138.86 29.821 142.632 30.6009L145.981 31.304C147.784 31.7003 148.627 32.429 148.627 33.5412C148.627 34.8835 147.17 35.8935 144.971 35.8935C142.849 35.8935 141.468 34.973 141.072 33.2088L136.559 33.6435C137.135 37.2486 140.164 39.3835 144.984 39.3835C149.893 39.3835 153.358 36.8395 153.37 33.1193C153.358 30.3196 151.555 28.6065 147.848 27.8011L144.498 27.0852C142.504 26.6378 141.711 25.9474 141.724 24.8097C141.711 23.4801 143.181 22.5597 145.112 22.5597C147.247 22.5597 148.372 23.723 148.73 25.0142L152.949 24.554ZM162.837 39.3963C165.918 39.3963 167.759 37.9517 168.603 36.3026H168.756V39H173.205V25.858C173.205 20.6676 168.973 19.108 165.228 19.108C161.098 19.108 157.928 20.9489 156.905 24.5284L161.226 25.142C161.686 23.7997 162.99 22.6491 165.253 22.6491C167.401 22.6491 168.577 23.7486 168.577 25.679V25.7557C168.577 27.0852 167.184 27.1491 163.719 27.5199C159.909 27.929 156.266 29.0668 156.266 33.4901C156.266 37.3509 159.091 39.3963 162.837 39.3963ZM164.039 35.9957C162.108 35.9957 160.728 35.1136 160.728 33.4134C160.728 31.6364 162.275 30.8949 164.346 30.6009C165.56 30.4347 167.989 30.1278 168.59 29.642V31.956C168.59 34.142 166.826 35.9957 164.039 35.9957Z" fill="white"/>
<g clip-path="url(#clip0)">
<path d="M23.3 34.2001L18 50.1001C20.4 50.8001 22.9 51.2001 25.6 51.2001C33.2 51.2001 40 47.9001 44.7 42.6001L41.8 34.1001H23.3V34.2001Z" fill="white"/>
<path d="M51.1996 25.6C51.1996 16.2 46.0996 8 38.5996 3.5L49.3996 35.1C50.5996 32.2 51.1996 29 51.1996 25.6Z" fill="white"/>
<path d="M25.6 0C11.5 0 0 11.5 0 25.6C0 34.7 4.8 42.8 12 47.3L28 0.1C27.2 0 26.4 0 25.6 0Z" fill="white"/>
<path d="M32.6002 4.30005H32.4002C31.6002 7.40005 30.8002 10.6 29.8002 13.8L24.7002 28.9H40.5002L35.4002 13.8C34.2002 10.4 33.4002 7.30005 32.6002 4.30005Z" fill="white"/>
</g>
<defs>
<clipPath id="clip0">
<rect width="51.2" height="51.2" fill="white"/>
</clipPath>
</defs>
</svg>
