<svg width="564" height="525" viewBox="0 0 564 525" fill="none" xmlns="http://www.w3.org/2000/svg">
<circle cx="260.447" cy="285.759" r="239.19" fill="#FF6A00" fill-opacity="0.02"/>
<g filter="url(#filter0_d)">
<rect x="16" y="126.474" width="273.36" height="88.3162" fill="white"/>
</g>
<circle cx="64.8894" cy="172.209" r="26.8103" fill="#FCAB10"/>
<path d="M51.1532 179.503C53.921 179.503 55.8514 177.624 55.8514 175.022C55.8514 172.504 54.0999 170.688 51.7221 170.688C50.661 170.688 49.7214 171.11 49.2356 171.686H49.1589L49.536 168.215H55.1674V166.233H47.5737L46.8897 172.983L49.0311 173.335C49.4721 172.849 50.3031 172.523 51.0893 172.529C52.5275 172.536 53.563 173.597 53.5566 175.08C53.563 176.543 52.5531 177.585 51.1532 177.585C49.9707 177.585 49.0183 176.838 48.9352 175.764H46.634C46.698 177.937 48.5964 179.503 51.1532 179.503ZM58.4721 179.324H60.933L66.4941 168.259V166.233H57.5772V168.215H64.0396V168.304L58.4721 179.324ZM74.6495 177.142C74.6552 178.494 75.5131 179.648 77.1097 179.648C78.7006 179.648 79.5756 178.494 79.5699 177.142V176.529C79.5756 175.165 78.7233 174.023 77.1097 174.023C75.5358 174.023 74.6552 175.176 74.6495 176.529V177.142ZM68.7347 170.483C68.7404 171.835 69.5983 172.977 71.2006 172.977C72.7858 172.977 73.6608 171.847 73.6552 170.483V169.869C73.6608 168.506 72.8086 167.364 71.2006 167.364C69.6324 167.364 68.7404 168.506 68.7347 169.869V170.483ZM69.2461 179.324H70.6722L78.6722 167.688H77.2461L69.2461 179.324ZM76.1324 176.529C76.1381 175.926 76.3938 175.318 77.1097 175.318C77.8597 175.318 78.0813 175.926 78.0756 176.529V177.142C78.0813 177.744 77.837 178.341 77.1097 178.341C76.3824 178.341 76.1381 177.739 76.1324 177.142V176.529ZM70.229 169.869C70.2347 169.273 70.479 168.659 71.2006 168.659C71.9506 168.659 72.1665 169.267 72.1608 169.869V170.483C72.1665 171.085 71.9279 171.682 71.2006 171.682C70.4733 171.682 70.2347 171.085 70.229 170.483V169.869Z" fill="white"/>
<path d="M115.272 167.913H117.352L119.687 159.748H119.778L122.108 167.913H124.187L127.471 156.277H125.204L123.108 164.833H123.005L120.761 156.277H118.699L116.46 164.828H116.352L114.255 156.277H111.988L115.272 167.913ZM130.463 168.089C131.832 168.089 132.65 167.447 133.025 166.714H133.093V167.913H135.071V162.072C135.071 159.765 133.19 159.072 131.525 159.072C129.69 159.072 128.281 159.89 127.826 161.481L129.747 161.754C129.951 161.157 130.531 160.646 131.537 160.646C132.491 160.646 133.014 161.135 133.014 161.993V162.027C133.014 162.618 132.395 162.646 130.855 162.811C129.162 162.993 127.542 163.498 127.542 165.464C127.542 167.18 128.798 168.089 130.463 168.089ZM130.997 166.578C130.139 166.578 129.525 166.186 129.525 165.43C129.525 164.64 130.213 164.311 131.133 164.18C131.673 164.106 132.752 163.97 133.02 163.754V164.782C133.02 165.754 132.235 166.578 130.997 166.578ZM140.377 168.066C141.877 168.066 142.554 167.174 142.877 166.538H143.002V167.913H145.025V156.277H142.963V160.629H142.877C142.565 159.998 141.923 159.072 140.383 159.072C138.366 159.072 136.781 160.652 136.781 163.561C136.781 166.436 138.321 168.066 140.377 168.066ZM140.951 166.379C139.593 166.379 138.877 165.186 138.877 163.549C138.877 161.924 139.582 160.76 140.951 160.76C142.275 160.76 143.002 161.856 143.002 163.549C143.002 165.243 142.264 166.379 140.951 166.379ZM151.081 168.083C153.115 168.083 154.512 167.089 154.876 165.572L152.956 165.356C152.677 166.095 151.995 166.481 151.109 166.481C149.779 166.481 148.899 165.606 148.882 164.112H154.961V163.481C154.961 160.419 153.12 159.072 150.973 159.072C148.473 159.072 146.842 160.907 146.842 163.6C146.842 166.339 148.45 168.083 151.081 168.083ZM148.887 162.725C148.95 161.612 149.774 160.674 151.001 160.674C152.183 160.674 152.978 161.538 152.99 162.725H148.887ZM163.21 167.913H165.289L167.625 159.748H167.716L170.045 167.913H172.125L175.409 156.277H173.142L171.045 164.833H170.943L168.699 156.277H166.636L164.397 164.828H164.289L162.193 156.277H159.926L163.21 167.913ZM178.4 168.089C179.77 168.089 180.588 167.447 180.963 166.714H181.031V167.913H183.008V162.072C183.008 159.765 181.127 159.072 179.463 159.072C177.627 159.072 176.218 159.89 175.764 161.481L177.684 161.754C177.889 161.157 178.468 160.646 179.474 160.646C180.429 160.646 180.951 161.135 180.951 161.993V162.027C180.951 162.618 180.332 162.646 178.792 162.811C177.099 162.993 175.48 163.498 175.48 165.464C175.48 167.18 176.735 168.089 178.4 168.089ZM178.934 166.578C178.076 166.578 177.463 166.186 177.463 165.43C177.463 164.64 178.15 164.311 179.071 164.18C179.61 164.106 180.69 163.97 180.957 163.754V164.782C180.957 165.754 180.173 166.578 178.934 166.578ZM185.076 167.913H187.133V162.782C187.133 161.674 187.968 160.89 189.099 160.89C189.446 160.89 189.877 160.953 190.054 161.01V159.118C189.866 159.083 189.542 159.061 189.315 159.061C188.315 159.061 187.48 159.629 187.162 160.64H187.071V159.186H185.076V167.913ZM191.42 167.913H193.477V162.782C193.477 161.674 194.312 160.89 195.443 160.89C195.789 160.89 196.221 160.953 196.397 161.01V159.118C196.21 159.083 195.886 159.061 195.659 159.061C194.659 159.061 193.824 159.629 193.505 160.64H193.414V159.186H191.42V167.913ZM201.268 168.083C203.302 168.083 204.7 167.089 205.064 165.572L203.143 165.356C202.865 166.095 202.183 166.481 201.297 166.481C199.967 166.481 199.086 165.606 199.069 164.112H205.149V163.481C205.149 160.419 203.308 159.072 201.16 159.072C198.66 159.072 197.029 160.907 197.029 163.6C197.029 166.339 198.637 168.083 201.268 168.083ZM199.075 162.725C199.137 161.612 199.961 160.674 201.189 160.674C202.37 160.674 203.166 161.538 203.177 162.725H199.075ZM208.946 162.799C208.946 161.538 209.707 160.811 210.792 160.811C211.855 160.811 212.491 161.51 212.491 162.674V167.913H214.548V162.356C214.554 160.265 213.36 159.072 211.559 159.072C210.252 159.072 209.355 159.697 208.957 160.669H208.855V159.186H206.889V167.913H208.946V162.799Z" fill="black"/>
<path d="M119.755 179.941C119.431 178.151 118 177.094 116.244 177.094C114.011 177.094 112.392 178.816 112.392 181.577C112.392 184.338 114.011 186.06 116.244 186.06C118 186.06 119.431 185.003 119.755 183.213H118.699C118.443 184.424 117.403 185.071 116.244 185.071C114.659 185.071 113.414 183.844 113.414 181.577C113.414 179.31 114.659 178.083 116.244 178.083C117.403 178.083 118.443 178.73 118.699 179.941H119.755ZM123.253 186.094C124.395 186.094 124.991 185.48 125.196 185.054H125.247V185.941H126.253V181.628C126.253 179.549 124.668 179.31 123.832 179.31C122.844 179.31 121.719 179.651 121.207 180.844L122.162 181.185C122.384 180.708 122.908 180.196 123.866 180.196C124.791 180.196 125.247 180.686 125.247 181.526V181.56C125.247 182.046 124.753 182.003 123.56 182.157C122.345 182.314 121.02 182.583 121.02 184.083C121.02 185.361 122.009 186.094 123.253 186.094ZM123.406 185.191C122.605 185.191 122.026 184.833 122.026 184.134C122.026 183.367 122.724 183.128 123.509 183.026C123.935 182.975 125.077 182.855 125.247 182.651V183.571C125.247 184.389 124.599 185.191 123.406 185.191ZM130.56 186.077C131.821 186.077 132.248 185.293 132.469 184.935H132.588V185.941H133.56V177.213H132.554V180.435H132.469C132.248 180.094 131.855 179.31 130.577 179.31C128.924 179.31 127.782 180.622 127.782 182.685C127.782 184.764 128.924 186.077 130.56 186.077ZM130.696 185.174C129.435 185.174 128.787 184.066 128.787 182.668C128.787 181.287 129.418 180.213 130.696 180.213C131.924 180.213 132.571 181.202 132.571 182.668C132.571 184.151 131.907 185.174 130.696 185.174ZM139.922 182.003C139.922 180.861 140.651 180.213 141.644 180.213C142.59 180.213 143.161 180.81 143.161 181.85V185.941H144.167V181.782C144.167 180.098 143.272 179.31 141.934 179.31C140.902 179.31 140.314 179.74 140.007 180.418H139.922V177.213H138.917V185.941H139.922V182.003ZM148.665 186.077C150.438 186.077 151.631 184.73 151.631 182.702C151.631 180.657 150.438 179.31 148.665 179.31C146.893 179.31 145.7 180.657 145.7 182.702C145.7 184.73 146.893 186.077 148.665 186.077ZM148.665 185.174C147.319 185.174 146.705 184.014 146.705 182.702C146.705 181.389 147.319 180.213 148.665 180.213C150.012 180.213 150.626 181.389 150.626 182.702C150.626 184.014 150.012 185.174 148.665 185.174ZM154.172 177.213H153.167V185.941H154.172V177.213ZM158.486 186.077C159.747 186.077 160.173 185.293 160.395 184.935H160.514V185.941H161.486V177.213H160.48V180.435H160.395C160.173 180.094 159.781 179.31 158.503 179.31C156.849 179.31 155.707 180.622 155.707 182.685C155.707 184.764 156.849 186.077 158.486 186.077ZM158.622 185.174C157.361 185.174 156.713 184.066 156.713 182.668C156.713 181.287 157.344 180.213 158.622 180.213C159.849 180.213 160.497 181.202 160.497 182.668C160.497 184.151 159.832 185.174 158.622 185.174ZM166.212 186.077C167.541 186.077 168.513 185.412 168.82 184.424L167.848 184.151C167.592 184.833 167 185.174 166.212 185.174C165.031 185.174 164.217 184.411 164.17 183.009H168.922V182.583C168.922 180.145 167.473 179.31 166.109 179.31C164.337 179.31 163.161 180.708 163.161 182.719C163.161 184.73 164.32 186.077 166.212 186.077ZM164.17 182.139C164.239 181.121 164.959 180.213 166.109 180.213C167.2 180.213 167.899 181.032 167.899 182.139H164.17ZM170.452 185.941H171.457V181.799C171.457 180.912 172.156 180.264 173.111 180.264C173.379 180.264 173.656 180.316 173.724 180.333V179.31C173.609 179.301 173.345 179.293 173.196 179.293C172.412 179.293 171.73 179.736 171.491 180.384H171.423V179.395H170.452V185.941Z" fill="#777777"/>
<g filter="url(#filter1_d)">
<rect x="66.4663" y="237.921" width="273.36" height="88.3162" fill="white"/>
</g>
<circle cx="115.355" cy="283.656" r="26.8103" fill="#39B54A"/>
<path d="M101.862 290.95C104.687 290.969 106.586 289.026 106.579 286.437C106.586 283.963 104.821 282.173 102.527 282.173C101.12 282.173 99.8804 282.857 99.254 283.982H99.1645C99.1709 281.227 100.181 279.553 101.996 279.553C103.121 279.553 103.882 280.205 104.125 281.208H106.458C106.177 279.092 104.47 277.501 101.996 277.501C98.8513 277.501 96.8633 280.122 96.8633 284.596C96.857 289.396 99.3499 290.937 101.862 290.95ZM101.849 289.032C100.449 289.032 99.4266 287.875 99.4202 286.507C99.433 285.133 100.494 283.982 101.881 283.982C103.268 283.982 104.285 285.082 104.278 286.488C104.285 287.92 103.236 289.032 101.849 289.032ZM113.579 291.02C116.736 291.026 118.622 288.534 118.622 284.238C118.622 279.968 116.723 277.501 113.579 277.501C110.434 277.501 108.542 279.962 108.535 284.238C108.535 288.527 110.421 291.02 113.579 291.02ZM113.579 289.019C111.949 289.019 110.926 287.383 110.932 284.238C110.939 281.119 111.955 279.476 113.579 279.476C115.209 279.476 116.225 281.119 116.231 284.238C116.231 287.383 115.215 289.019 113.579 289.019ZM126.838 288.589C126.844 289.941 127.702 291.095 129.298 291.095C130.889 291.095 131.764 289.941 131.758 288.589V287.975C131.764 286.612 130.912 285.47 129.298 285.47C127.724 285.47 126.844 286.623 126.838 287.975V288.589ZM120.923 281.93C120.929 283.282 121.787 284.424 123.389 284.424C124.974 284.424 125.849 283.293 125.844 281.93V281.316C125.849 279.953 124.997 278.811 123.389 278.811C121.821 278.811 120.929 279.953 120.923 281.316V281.93ZM121.435 290.771H122.861L130.861 279.134H129.435L121.435 290.771ZM128.321 287.975C128.327 287.373 128.582 286.765 129.298 286.765C130.048 286.765 130.27 287.373 130.264 287.975V288.589C130.27 289.191 130.025 289.788 129.298 289.788C128.571 289.788 128.327 289.186 128.321 288.589V287.975ZM122.418 281.316C122.423 280.72 122.668 280.106 123.389 280.106C124.139 280.106 124.355 280.714 124.349 281.316V281.93C124.355 282.532 124.116 283.129 123.389 283.129C122.662 283.129 122.423 282.532 122.418 281.93V281.316Z" fill="white"/>
<path d="M163.148 279H170.761V277.233H165.256V274.057H170.324V272.29H165.256V269.131H170.716V267.364H163.148V279ZM179.673 272.579C179.389 271.102 178.207 270.159 176.162 270.159C174.06 270.159 172.628 271.193 172.634 272.807C172.628 274.079 173.412 274.92 175.088 275.267L176.577 275.579C177.378 275.756 177.753 276.079 177.753 276.574C177.753 277.17 177.105 277.619 176.128 277.619C175.185 277.619 174.571 277.21 174.395 276.426L172.389 276.619C172.645 278.222 173.991 279.17 176.134 279.17C178.315 279.17 179.855 278.04 179.861 276.386C179.855 275.142 179.054 274.381 177.406 274.023L175.918 273.704C175.031 273.506 174.679 273.199 174.685 272.693C174.679 272.102 175.332 271.693 176.19 271.693C177.139 271.693 177.639 272.21 177.798 272.784L179.673 272.579ZM185.915 270.273H184.193V268.182H182.136V270.273H180.898V271.864H182.136V276.716C182.125 278.358 183.318 279.165 184.864 279.119C185.449 279.102 185.852 278.989 186.074 278.915L185.727 277.307C185.614 277.335 185.381 277.386 185.125 277.386C184.608 277.386 184.193 277.204 184.193 276.375V271.864H185.915V270.273ZM189.879 273.886C189.879 272.625 190.663 271.898 191.766 271.898C192.845 271.898 193.482 272.585 193.482 273.761V279H195.538V273.443C195.538 271.335 194.345 270.159 192.533 270.159C191.192 270.159 190.339 270.767 189.936 271.756H189.834V267.364H187.822V279H189.879V273.886ZM201.499 279.17C203.533 279.17 204.93 278.176 205.294 276.659L203.374 276.443C203.095 277.182 202.413 277.568 201.527 277.568C200.197 277.568 199.317 276.693 199.3 275.199H205.379V274.568C205.379 271.506 203.538 270.159 201.391 270.159C198.891 270.159 197.26 271.994 197.26 274.687C197.26 277.426 198.868 279.17 201.499 279.17ZM199.305 273.812C199.368 272.699 200.192 271.761 201.419 271.761C202.601 271.761 203.396 272.625 203.408 273.812H199.305ZM207.119 279H209.176V273.869C209.176 272.761 210.011 271.977 211.142 271.977C211.489 271.977 211.92 272.04 212.097 272.097V270.204C211.909 270.17 211.585 270.148 211.358 270.148C210.358 270.148 209.523 270.716 209.205 271.727H209.114V270.273H207.119V279ZM217.523 279H219.631V274.057H225.023V279H227.136V267.364H225.023V272.29H219.631V267.364H217.523V279ZM233.145 279.17C235.702 279.17 237.327 277.369 237.327 274.67C237.327 271.966 235.702 270.159 233.145 270.159C230.588 270.159 228.963 271.966 228.963 274.67C228.963 277.369 230.588 279.17 233.145 279.17ZM233.156 277.523C231.741 277.523 231.048 276.261 231.048 274.665C231.048 273.068 231.741 271.79 233.156 271.79C234.548 271.79 235.241 273.068 235.241 274.665C235.241 276.261 234.548 277.523 233.156 277.523ZM240.639 279H242.787L244.423 273.102H244.543L246.179 279H248.321L250.793 270.273H248.69L247.179 276.375H247.094L245.526 270.273H243.452L241.884 276.409H241.804L240.27 270.273H238.173L240.639 279ZM254.74 279.176C256.109 279.176 256.928 278.534 257.303 277.801H257.371V279H259.348V273.159C259.348 270.852 257.467 270.159 255.803 270.159C253.967 270.159 252.558 270.977 252.104 272.568L254.024 272.841C254.229 272.244 254.808 271.733 255.814 271.733C256.768 271.733 257.291 272.222 257.291 273.079V273.114C257.291 273.704 256.672 273.733 255.132 273.898C253.439 274.079 251.82 274.585 251.82 276.551C251.82 278.267 253.075 279.176 254.74 279.176ZM255.274 277.665C254.416 277.665 253.803 277.273 253.803 276.517C253.803 275.727 254.49 275.398 255.411 275.267C255.95 275.193 257.03 275.057 257.297 274.841V275.869C257.297 276.841 256.513 277.665 255.274 277.665ZM261.416 279H263.473V273.869C263.473 272.761 264.308 271.977 265.439 271.977C265.786 271.977 266.217 272.04 266.393 272.097V270.204C266.206 270.17 265.882 270.148 265.655 270.148C264.655 270.148 263.82 270.716 263.501 271.727H263.411V270.273H261.416V279ZM270.639 279.153C272.139 279.153 272.815 278.261 273.139 277.625H273.264V279H275.287V267.364H273.224V271.716H273.139C272.827 271.085 272.185 270.159 270.645 270.159C268.628 270.159 267.043 271.739 267.043 274.648C267.043 277.523 268.582 279.153 270.639 279.153ZM271.213 277.466C269.855 277.466 269.139 276.273 269.139 274.636C269.139 273.011 269.844 271.847 271.213 271.847C272.537 271.847 273.264 272.943 273.264 274.636C273.264 276.329 272.526 277.466 271.213 277.466Z" fill="black"/>
<path d="M170.221 291.387C169.897 289.598 168.465 288.541 166.71 288.541C164.477 288.541 162.858 290.262 162.858 293.024C162.858 295.785 164.477 297.507 166.71 297.507C168.465 297.507 169.897 296.45 170.221 294.66H169.164C168.909 295.87 167.869 296.518 166.71 296.518C165.125 296.518 163.88 295.291 163.88 293.024C163.88 290.757 165.125 289.529 166.71 289.529C167.869 289.529 168.909 290.177 169.164 291.387H170.221ZM173.719 297.541C174.861 297.541 175.457 296.927 175.662 296.501H175.713V297.387H176.719V293.075C176.719 290.995 175.133 290.757 174.298 290.757C173.31 290.757 172.185 291.098 171.673 292.291L172.628 292.632C172.849 292.154 173.373 291.643 174.332 291.643C175.257 291.643 175.713 292.133 175.713 292.973V293.007C175.713 293.492 175.219 293.45 174.025 293.603C172.811 293.761 171.486 294.029 171.486 295.529C171.486 296.808 172.474 297.541 173.719 297.541ZM173.872 296.637C173.071 296.637 172.491 296.279 172.491 295.58C172.491 294.813 173.19 294.575 173.974 294.473C174.4 294.421 175.543 294.302 175.713 294.098V295.018C175.713 295.836 175.065 296.637 173.872 296.637ZM181.026 297.524C182.287 297.524 182.713 296.74 182.935 296.382H183.054V297.387H184.026V288.66H183.02V291.882H182.935C182.713 291.541 182.321 290.757 181.043 290.757C179.389 290.757 178.247 292.069 178.247 294.132C178.247 296.211 179.389 297.524 181.026 297.524ZM181.162 296.62C179.901 296.62 179.253 295.512 179.253 294.115C179.253 292.734 179.884 291.66 181.162 291.66C182.389 291.66 183.037 292.649 183.037 294.115C183.037 295.598 182.372 296.62 181.162 296.62ZM190.388 293.45C190.388 292.308 191.117 291.66 192.11 291.66C193.056 291.66 193.627 292.257 193.627 293.296V297.387H194.632V293.228C194.632 291.545 193.737 290.757 192.399 290.757C191.368 290.757 190.78 291.187 190.473 291.865H190.388V288.66H189.382V297.387H190.388V293.45ZM199.131 297.524C200.904 297.524 202.097 296.177 202.097 294.149C202.097 292.103 200.904 290.757 199.131 290.757C197.359 290.757 196.165 292.103 196.165 294.149C196.165 296.177 197.359 297.524 199.131 297.524ZM199.131 296.62C197.785 296.62 197.171 295.461 197.171 294.149C197.171 292.836 197.785 291.66 199.131 291.66C200.478 291.66 201.092 292.836 201.092 294.149C201.092 295.461 200.478 296.62 199.131 296.62ZM204.638 288.66H203.632V297.387H204.638V288.66ZM208.952 297.524C210.213 297.524 210.639 296.74 210.861 296.382H210.98V297.387H211.952V288.66H210.946V291.882H210.861C210.639 291.541 210.247 290.757 208.969 290.757C207.315 290.757 206.173 292.069 206.173 294.132C206.173 296.211 207.315 297.524 208.952 297.524ZM209.088 296.62C207.827 296.62 207.179 295.512 207.179 294.115C207.179 292.734 207.81 291.66 209.088 291.66C210.315 291.66 210.963 292.649 210.963 294.115C210.963 295.598 210.298 296.62 209.088 296.62ZM216.677 297.524C218.007 297.524 218.979 296.859 219.285 295.87L218.314 295.598C218.058 296.279 217.466 296.62 216.677 296.62C215.497 296.62 214.683 295.857 214.636 294.455H219.388V294.029C219.388 291.592 217.939 290.757 216.575 290.757C214.802 290.757 213.626 292.154 213.626 294.166C213.626 296.177 214.785 297.524 216.677 297.524ZM214.636 293.586C214.704 292.568 215.425 291.66 216.575 291.66C217.666 291.66 218.365 292.478 218.365 293.586H214.636ZM220.918 297.387H221.923V293.245C221.923 292.359 222.622 291.711 223.577 291.711C223.845 291.711 224.122 291.762 224.19 291.779V290.757C224.075 290.748 223.811 290.74 223.662 290.74C222.878 290.74 222.196 291.183 221.957 291.83H221.889V290.842H220.918V297.387Z" fill="#777777"/>
<g filter="url(#filter2_d)">
<rect x="135.858" y="349.368" width="273.36" height="88.3162" fill="white"/>
</g>
<circle cx="184.747" cy="395.103" r="26.8103" fill="#F8333C"/>
<path d="M171.113 402.396C173.945 402.396 175.971 400.837 175.978 398.708C175.971 397.072 174.763 395.704 173.242 395.448V395.359C174.565 395.065 175.486 393.876 175.492 392.457C175.486 390.443 173.632 388.947 171.113 388.947C168.576 388.947 166.722 390.437 166.728 392.457C166.722 393.876 167.63 395.065 168.978 395.359V395.448C167.432 395.704 166.236 397.072 166.243 398.708C166.236 400.837 168.256 402.396 171.113 402.396ZM171.113 400.568C169.63 400.568 168.672 399.75 168.684 398.542C168.672 397.289 169.701 396.401 171.113 396.401C172.507 396.401 173.53 397.295 173.542 398.542C173.53 399.75 172.577 400.568 171.113 400.568ZM171.113 394.604C169.899 394.604 169.03 393.818 169.042 392.68C169.03 391.555 169.873 390.801 171.113 390.801C172.334 390.801 173.172 391.555 173.184 392.68C173.172 393.825 172.309 394.604 171.113 394.604ZM182.918 402.467C186.076 402.473 187.961 399.98 187.961 395.685C187.961 391.415 186.063 388.947 182.918 388.947C179.773 388.947 177.881 391.408 177.875 395.685C177.875 399.974 179.76 402.467 182.918 402.467ZM182.918 400.466C181.288 400.466 180.265 398.83 180.272 395.685C180.278 392.565 181.294 390.923 182.918 390.923C184.548 390.923 185.564 392.565 185.571 395.685C185.571 398.83 184.554 400.466 182.918 400.466ZM196.177 400.036C196.183 401.388 197.041 402.541 198.638 402.541C200.228 402.541 201.103 401.388 201.098 400.036V399.422C201.103 398.058 200.251 396.916 198.638 396.916C197.064 396.916 196.183 398.07 196.177 399.422V400.036ZM190.263 393.376C190.268 394.729 191.126 395.871 192.728 395.871C194.314 395.871 195.189 394.74 195.183 393.376V392.763C195.189 391.399 194.336 390.257 192.728 390.257C191.16 390.257 190.268 391.399 190.263 392.763V393.376ZM190.774 402.217H192.2L200.2 390.581H198.774L190.774 402.217ZM197.66 399.422C197.666 398.82 197.922 398.212 198.638 398.212C199.388 398.212 199.609 398.82 199.603 399.422V400.036C199.609 400.638 199.365 401.234 198.638 401.234C197.91 401.234 197.666 400.632 197.66 400.036V399.422ZM191.757 392.763C191.763 392.166 192.007 391.553 192.728 391.553C193.478 391.553 193.694 392.161 193.689 392.763V393.376C193.694 393.979 193.456 394.575 192.728 394.575C192.001 394.575 191.763 393.979 191.757 393.376V392.763Z" fill="white"/>
<path d="M233.147 391H240.38V389.233H235.255V379.364H233.147V391ZM245.983 391.17C248.017 391.17 249.415 390.176 249.778 388.659L247.858 388.443C247.579 389.182 246.897 389.568 246.011 389.568C244.682 389.568 243.801 388.693 243.784 387.199H249.863V386.568C249.863 383.506 248.022 382.159 245.875 382.159C243.375 382.159 241.744 383.994 241.744 386.688C241.744 389.426 243.352 391.17 245.983 391.17ZM243.79 385.813C243.852 384.699 244.676 383.761 245.903 383.761C247.085 383.761 247.88 384.625 247.892 385.813H243.79ZM258.501 384.58C258.217 383.102 257.035 382.159 254.99 382.159C252.888 382.159 251.456 383.193 251.461 384.807C251.456 386.08 252.24 386.92 253.916 387.267L255.405 387.58C256.206 387.756 256.581 388.08 256.581 388.574C256.581 389.17 255.933 389.619 254.956 389.619C254.013 389.619 253.399 389.21 253.223 388.426L251.217 388.619C251.473 390.222 252.819 391.17 254.961 391.17C257.143 391.17 258.683 390.04 258.689 388.386C258.683 387.142 257.882 386.381 256.234 386.023L254.745 385.705C253.859 385.506 253.507 385.199 253.513 384.693C253.507 384.102 254.16 383.693 255.018 383.693C255.967 383.693 256.467 384.21 256.626 384.784L258.501 384.58ZM262.442 379.364H260.385V391H262.442V379.364ZM264.557 391H266.613V382.273H264.557V391ZM265.591 381.034C266.244 381.034 266.778 380.534 266.778 379.92C266.778 379.301 266.244 378.801 265.591 378.801C264.932 378.801 264.397 379.301 264.397 379.92C264.397 380.534 264.932 381.034 265.591 381.034ZM272.592 391.17C274.626 391.17 276.024 390.176 276.388 388.659L274.467 388.443C274.189 389.182 273.507 389.568 272.62 389.568C271.291 389.568 270.41 388.693 270.393 387.199H276.473V386.568C276.473 383.506 274.632 382.159 272.484 382.159C269.984 382.159 268.353 383.994 268.353 386.688C268.353 389.426 269.961 391.17 272.592 391.17ZM270.399 385.813C270.461 384.699 271.285 383.761 272.513 383.761C273.694 383.761 274.49 384.625 274.501 385.813H270.399ZM283.767 391L284.727 388.131H289.102L290.068 391H292.318L288.216 379.364H285.613L281.517 391H283.767ZM285.295 386.438L286.869 381.75H286.96L288.534 386.438H285.295ZM295.817 379.364H293.76V391H295.817V379.364ZM301.795 391.17C303.829 391.17 305.227 390.176 305.591 388.659L303.67 388.443C303.392 389.182 302.71 389.568 301.824 389.568C300.494 389.568 299.613 388.693 299.596 387.199H305.676V386.568C305.676 383.506 303.835 382.159 301.687 382.159C299.187 382.159 297.557 383.994 297.557 386.688C297.557 389.426 299.165 391.17 301.795 391.17ZM299.602 385.813C299.665 384.699 300.488 383.761 301.716 383.761C302.897 383.761 303.693 384.625 303.704 385.813H299.602ZM308.926 382.273H306.744L309.335 386.636L306.676 391H308.858L310.687 387.858L312.534 391H314.699L312.022 386.636L314.653 382.273H312.477L310.687 385.494L308.926 382.273ZM318.724 391.176C320.094 391.176 320.912 390.534 321.287 389.801H321.355V391H323.332V385.159C323.332 382.852 321.451 382.159 319.787 382.159C317.951 382.159 316.542 382.977 316.088 384.568L318.008 384.841C318.213 384.244 318.792 383.733 319.798 383.733C320.753 383.733 321.275 384.222 321.275 385.08V385.114C321.275 385.705 320.656 385.733 319.116 385.898C317.423 386.08 315.804 386.585 315.804 388.551C315.804 390.267 317.059 391.176 318.724 391.176ZM319.258 389.665C318.4 389.665 317.787 389.273 317.787 388.517C317.787 387.727 318.474 387.398 319.395 387.267C319.934 387.193 321.014 387.057 321.281 386.841V387.869C321.281 388.841 320.497 389.665 319.258 389.665ZM327.457 385.886C327.457 384.625 328.219 383.898 329.304 383.898C330.366 383.898 331.003 384.597 331.003 385.761V391H333.059V385.443C333.065 383.352 331.872 382.159 330.071 382.159C328.764 382.159 327.866 382.784 327.469 383.756H327.366V382.273H325.4V391H327.457V385.886ZM338.389 391.153C339.889 391.153 340.565 390.261 340.889 389.625H341.014V391H343.037V379.364H340.974V383.716H340.889C340.576 383.085 339.934 382.159 338.395 382.159C336.378 382.159 334.792 383.739 334.792 386.648C334.792 389.523 336.332 391.153 338.389 391.153ZM338.963 389.466C337.605 389.466 336.889 388.273 336.889 386.636C336.889 385.011 337.594 383.847 338.963 383.847C340.287 383.847 341.014 384.943 341.014 386.636C341.014 388.33 340.275 389.466 338.963 389.466ZM349.092 391.17C351.126 391.17 352.524 390.176 352.888 388.659L350.967 388.443C350.689 389.182 350.007 389.568 349.12 389.568C347.791 389.568 346.91 388.693 346.893 387.199H352.973V386.568C352.973 383.506 351.132 382.159 348.984 382.159C346.484 382.159 344.853 383.994 344.853 386.688C344.853 389.426 346.461 391.17 349.092 391.17ZM346.899 385.813C346.961 384.699 347.785 383.761 349.013 383.761C350.194 383.761 350.99 384.625 351.001 385.813H346.899ZM354.713 391H356.77V385.869C356.77 384.761 357.605 383.977 358.736 383.977C359.082 383.977 359.514 384.04 359.69 384.097V382.205C359.503 382.17 359.179 382.148 358.951 382.148C357.951 382.148 357.116 382.716 356.798 383.727H356.707V382.273H354.713V391Z" fill="black"/>
<path d="M239.614 402.834C239.29 401.044 237.858 399.987 236.102 399.987C233.869 399.987 232.25 401.709 232.25 404.47C232.25 407.232 233.869 408.953 236.102 408.953C237.858 408.953 239.29 407.897 239.614 406.107H238.557C238.301 407.317 237.261 407.965 236.102 407.965C234.517 407.965 233.273 406.737 233.273 404.47C233.273 402.203 234.517 400.976 236.102 400.976C237.261 400.976 238.301 401.624 238.557 402.834H239.614ZM243.111 408.987C244.253 408.987 244.85 408.374 245.054 407.948H245.106V408.834H246.111V404.522C246.111 402.442 244.526 402.203 243.691 402.203C242.702 402.203 241.577 402.544 241.066 403.737L242.02 404.078C242.242 403.601 242.766 403.09 243.725 403.09C244.65 403.09 245.106 403.58 245.106 404.419V404.453C245.106 404.939 244.611 404.897 243.418 405.05C242.204 405.208 240.878 405.476 240.878 406.976C240.878 408.254 241.867 408.987 243.111 408.987ZM243.265 408.084C242.464 408.084 241.884 407.726 241.884 407.027C241.884 406.26 242.583 406.022 243.367 405.919C243.793 405.868 244.935 405.749 245.106 405.544V406.465C245.106 407.283 244.458 408.084 243.265 408.084ZM250.418 408.97C251.68 408.97 252.106 408.186 252.328 407.828H252.447V408.834H253.418V400.107H252.413V403.328H252.328C252.106 402.987 251.714 402.203 250.435 402.203C248.782 402.203 247.64 403.516 247.64 405.578C247.64 407.658 248.782 408.97 250.418 408.97ZM250.555 408.067C249.293 408.067 248.646 406.959 248.646 405.561C248.646 404.181 249.276 403.107 250.555 403.107C251.782 403.107 252.43 404.095 252.43 405.561C252.43 407.044 251.765 408.067 250.555 408.067ZM259.781 404.897C259.781 403.754 260.509 403.107 261.502 403.107C262.448 403.107 263.019 403.703 263.019 404.743V408.834H264.025V404.675C264.025 402.992 263.13 402.203 261.792 402.203C260.761 402.203 260.173 402.634 259.866 403.311H259.781V400.107H258.775V408.834H259.781V404.897ZM268.524 408.97C270.297 408.97 271.49 407.624 271.49 405.595C271.49 403.55 270.297 402.203 268.524 402.203C266.751 402.203 265.558 403.55 265.558 405.595C265.558 407.624 266.751 408.97 268.524 408.97ZM268.524 408.067C267.177 408.067 266.564 406.908 266.564 405.595C266.564 404.283 267.177 403.107 268.524 403.107C269.87 403.107 270.484 404.283 270.484 405.595C270.484 406.908 269.87 408.067 268.524 408.067ZM274.031 400.107H273.025V408.834H274.031V400.107ZM278.344 408.97C279.606 408.97 280.032 408.186 280.253 407.828H280.373V408.834H281.344V400.107H280.339V403.328H280.253C280.032 402.987 279.64 402.203 278.361 402.203C276.708 402.203 275.566 403.516 275.566 405.578C275.566 407.658 276.708 408.97 278.344 408.97ZM278.481 408.067C277.219 408.067 276.571 406.959 276.571 405.561C276.571 404.181 277.202 403.107 278.481 403.107C279.708 403.107 280.356 404.095 280.356 405.561C280.356 407.044 279.691 408.067 278.481 408.067ZM286.07 408.97C287.4 408.97 288.371 408.306 288.678 407.317L287.706 407.044C287.451 407.726 286.858 408.067 286.07 408.067C284.89 408.067 284.076 407.304 284.029 405.902H288.78V405.476C288.78 403.039 287.331 402.203 285.968 402.203C284.195 402.203 283.019 403.601 283.019 405.612C283.019 407.624 284.178 408.97 286.07 408.97ZM284.029 405.033C284.097 404.014 284.817 403.107 285.968 403.107C287.059 403.107 287.758 403.925 287.758 405.033H284.029ZM290.31 408.834H291.316V404.692C291.316 403.806 292.015 403.158 292.969 403.158C293.238 403.158 293.515 403.209 293.583 403.226V402.203C293.468 402.195 293.204 402.186 293.054 402.186C292.27 402.186 291.589 402.629 291.35 403.277H291.282V402.289H290.31V408.834Z" fill="#777777"/>
<g filter="url(#filter3_d)">
<rect x="253" y="11" width="106.19" height="107.241" rx="22" fill="#FF6A00"/>
</g>
<g clip-path="url(#clip0)">
<path d="M323.762 74.401C320.914 71.9936 319.281 68.4748 319.281 64.7469V59.4951C319.281 52.8662 314.357 47.3789 307.979 46.4597V44.4252C307.979 43.3835 307.135 42.5415 306.095 42.5415C305.055 42.5415 304.211 43.3835 304.211 44.4252V46.4597C297.831 47.3789 292.909 52.8662 292.909 59.4951V64.7469C292.909 68.4748 291.276 71.9936 288.41 74.4161C287.678 75.0434 287.258 75.9551 287.258 76.9196C287.258 78.7374 288.736 80.2161 290.554 80.2161H321.636C323.453 80.2161 324.932 78.7374 324.932 76.9196C324.932 75.9551 324.512 75.0434 323.762 74.401Z" fill="white"/>
<path d="M306.094 87.751C309.506 87.751 312.36 85.3191 313.015 82.0998H299.174C299.829 85.3191 302.683 87.751 306.094 87.751Z" fill="white"/>
</g>
<g filter="url(#filter4_d)">
<rect x="429.194" y="313.621" width="118.806" height="119.858" rx="22" fill="#9657F6"/>
</g>
<g clip-path="url(#clip1)">
<path d="M506.75 361.95L510.339 358.362L506.808 354.83L502.969 358.668C499.462 356.183 495.37 354.652 491.094 354.224V349.105H496.088V344.111H481.106V349.105H486.1V354.224C481.823 354.652 477.731 356.183 474.225 358.668L470.386 354.83L466.855 358.362L470.443 361.95C467.094 365.496 464.857 369.946 464.008 374.75C463.159 379.553 463.735 384.5 465.666 388.98C467.597 393.459 470.797 397.275 474.873 399.956C478.948 402.637 483.719 404.066 488.597 404.066C493.475 404.066 498.246 402.637 502.321 399.956C506.396 397.275 509.597 393.459 511.528 388.98C513.459 384.5 514.035 379.553 513.186 374.75C512.337 369.946 510.1 365.496 506.75 361.95ZM488.597 399.045C484.646 399.045 480.784 397.874 477.499 395.679C474.214 393.484 471.653 390.364 470.141 386.714C468.629 383.064 468.234 379.047 469.004 375.172C469.775 371.297 471.678 367.738 474.471 364.944C477.265 362.15 480.825 360.247 484.7 359.477C488.575 358.706 492.591 359.102 496.241 360.613C499.892 362.125 503.011 364.686 505.207 367.971C507.402 371.256 508.573 375.118 508.573 379.069C508.567 384.365 506.461 389.443 502.716 393.188C498.971 396.933 493.893 399.039 488.597 399.045Z" fill="white"/>
<path d="M488.597 364.087V379.069H473.615C473.615 382.032 474.493 384.929 476.139 387.393C477.786 389.857 480.126 391.777 482.863 392.911C485.601 394.045 488.613 394.342 491.52 393.763C494.426 393.185 497.095 391.758 499.191 389.663C501.286 387.568 502.713 384.898 503.291 381.992C503.869 379.086 503.572 376.073 502.438 373.336C501.305 370.598 499.384 368.258 496.92 366.612C494.457 364.966 491.56 364.087 488.597 364.087Z" fill="white"/>
</g>
<defs>
<filter id="filter0_d" x="0" y="110.474" width="305.36" height="120.316" filterUnits="userSpaceOnUse" color-interpolation-filters="sRGB">
<feFlood flood-opacity="0" result="BackgroundImageFix"/>
<feColorMatrix in="SourceAlpha" type="matrix" values="0 0 0 0 0 0 0 0 0 0 0 0 0 0 0 0 0 0 127 0" result="hardAlpha"/>
<feMorphology radius="5" operator="dilate" in="SourceAlpha" result="effect1_dropShadow"/>
<feOffset/>
<feGaussianBlur stdDeviation="5.5"/>
<feComposite in2="hardAlpha" operator="out"/>
<feColorMatrix type="matrix" values="0 0 0 0 0 0 0 0 0 0 0 0 0 0 0 0 0 0 0.02 0"/>
<feBlend mode="normal" in2="BackgroundImageFix" result="effect1_dropShadow"/>
<feBlend mode="normal" in="SourceGraphic" in2="effect1_dropShadow" result="shape"/>
</filter>
<filter id="filter1_d" x="50.4663" y="221.921" width="305.36" height="120.316" filterUnits="userSpaceOnUse" color-interpolation-filters="sRGB">
<feFlood flood-opacity="0" result="BackgroundImageFix"/>
<feColorMatrix in="SourceAlpha" type="matrix" values="0 0 0 0 0 0 0 0 0 0 0 0 0 0 0 0 0 0 127 0" result="hardAlpha"/>
<feMorphology radius="5" operator="dilate" in="SourceAlpha" result="effect1_dropShadow"/>
<feOffset/>
<feGaussianBlur stdDeviation="5.5"/>
<feComposite in2="hardAlpha" operator="out"/>
<feColorMatrix type="matrix" values="0 0 0 0 0 0 0 0 0 0 0 0 0 0 0 0 0 0 0.02 0"/>
<feBlend mode="normal" in2="BackgroundImageFix" result="effect1_dropShadow"/>
<feBlend mode="normal" in="SourceGraphic" in2="effect1_dropShadow" result="shape"/>
</filter>
<filter id="filter2_d" x="119.858" y="333.368" width="305.36" height="120.316" filterUnits="userSpaceOnUse" color-interpolation-filters="sRGB">
<feFlood flood-opacity="0" result="BackgroundImageFix"/>
<feColorMatrix in="SourceAlpha" type="matrix" values="0 0 0 0 0 0 0 0 0 0 0 0 0 0 0 0 0 0 127 0" result="hardAlpha"/>
<feMorphology radius="5" operator="dilate" in="SourceAlpha" result="effect1_dropShadow"/>
<feOffset/>
<feGaussianBlur stdDeviation="5.5"/>
<feComposite in2="hardAlpha" operator="out"/>
<feColorMatrix type="matrix" values="0 0 0 0 0 0 0 0 0 0 0 0 0 0 0 0 0 0 0.02 0"/>
<feBlend mode="normal" in2="BackgroundImageFix" result="effect1_dropShadow"/>
<feBlend mode="normal" in="SourceGraphic" in2="effect1_dropShadow" result="shape"/>
</filter>
<filter id="filter3_d" x="242" y="0" width="128.19" height="129.241" filterUnits="userSpaceOnUse" color-interpolation-filters="sRGB">
<feFlood flood-opacity="0" result="BackgroundImageFix"/>
<feColorMatrix in="SourceAlpha" type="matrix" values="0 0 0 0 0 0 0 0 0 0 0 0 0 0 0 0 0 0 127 0" result="hardAlpha"/>
<feMorphology radius="1" operator="erode" in="SourceAlpha" result="effect1_dropShadow"/>
<feOffset/>
<feGaussianBlur stdDeviation="6"/>
<feComposite in2="hardAlpha" operator="out"/>
<feColorMatrix type="matrix" values="0 0 0 0 0.160784 0 0 0 0 0.160784 0 0 0 0 0.160784 0 0 0 0.04 0"/>
<feBlend mode="normal" in2="BackgroundImageFix" result="effect1_dropShadow"/>
<feBlend mode="normal" in="SourceGraphic" in2="effect1_dropShadow" result="shape"/>
</filter>
<filter id="filter4_d" x="413.194" y="297.621" width="150.806" height="151.858" filterUnits="userSpaceOnUse" color-interpolation-filters="sRGB">
<feFlood flood-opacity="0" result="BackgroundImageFix"/>
<feColorMatrix in="SourceAlpha" type="matrix" values="0 0 0 0 0 0 0 0 0 0 0 0 0 0 0 0 0 0 127 0" result="hardAlpha"/>
<feMorphology radius="4" operator="dilate" in="SourceAlpha" result="effect1_dropShadow"/>
<feOffset/>
<feGaussianBlur stdDeviation="6"/>
<feComposite in2="hardAlpha" operator="out"/>
<feColorMatrix type="matrix" values="0 0 0 0 0.160784 0 0 0 0 0.160784 0 0 0 0 0.160784 0 0 0 0.06 0"/>
<feBlend mode="normal" in2="BackgroundImageFix" result="effect1_dropShadow"/>
<feBlend mode="normal" in="SourceGraphic" in2="effect1_dropShadow" result="shape"/>
</filter>
<clipPath id="clip0">
<rect width="45.2095" height="45.2095" fill="white" transform="translate(283.49 42.5415)"/>
</clipPath>
<clipPath id="clip1">
<rect width="59.9289" height="59.9289" fill="white" transform="translate(458.632 344.111)"/>
</clipPath>
</defs>
</svg>
