<svg width="98" height="98" viewBox="0 0 98 98" fill="none" xmlns="http://www.w3.org/2000/svg">
<g clip-path="url(#clip0)">
<path d="M49 1.91406C22.9726 1.91406 1.91406 22.9764 1.91406 49C1.91406 74.9807 22.9374 96.0859 49 96.0859C75.1798 96.0859 96.0859 74.8557 96.0859 49C96.0859 22.9726 75.0236 1.91406 49 1.91406Z" fill="#FBF3EC"/>
<path d="M77.5811 86.4333V86.4352C69.6588 92.4913 59.7535 96.0859 49.0003 96.0859C38.249 96.0859 28.3437 92.4913 20.4214 86.4352C21.8091 71.873 34.0744 60.4844 49.0003 60.4844C63.9262 60.4844 76.1896 71.8711 77.5811 86.4333Z" fill="#91BA83"/>
<path d="M49 52.8281C57.4569 52.8281 64.3125 45.9725 64.3125 37.5156C64.3125 29.0588 57.4569 22.2031 49 22.2031C40.5431 22.2031 33.6875 29.0588 33.6875 37.5156C33.6875 45.9725 40.5431 52.8281 49 52.8281Z" fill="#91BA83"/>
<path d="M31.7734 37.5156C31.7734 47.0144 39.5013 54.7422 49 54.7422C58.4987 54.7422 66.2266 47.0144 66.2266 37.5156C66.2266 28.0169 58.4987 20.2891 49 20.2891C39.5013 20.2891 31.7734 28.0169 31.7734 37.5156ZM62.3984 37.5156C62.3984 44.9035 56.3879 50.9141 49 50.9141C41.6121 50.9141 35.6016 44.9035 35.6016 37.5156C35.6016 30.1277 41.6121 24.1172 49 24.1172C56.3879 24.1172 62.3984 30.1277 62.3984 37.5156Z" fill="#292929"/>
<path d="M84.2188 19.5234C85.2759 19.5234 86.1328 18.6665 86.1328 17.6094C86.1328 16.5523 85.2759 15.6953 84.2188 15.6953C83.1616 15.6953 82.3047 16.5523 82.3047 17.6094C82.3047 18.6665 83.1616 19.5234 84.2188 19.5234Z" fill="#292929"/>
<path d="M49 98C76.1613 98 98 76.0023 98 49C98 40.0098 95.5489 31.2214 90.912 23.5847C90.3635 22.6813 89.1865 22.3936 88.2825 22.942C87.3789 23.4907 87.0912 24.6679 87.6399 25.5715C91.9131 32.6093 94.1719 40.7108 94.1719 49C94.1719 62.0975 88.6649 74.2457 78.9597 82.8182C76.0051 68.8821 63.6479 58.5703 49 58.5703C34.3521 58.5703 21.9935 68.8833 19.0421 82.82C9.33565 74.2465 3.82812 62.0977 3.82812 49C3.82812 24.0921 24.0921 3.82812 49 3.82812C59.1424 3.82812 68.7208 7.10404 76.6995 13.302C77.5343 13.9505 78.7369 13.7992 79.3854 12.9645C80.0338 12.1298 79.8828 10.9272 79.0479 10.2787C70.3914 3.55422 60.0009 0 49 0C35.9009 0 23.5931 5.09447 14.3434 14.3448C5.09389 23.5946 0 35.9021 0 49C0 76.0704 21.9082 98 49 98ZM49 62.3984C62.5318 62.3984 73.7643 72.2827 75.5523 85.5599C67.8089 91.1974 58.6524 94.1719 49 94.1719C39.3485 94.1719 30.1932 91.197 22.4498 85.5594C24.2353 72.2823 35.4666 62.3984 49 62.3984Z" fill="#292929"/>
</g>
<defs>
<clipPath id="clip0">
<rect width="98" height="98" fill="white"/>
</clipPath>
</defs>
</svg>
